<?xml version="1.0" encoding="UTF-8" standalone="no"?>
<!-- Created with Inkscape (http://www.inkscape.org/) -->

<svg
   xmlns:dc="http://purl.org/dc/elements/1.1/"
   xmlns:cc="http://creativecommons.org/ns#"
   xmlns:rdf="http://www.w3.org/1999/02/22-rdf-syntax-ns#"
   xmlns:svg="http://www.w3.org/2000/svg"
   xmlns="http://www.w3.org/2000/svg"
   xmlns:sodipodi="http://sodipodi.sourceforge.net/DTD/sodipodi-0.dtd"
   xmlns:inkscape="http://www.inkscape.org/namespaces/inkscape"
   version="1.0"
   width="268.70078"
   height="121.35958"
   id="svg2"
   sodipodi:version="0.32"
   inkscape:version="0.48.3.1 r9886"
   sodipodi:docname="tab-navigation.svg"
   inkscape:output_extension="org.inkscape.output.svg.inkscape">
  <metadata
     id="metadata7">
    <rdf:RDF>
      <cc:Work
         rdf:about="">
        <dc:format>image/svg+xml</dc:format>
        <dc:type
           rdf:resource="http://purl.org/dc/dcmitype/StillImage" />
        <dc:title></dc:title>
      </cc:Work>
    </rdf:RDF>
  </metadata>
  <sodipodi:namedview
     inkscape:window-height="668"
     inkscape:window-width="1195"
     inkscape:pageshadow="2"
     inkscape:pageopacity="0.0"
     guidetolerance="10.0"
     gridtolerance="10.0"
     objecttolerance="10.0"
     borderopacity="1.0"
     bordercolor="#666666"
     pagecolor="#ffffff"
     id="base"
     showgrid="false"
     inkscape:zoom="1.921875"
     inkscape:cx="138.20372"
     inkscape:cy="80.768126"
     inkscape:window-x="208"
     inkscape:window-y="220"
     inkscape:current-layer="svg2"
     fit-margin-top="0"
     fit-margin-left="0"
     fit-margin-right="0"
     fit-margin-bottom="0"
     inkscape:window-maximized="0">
    <inkscape:grid
       type="xygrid"
       id="grid2388"
       visible="true"
       enabled="true"
       units="cm"
       spacingx="0.5cm"
       spacingy="0.5cm"
       empspacing="4"
       snapvisiblegridlinesonly="true"
       originx="0.083333304cm"
       originy="-2.8708148cm" />
  </sodipodi:namedview>
  <defs
     id="defs4">
    <inkscape:perspective
       sodipodi:type="inkscape:persp3d"
       inkscape:vp_x="0 : 141.73228 : 1"
       inkscape:vp_y="0 : 1000 : 0"
       inkscape:vp_z="283.46457 : 141.73228 : 1"
       inkscape:persp3d-origin="141.73228 : 94.48819 : 1"
       id="perspective9" />
  </defs>
  <g
     id="layer1"
     transform="scale(0.94791666,0.42812963)"
     style="stroke:none">
    <rect
       width="283.46457"
       height="283.46457"
       x="0"
       y="0"
       id="rect2385"
       style="fill:#add8e6;fill-opacity:1;fill-rule:evenodd;stroke:none" />
  </g>
  <g
     style="font-size:43.013134px;font-style:normal;font-variant:normal;font-weight:normal;font-stretch:normal;text-align:start;line-height:125%;writing-mode:lr-tb;text-anchor:start;fill:#000000;fill-opacity:1;stroke:none;font-family:DejaVu Sans;-inkscape-font-specification:DejaVu Sans"
     id="text2383">
    <path
       d="m 6.7379989,16.539997 5.7126821,0 13.903659,26.232131 0,-26.232131 4.116492,0 0,31.356743 -5.712682,0 -13.90366,-26.232131 0,26.232131 -4.1164911,0 0,-31.356743"
       style=""
       id="path3025" />
    <path
       d="m 49.436097,36.072329 c -3.122384,1.1e-5 -5.28564,0.357054 -6.489775,1.071127 -1.20415,0.714096 -1.806222,1.93224 -1.806215,3.654437 -7e-6,1.372169 0.448046,2.464298 1.34416,3.276391 0.9101,0.798098 2.142246,1.197145 3.696442,1.197143 2.142242,2e-6 3.857445,-0.756087 5.145614,-2.268271 1.302137,-1.526176 1.953214,-3.549415 1.953233,-6.069725 l 0,-0.861102 -3.843459,0 m 7.70792,-1.596191 0,13.420602 -3.864461,0 0,-3.570426 c -0.882123,1.428172 -1.981253,2.485298 -3.297394,3.171378 -1.316171,0.67208 -2.926361,1.00812 -4.830576,1.008121 -2.408296,-1e-6 -4.326523,-0.67208 -5.754687,-2.016241 -1.414172,-1.358159 -2.121256,-3.171374 -2.121253,-5.439649 -3e-6,-2.646307 0.882101,-4.641543 2.646315,-5.985715 1.778206,-1.344146 4.424519,-2.016226 7.938948,-2.01624 l 5.418647,0 0,-0.378045 c -1.9e-5,-1.778196 -0.588088,-3.150358 -1.764211,-4.116492 -1.162154,-0.980096 -2.800348,-1.470155 -4.914586,-1.470175 -1.344171,2e-5 -2.653326,0.16104 -3.927469,0.483057 -1.274159,0.322059 -2.499304,0.805116 -3.675439,1.449173 l 0,-3.570426 c 1.414163,-0.546042 2.786326,-0.95209 4.116492,-1.218145 1.330149,-0.28001 2.625302,-0.420026 3.885463,-0.42005 3.402391,2.4e-5 5.943691,0.882128 7.62391,2.646315 1.680179,1.764231 2.520279,4.438547 2.520301,8.022958"
       style=""
       id="path3027" />
    <path
       d="m 83.439157,28.889471 c 0.966092,-1.736186 2.121229,-3.017338 3.465414,-3.843458 1.344133,-0.826075 2.926321,-1.239124 4.746567,-1.239148 2.450259,2.4e-5 4.340483,0.861126 5.670676,2.583308 1.330122,1.708224 1.9952,4.144512 1.995239,7.308872 l 0,14.197695 -3.885464,0 0,-14.07168 c -3.5e-5,-2.254252 -0.399082,-3.92745 -1.197143,-5.019599 -0.798128,-1.09211 -2.016272,-1.638175 -3.654436,-1.638195 -2.002267,2e-5 -3.584454,0.665099 -4.746567,1.995238 -1.162162,1.330176 -1.743231,3.143391 -1.743208,5.439649 l 0,13.294587 -3.885464,0 0,-14.07168 c -1.9e-5,-2.268254 -0.399066,-3.941452 -1.197142,-5.019599 -0.798113,-1.09211 -2.030259,-1.638175 -3.696442,-1.638195 -1.974248,2e-5 -3.542433,0.6721 -4.704561,2.01624 -1.162147,1.330177 -1.743216,3.13639 -1.743208,5.418647 l 0,13.294587 -3.885464,0 0,-23.522808 3.885464,0 0,3.654436 c 0.882096,-1.44215 1.939221,-2.506276 3.171378,-3.192381 1.232135,-0.686058 2.695308,-1.029098 4.389524,-1.029122 1.708187,2.4e-5 3.157359,0.434075 4.347519,1.302155 1.204123,0.868126 2.093228,2.128275 2.667318,3.780451"
       style=""
       id="path3029" />
    <path
       d="m 127.16638,35.169221 0,1.890225 -17.76812,0 c 0.16801,2.660326 0.96611,4.690566 2.39428,6.090727 1.44217,1.386169 3.4444,2.079251 6.00672,2.079249 1.48416,2e-6 2.91933,-0.182019 4.30551,-0.546066 1.40015,-0.364039 2.78631,-0.910104 4.1585,-1.638195 l 0,3.654436 c -1.38619,0.588071 -2.80736,1.036124 -4.26351,1.344161 -1.45619,0.308036 -2.93336,0.462054 -4.43153,0.462055 -3.75246,-1e-6 -6.72781,-1.09213 -8.92606,-3.276391 -2.18427,-2.184256 -3.2764,-5.138606 -3.27639,-8.863058 -1e-5,-3.850444 1.03612,-6.902806 3.10837,-9.157093 2.08624,-2.268248 4.89357,-3.402382 8.422,-3.402406 3.16436,2.4e-5 5.66366,1.022145 7.4979,3.066366 1.84819,2.030261 2.7723,4.795588 2.77233,8.29599 m -3.86446,-1.134136 c -0.028,-2.114236 -0.6231,-3.801436 -1.78522,-5.061604 -1.14815,-1.26013 -2.67433,-1.890205 -4.57854,-1.890225 -2.15627,2e-5 -3.88548,0.609093 -5.18762,1.827218 -1.28816,1.218163 -2.03025,2.933366 -2.22627,5.145614 l 13.77765,-0.021"
       style=""
       id="path3031" />
    <path
       d="m 17.21825,74.485914 -5.754687,15.604862 11.530376,0 -5.775689,-15.604862 m -2.394286,-4.179499 4.809574,0 11.950426,31.356745 -4.410526,0 -2.856341,-8.043963 -14.134687,0 -2.8563409,8.043963 -4.473534,0 11.9714289,-31.356745"
       style=""
       id="path3033" />
    <path
       d="m 50.696245,81.710776 0,-12.727519 3.864462,0 0,32.679903 -3.864462,0 0,-3.528424 c -0.812115,1.40017 -1.841237,2.443294 -3.087368,3.129374 -1.232162,0.67208 -2.716338,1.00812 -4.452532,1.00812 -2.842348,0 -5.159622,-1.13413 -6.951829,-3.402406 -1.778216,-2.268266 -2.667321,-5.250619 -2.667319,-8.947068 -2e-6,-3.696426 0.889103,-6.678779 2.667319,-8.947068 1.792207,-2.268248 4.109481,-3.402382 6.951829,-3.402406 1.736194,2.4e-5 3.22037,0.343065 4.452532,1.029123 1.246131,0.672103 2.275253,1.708225 3.087368,3.108371 m -13.168571,8.21198 c -7e-6,2.842348 0.581062,5.075613 1.743208,6.6998 1.176131,1.610195 2.786321,2.415291 4.830576,2.415288 2.044229,3e-6 3.65442,-0.805093 4.830577,-2.415288 1.176121,-1.624187 1.764191,-3.857452 1.76421,-6.6998 -1.9e-5,-2.842325 -0.588089,-5.068588 -1.76421,-6.678797 -1.176157,-1.624174 -2.786348,-2.43627 -4.830577,-2.436291 -2.044255,2.1e-5 -3.654445,0.812117 -4.830576,2.436291 -1.162146,1.610209 -1.743215,3.836472 -1.743208,6.678797"
       style=""
       id="path3035" />
    <path
       d="m 77.999502,81.710776 0,-12.727519 3.864462,0 0,32.679903 -3.864462,0 0,-3.528424 c -0.812115,1.40017 -1.841237,2.443294 -3.087368,3.129374 -1.232162,0.67208 -2.716338,1.00812 -4.452532,1.00812 -2.842348,0 -5.159622,-1.13413 -6.951829,-3.402406 -1.778216,-2.268266 -2.667321,-5.250619 -2.667319,-8.947068 -2e-6,-3.696426 0.889103,-6.678779 2.667319,-8.947068 1.792207,-2.268248 4.109481,-3.402382 6.951829,-3.402406 1.736194,2.4e-5 3.22037,0.343065 4.452532,1.029123 1.246131,0.672103 2.275253,1.708225 3.087368,3.108371 m -13.168571,8.21198 c -7e-6,2.842348 0.581062,5.075613 1.743208,6.6998 1.176131,1.610195 2.786321,2.415291 4.830576,2.415288 2.044229,3e-6 3.65442,-0.805093 4.830577,-2.415288 1.176121,-1.624187 1.764191,-3.857452 1.76421,-6.6998 -1.9e-5,-2.842325 -0.588089,-5.068588 -1.76421,-6.678797 -1.176157,-1.624174 -2.786348,-2.43627 -4.830577,-2.436291 -2.044255,2.1e-5 -3.654445,0.812117 -4.830576,2.436291 -1.162146,1.610209 -1.743215,3.836472 -1.743208,6.678797"
       style=""
       id="path3037" />
    <path
       d="m 103.45454,81.752781 c -0.43407,-0.25201 -0.91012,-0.434031 -1.42817,-0.546065 -0.50407,-0.125995 -1.06414,-0.189002 -1.6802,-0.189023 -2.184272,2.1e-5 -3.86447,0.714105 -5.0406,2.142256 -1.162147,1.414186 -1.743216,3.451427 -1.743208,6.111729 l 0,12.391482 -3.885464,0 0,-23.52281 3.885464,0 0,3.654436 c 0.812088,-1.428149 1.869213,-2.485274 3.171378,-3.171379 1.302143,-0.700059 2.884331,-1.050101 4.74657,-1.050125 0.26601,2.4e-5 0.56005,0.02103 0.8821,0.06301 0.32202,0.02803 0.67907,0.07703 1.07113,0.147017 l 0.021,3.969474"
       style=""
       id="path3039" />
    <path
       d="m 126.74632,88.935638 0,1.890226 -17.76812,0 c 0.16801,2.660326 0.96611,4.690566 2.39428,6.090727 1.44217,1.386169 3.4444,2.079251 6.00672,2.079248 1.48416,3e-6 2.91933,-0.182019 4.30551,-0.546065 1.40015,-0.36404 2.78632,-0.910105 4.1585,-1.638196 l 0,3.654432 c -1.38619,0.58808 -2.80735,1.03613 -4.26351,1.34417 -1.45619,0.30803 -2.93336,0.46205 -4.43153,0.46205 -3.75246,0 -6.72781,-1.09213 -8.92606,-3.276391 -2.18427,-2.184256 -3.2764,-5.138605 -3.27639,-8.863058 -10e-6,-3.850444 1.03612,-6.902805 3.10837,-9.157093 2.08624,-2.268248 4.89357,-3.402382 8.422,-3.402406 3.16436,2.4e-5 5.66366,1.022145 7.4979,3.066366 1.8482,2.030261 2.7723,4.795589 2.77233,8.29599 m -3.86446,-1.134135 c -0.028,-2.114236 -0.6231,-3.801436 -1.78522,-5.061604 -1.14815,-1.26013 -2.67433,-1.890205 -4.57854,-1.890226 -2.15627,2.1e-5 -3.88548,0.609093 -5.18762,1.827218 -1.28816,1.218163 -2.03025,2.933366 -2.22627,5.145614 l 13.77765,-0.021"
       style=""
       id="path3041" />
    <path
       d="m 148.08487,78.833433 0,3.654436 c -1.09215,-0.560047 -2.22628,-0.980097 -3.4024,-1.260151 -1.17616,-0.280012 -2.3943,-0.420029 -3.65444,-0.42005 -1.91824,2.1e-5 -3.36041,0.294056 -4.32652,0.882105 -0.95212,0.58809 -1.42817,1.470194 -1.42817,2.646316 0,0.896124 0.34304,1.603207 1.02913,2.121254 0.68607,0.504074 2.06523,0.987132 4.13749,1.449172 l 1.32316,0.294036 c 2.74431,0.588083 4.69054,1.421181 5.8387,2.499298 1.16211,1.064137 1.74318,2.555313 1.7432,4.473534 -2e-5,2.184265 -0.86812,3.91347 -2.60431,5.187617 -1.72222,1.27415 -4.0955,1.91123 -7.11985,1.91123 -1.26016,0 -2.57631,-0.12602 -3.94847,-0.37804 -1.35817,-0.23803 -2.79334,-0.60208 -4.30551,-1.09214 l 0,-3.990472 c 1.42816,0.742093 2.83533,1.302159 4.2215,1.680201 1.38616,0.364046 2.75832,0.546068 4.11649,0.546065 1.82021,3e-6 3.22037,-0.308034 4.2005,-0.92411 0.9801,-0.630071 1.47016,-1.512176 1.47018,-2.646316 -2e-5,-1.050118 -0.35706,-1.855213 -1.07113,-2.415288 -0.7001,-0.560058 -2.24728,-1.099122 -4.64155,-1.617193 l -1.34416,-0.315038 c -2.3943,-0.504049 -4.1235,-1.27414 -5.18762,-2.310276 -1.06413,-1.050111 -1.5962,-2.485281 -1.59619,-4.305514 -1e-5,-2.212244 0.78409,-3.920446 2.35228,-5.124611 1.56818,-1.204121 3.79444,-1.806192 6.6788,-1.806216 1.42815,2.4e-5 2.77231,0.105037 4.03248,0.315038 1.26013,0.210048 2.42227,0.525086 3.48641,0.945113"
       style=""
       id="path3043" />
    <path
       d="m 170.51555,78.833433 0,3.654436 c -1.09215,-0.560047 -2.22628,-0.980097 -3.4024,-1.260151 -1.17616,-0.280012 -2.3943,-0.420029 -3.65444,-0.42005 -1.91824,2.1e-5 -3.36041,0.294056 -4.32652,0.882105 -0.95212,0.58809 -1.42817,1.470194 -1.42817,2.646316 0,0.896124 0.34304,1.603207 1.02913,2.121254 0.68607,0.504074 2.06523,0.987132 4.13749,1.449172 l 1.32316,0.294036 c 2.74431,0.588083 4.69054,1.421181 5.83869,2.499298 1.16212,1.064137 1.74319,2.555313 1.74321,4.473534 -2e-5,2.184265 -0.86812,3.91347 -2.60431,5.187617 -1.72222,1.27415 -4.0955,1.91123 -7.11985,1.91123 -1.26016,0 -2.57631,-0.12602 -3.94847,-0.37804 -1.35817,-0.23803 -2.79334,-0.60208 -4.30551,-1.09214 l 0,-3.990472 c 1.42816,0.742093 2.83533,1.302159 4.2215,1.680201 1.38616,0.364046 2.75832,0.546068 4.11649,0.546065 1.82021,3e-6 3.22037,-0.308034 4.2005,-0.92411 0.9801,-0.630071 1.47016,-1.512176 1.47018,-2.646316 -2e-5,-1.050118 -0.35706,-1.855213 -1.07113,-2.415288 -0.7001,-0.560058 -2.24728,-1.099122 -4.64155,-1.617193 l -1.34416,-0.315038 c -2.3943,-0.504049 -4.1235,-1.27414 -5.18762,-2.310276 -1.06413,-1.050111 -1.5962,-2.485281 -1.59619,-4.305514 -10e-6,-2.212244 0.78409,-3.920446 2.35228,-5.124611 1.56818,-1.204121 3.79444,-1.806192 6.67879,-1.806216 1.42816,2.4e-5 2.77232,0.105037 4.03249,0.315038 1.26013,0.210048 2.42227,0.525086 3.48641,0.945113"
       style=""
       id="path3045" />
  </g>
  <rect
     style="fill:#000000;fill-opacity:1;fill-rule:evenodd;stroke:none"
     id="rect9336"
     width="1.1264096"
     height="48.800522"
     x="132.01137"
     y="11.472501" />
</svg>
