<?xml version="1.0" encoding="UTF-8" standalone="no"?>
<!-- Created with Inkscape (http://www.inkscape.org/) -->

<svg
   xmlns:dc="http://purl.org/dc/elements/1.1/"
   xmlns:cc="http://creativecommons.org/ns#"
   xmlns:rdf="http://www.w3.org/1999/02/22-rdf-syntax-ns#"
   xmlns:svg="http://www.w3.org/2000/svg"
   xmlns="http://www.w3.org/2000/svg"
   xmlns:sodipodi="http://sodipodi.sourceforge.net/DTD/sodipodi-0.dtd"
   xmlns:inkscape="http://www.inkscape.org/namespaces/inkscape"
   version="1.0"
   width="268.70078"
   height="121.35958"
   id="svg2"
   sodipodi:version="0.32"
   inkscape:version="0.48.3.1 r9886"
   sodipodi:docname="tab-navigation.pdf"
   inkscape:output_extension="org.inkscape.output.svg.inkscape">
  <metadata
     id="metadata7">
    <rdf:RDF>
      <cc:Work
         rdf:about="">
        <dc:format>image/svg+xml</dc:format>
        <dc:type
           rdf:resource="http://purl.org/dc/dcmitype/StillImage" />
        <dc:title></dc:title>
      </cc:Work>
    </rdf:RDF>
  </metadata>
  <sodipodi:namedview
     inkscape:window-height="668"
     inkscape:window-width="1195"
     inkscape:pageshadow="2"
     inkscape:pageopacity="0.0"
     guidetolerance="10.0"
     gridtolerance="10.0"
     objecttolerance="10.0"
     borderopacity="1.0"
     bordercolor="#666666"
     pagecolor="#ffffff"
     id="base"
     showgrid="false"
     inkscape:zoom="1.921875"
     inkscape:cx="138.20372"
     inkscape:cy="80.247801"
     inkscape:window-x="208"
     inkscape:window-y="220"
     inkscape:current-layer="svg2"
     fit-margin-top="0"
     fit-margin-left="0"
     fit-margin-right="0"
     fit-margin-bottom="0"
     inkscape:window-maximized="0">
    <inkscape:grid
       type="xygrid"
       id="grid2388"
       visible="true"
       enabled="true"
       units="cm"
       spacingx="0.5cm"
       spacingy="0.5cm"
       empspacing="4"
       snapvisiblegridlinesonly="true"
       originx="0.083333304cm"
       originy="-2.8708148cm" />
  </sodipodi:namedview>
  <defs
     id="defs4">
    <inkscape:perspective
       sodipodi:type="inkscape:persp3d"
       inkscape:vp_x="0 : 141.73228 : 1"
       inkscape:vp_y="0 : 1000 : 0"
       inkscape:vp_z="283.46457 : 141.73228 : 1"
       inkscape:persp3d-origin="141.73228 : 94.48819 : 1"
       id="perspective9" />
  </defs>
  <g
     id="layer1"
     transform="scale(0.94791666,0.42812963)"
     style="stroke:none">
    <rect
       width="283.46457"
       height="283.46457"
       x="0"
       y="0"
       id="rect2385"
       style="fill:#add8e6;fill-opacity:1;fill-rule:evenodd;stroke:none" />
  </g>
  <g
     style="font-size:43.013134px;font-style:normal;font-variant:normal;font-weight:normal;font-stretch:normal;text-align:start;line-height:125%;writing-mode:lr-tb;text-anchor:start;fill:#000000;fill-opacity:1;stroke:none;font-family:DejaVu Sans;-inkscape-font-specification:DejaVu Sans"
     id="text2383">
    <path
       d="m 6.7379989,16.539997 18.0201511,0 0,3.570426 -13.777645,0 0,9.241103 12.433484,0 0,3.570427 -12.433484,0 0,14.974787 -4.2425061,0 0,-31.356743"
       style="fill:#6d6d6d;fill-opacity:1"
       id="path3067" />
    <path
       d="m 28.244566,24.373932 3.864461,0 0,23.522808 -3.864461,0 0,-23.522808 m 0,-9.157093 3.864461,0 0,4.893584 -3.864461,0 0,-4.893584"
       style="fill:#6d6d6d;fill-opacity:1"
       id="path3069" />
    <path
       d="m 60.294392,35.169221 0,1.890225 -17.768121,0 c 0.168014,2.660326 0.966108,4.690566 2.394286,6.090727 1.442162,1.386169 3.444399,2.079251 6.006717,2.079249 1.484161,2e-6 2.919331,-0.182019 4.305514,-0.546066 1.400146,-0.364039 2.78631,-0.910104 4.158496,-1.638195 l 0,3.654436 c -1.386187,0.588071 -2.807355,1.036124 -4.263509,1.344161 -1.456191,0.308036 -2.933366,0.462054 -4.431529,0.462055 -3.752458,-1e-6 -6.727811,-1.09213 -8.926065,-3.276391 -2.184264,-2.184256 -3.276394,-5.138606 -3.276391,-8.863058 -3e-6,-3.850444 1.03612,-6.902806 3.108371,-9.157093 2.086241,-2.268248 4.893574,-3.402382 8.422005,-3.402406 3.164361,2.4e-5 5.663656,1.022145 7.497895,3.066366 1.848197,2.030261 2.772307,4.795588 2.772331,8.29599 m -3.864461,-1.134136 c -0.02802,-2.114236 -0.623094,-3.801436 -1.785213,-5.061604 -1.148155,-1.26013 -2.674335,-1.890205 -4.578547,-1.890225 -2.156269,2e-5 -3.885474,0.609093 -5.187619,1.827218 -1.288161,1.218163 -2.030249,2.933366 -2.226266,5.145614 l 13.777645,-0.021"
       style="fill:#6d6d6d;fill-opacity:1"
       id="path3071" />
    <path
       d="m 66.637148,15.216839 3.864461,0 0,32.679901 -3.864461,0 0,-32.679901"
       style="fill:#6d6d6d;fill-opacity:1"
       id="path3073" />
    <path
       d="m 94.045424,27.944358 0,-12.727519 3.864461,0 0,32.679901 -3.864461,0 0,-3.528421 c -0.812116,1.400169 -1.841238,2.443293 -3.087369,3.129373 -1.232162,0.67208 -2.716338,1.00812 -4.452531,1.008121 -2.842349,-1e-6 -5.159623,-1.134135 -6.95183,-3.402406 -1.778216,-2.268266 -2.667321,-5.250619 -2.667318,-8.947068 -3e-6,-3.696426 0.889102,-6.678779 2.667318,-8.947068 1.792207,-2.268248 4.109481,-3.402382 6.95183,-3.402406 1.736193,2.4e-5 3.220369,0.343064 4.452531,1.029122 1.246131,0.672103 2.275253,1.708226 3.087369,3.108371 m -13.168572,8.211981 c -7e-6,2.842348 0.581062,5.075612 1.743208,6.699799 1.176131,1.610196 2.786322,2.415291 4.830576,2.415289 2.04423,2e-6 3.65442,-0.805093 4.830577,-2.415289 1.176122,-1.624187 1.764191,-3.857451 1.764211,-6.699799 -2e-5,-2.842325 -0.588089,-5.068589 -1.764211,-6.678798 -1.176157,-1.624173 -2.786347,-2.436269 -4.830577,-2.43629 -2.044254,2.1e-5 -3.654445,0.812117 -4.830576,2.43629 -1.162146,1.610209 -1.743215,3.836473 -1.743208,6.678798"
       style="fill:#6d6d6d;fill-opacity:1"
       id="path3075" />
    <path
       d="m 120.84462,44.326314 6.93082,0 0,-23.921855 -7.5399,1.51218 0,-3.864461 7.4979,-1.512181 4.2425,0 0,27.786317 6.93083,0 0,3.570426 -18.06215,0 0,-3.570426"
       style="fill:#6d6d6d;fill-opacity:1"
       id="path3077" />
    <path
       d="m 6.7379989,70.306415 18.0201511,0 0,3.570426 -13.777645,0 0,9.241103 12.433484,0 0,3.570426 -12.433484,0 0,14.97479 -4.2425061,0 0,-31.356745"
       style=""
       id="path3079" />
    <path
       d="m 28.244566,78.14035 3.864461,0 0,23.52281 -3.864461,0 0,-23.52281 m 0,-9.157093 3.864461,0 0,4.893584 -3.864461,0 0,-4.893584"
       style=""
       id="path3081" />
    <path
       d="m 60.294392,88.935638 0,1.890226 -17.768121,0 c 0.168014,2.660326 0.966108,4.690566 2.394286,6.090727 1.442162,1.386169 3.444399,2.079251 6.006717,2.079248 1.484161,3e-6 2.919331,-0.182019 4.305514,-0.546065 1.400146,-0.36404 2.78631,-0.910105 4.158496,-1.638196 l 0,3.654432 c -1.386187,0.58808 -2.807355,1.03613 -4.263509,1.34417 -1.456191,0.30803 -2.933366,0.46205 -4.431529,0.46205 -3.752458,0 -6.727811,-1.09213 -8.926065,-3.276391 -2.184264,-2.184256 -3.276394,-5.138605 -3.276391,-8.863058 -3e-6,-3.850444 1.03612,-6.902805 3.108371,-9.157093 2.086241,-2.268248 4.893574,-3.402382 8.422005,-3.402406 3.164361,2.4e-5 5.663656,1.022145 7.497895,3.066366 1.848197,2.030261 2.772307,4.795589 2.772331,8.29599 m -3.864461,-1.134135 c -0.02802,-2.114236 -0.623094,-3.801436 -1.785213,-5.061604 -1.148155,-1.26013 -2.674335,-1.890205 -4.578547,-1.890226 -2.156269,2.1e-5 -3.885474,0.609093 -5.187619,1.827218 -1.288161,1.218163 -2.030249,2.933366 -2.226266,5.145614 l 13.777645,-0.021"
       style=""
       id="path3083" />
    <path
       d="m 66.637148,68.983257 3.864461,0 0,32.679903 -3.864461,0 0,-32.679903"
       style=""
       id="path3085" />
    <path
       d="m 94.045424,81.710776 0,-12.727519 3.864461,0 0,32.679903 -3.864461,0 0,-3.528424 c -0.812116,1.40017 -1.841238,2.443294 -3.087369,3.129374 -1.232162,0.67208 -2.716338,1.00812 -4.452531,1.00812 -2.842349,0 -5.159623,-1.13413 -6.95183,-3.402406 -1.778216,-2.268266 -2.667321,-5.250619 -2.667318,-8.947068 -3e-6,-3.696426 0.889102,-6.678779 2.667318,-8.947068 1.792207,-2.268248 4.109481,-3.402382 6.95183,-3.402406 1.736193,2.4e-5 3.220369,0.343065 4.452531,1.029123 1.246131,0.672103 2.275253,1.708225 3.087369,3.108371 m -13.168572,8.21198 c -7e-6,2.842348 0.581062,5.075613 1.743208,6.6998 1.176131,1.610195 2.786322,2.415291 4.830576,2.415288 2.04423,3e-6 3.65442,-0.805093 4.830577,-2.415288 1.176122,-1.624187 1.764191,-3.857452 1.764211,-6.6998 -2e-5,-2.842325 -0.588089,-5.068588 -1.764211,-6.678797 -1.176157,-1.624174 -2.786347,-2.43627 -4.830577,-2.436291 -2.044254,2.1e-5 -3.654445,0.812117 -4.830576,2.436291 -1.162146,1.610209 -1.743215,3.836472 -1.743208,6.678797"
       style=""
       id="path3087" />
    <path
       d="m 123.76396,98.092731 14.80677,0 0,3.570429 -19.91037,0 0,-3.570429 c 1.61018,-1.666193 3.80144,-3.899458 6.57378,-6.699799 2.78632,-2.814323 4.53653,-4.627538 5.25063,-5.43965 1.35814,-1.526165 2.30325,-2.814317 2.83534,-3.864461 0.54604,-1.064106 0.81907,-2.10723 0.81909,-3.129373 -2e-5,-1.666175 -0.58809,-3.024336 -1.76421,-4.074487 -1.16215,-1.050097 -2.68133,-1.575159 -4.55754,-1.575188 -1.33017,2.9e-5 -2.73734,0.231056 -4.22151,0.693083 -1.47018,0.462082 -3.04536,1.162165 -4.72556,2.100251 l 0,-4.284512 c 1.7082,-0.686051 3.30439,-1.204112 4.78857,-1.554185 1.48417,-0.35001 2.84233,-0.525031 4.07449,-0.525063 3.24837,3.2e-5 5.83868,0.812128 7.77093,2.436291 1.9322,1.624222 2.89832,3.794478 2.89834,6.510777 -2e-5,1.288175 -0.24505,2.51332 -0.73509,3.675439 -0.47607,1.148155 -1.35118,2.506316 -2.62531,4.074486 -0.35006,0.406063 -1.46319,1.582202 -3.3394,3.528421 -1.87624,1.932241 -4.52255,4.641561 -7.93895,8.12797"
       style=""
       id="path3089" />
    <path
       d="m 147.4968,96.328521 4.43153,0 0,5.334639 -4.43153,0 0,-5.334639"
       style=""
       id="path3091" />
    <path
       d="m 161.19043,96.328521 4.43153,0 0,5.334639 -4.43153,0 0,-5.334639"
       style=""
       id="path3093" />
    <path
       d="m 174.88406,96.328521 4.43153,0 0,5.334639 -4.43153,0 0,-5.334639"
       style=""
       id="path3095" />
  </g>
  <rect
     style="fill:#000000;fill-opacity:1;fill-rule:evenodd;stroke:none"
     id="rect9336"
     width="1.1264096"
     height="48.800522"
     x="185.08453"
     y="66.106644" />
</svg>
