<?xml version="1.0" encoding="UTF-8" standalone="no"?>
<!-- Created with Inkscape (http://www.inkscape.org/) -->

<svg
   xmlns:dc="http://purl.org/dc/elements/1.1/"
   xmlns:cc="http://creativecommons.org/ns#"
   xmlns:rdf="http://www.w3.org/1999/02/22-rdf-syntax-ns#"
   xmlns:svg="http://www.w3.org/2000/svg"
   xmlns="http://www.w3.org/2000/svg"
   xmlns:xlink="http://www.w3.org/1999/xlink"
   version="1.0"
   width="220"
   height="170"
   id="svg2">
  <metadata
     id="metadata7">
    <rdf:RDF>
      <cc:Work
         rdf:about="">
        <dc:format>image/svg+xml</dc:format>
        <dc:type
           rdf:resource="http://purl.org/dc/dcmitype/StillImage" />
        <dc:title></dc:title>
      </cc:Work>
    </rdf:RDF>
  </metadata>
  <defs
     id="defs4">
    <filter
       x="-0.013834233"
       y="-0.43499437"
       width="1.0276685"
       height="1.8699887"
       color-interpolation-filters="sRGB"
       id="filter4724">
      <feGaussianBlur
         stdDeviation="0.70324038"
         id="feGaussianBlur4726" />
    </filter>
    <linearGradient
       x1="12.5"
       y1="987.36218"
       x2="12.5"
       y2="937.36218"
       id="linearGradient4927"
       xlink:href="#linearGradient4656-81"
       gradientUnits="userSpaceOnUse" />
    <linearGradient
       id="linearGradient4656-81">
      <stop
         id="stop4658-2"
         style="stop-color:#57762b;stop-opacity:1"
         offset="0" />
      <stop
         id="stop4660-9"
         style="stop-color:#acd275;stop-opacity:1"
         offset="1" />
    </linearGradient>
    <linearGradient
       x1="83.801331"
       y1="0"
       x2="83.801331"
       y2="21.12537"
       id="linearGradient4929"
       xlink:href="#linearGradient4634"
       gradientUnits="userSpaceOnUse" />
    <linearGradient
       id="linearGradient4634">
      <stop
         id="stop4636"
         style="stop-color:#ffffff;stop-opacity:1"
         offset="0" />
      <stop
         id="stop4638"
         style="stop-color:#ffffff;stop-opacity:0"
         offset="1" />
    </linearGradient>
    <linearGradient
       x1="7.7416654"
       y1="944.36218"
       x2="10"
       y2="935.93396"
       id="linearGradient4931"
       xlink:href="#linearGradient4651"
       gradientUnits="userSpaceOnUse"
       gradientTransform="matrix(-1,0,0,1,128,7)" />
    <linearGradient
       id="linearGradient4651">
      <stop
         id="stop4653"
         style="stop-color:#102134;stop-opacity:1"
         offset="0" />
      <stop
         id="stop4655"
         style="stop-color:#102134;stop-opacity:0"
         offset="1" />
    </linearGradient>
    <clipPath
       id="clipPath3834">
      <rect
         width="116.00004"
         height="31.5"
         rx="4"
         ry="4"
         x="6"
         y="941.36218"
         id="rect3836"
         style="opacity:0.6457142;fill:#155293;fill-opacity:1;stroke:none" />
    </clipPath>
    <filter
       x="-0.06459371"
       y="-0.1339166"
       width="1.1291873"
       height="1.2678332"
       color-interpolation-filters="sRGB"
       id="filter4747">
      <feGaussianBlur
         stdDeviation="3.1247207"
         id="feGaussianBlur4749" />
    </filter>
    <linearGradient
       x1="7.4737163"
       y1="945.36218"
       x2="10"
       y2="935.93396"
       id="linearGradient4933"
       xlink:href="#linearGradient4651"
       gradientUnits="userSpaceOnUse" />
    <linearGradient
       x1="79"
       y1="924.36218"
       x2="79"
       y2="1052.3622"
       id="linearGradient4935"
       xlink:href="#linearGradient4078-1"
       gradientUnits="userSpaceOnUse" />
    <linearGradient
       id="linearGradient4078-1">
      <stop
         id="stop4080-77"
         style="stop-color:#d0e7ae;stop-opacity:0"
         offset="0" />
      <stop
         id="stop4588-11"
         style="stop-color:#cee6ab;stop-opacity:0.49803922"
         offset="0.04545457" />
      <stop
         id="stop4586-5"
         style="stop-color:#e7f3d6;stop-opacity:1"
         offset="0.13402523" />
      <stop
         id="stop4590-9"
         style="stop-color:#b4d980;stop-opacity:1"
         offset="0.92923617" />
      <stop
         id="stop4082-77"
         style="stop-color:#d4e9b5;stop-opacity:1"
         offset="1" />
    </linearGradient>
    <linearGradient
       x1="55"
       y1="1036.4132"
       x2="55"
       y2="1032.4822"
       id="linearGradient4937"
       xlink:href="#linearGradient4651-4"
       gradientUnits="userSpaceOnUse" />
    <linearGradient
       id="linearGradient4651-4">
      <stop
         id="stop4653-52"
         style="stop-color:#253410;stop-opacity:1"
         offset="0" />
      <stop
         id="stop4655-5"
         style="stop-color:#253410;stop-opacity:0"
         offset="1" />
    </linearGradient>
    <filter
       x="-0.013944133"
       y="-0.34860396"
       width="1.0278883"
       height="1.6972079"
       color-interpolation-filters="sRGB"
       id="filter4584">
      <feGaussianBlur
         stdDeviation="0.70882694"
         id="feGaussianBlur4586" />
    </filter>
    <filter
       x="-0.041553166"
       y="-1.2569832"
       width="1.0831063"
       height="3.5139666"
       color-interpolation-filters="sRGB"
       id="filter4720">
      <feGaussianBlur
         stdDeviation="2.0949721"
         id="feGaussianBlur4722" />
    </filter>
    <radialGradient
       cx="47"
       cy="27.000002"
       r="3.5"
       fx="47"
       fy="27.000002"
       id="radialGradient4939"
       xlink:href="#linearGradient4683"
       gradientUnits="userSpaceOnUse"
       gradientTransform="matrix(1.1428571,0,0,1.1428571,-3.5142857,924.60504)" />
    <linearGradient
       id="linearGradient4683">
      <stop
         id="stop4685"
         style="stop-color:#dbeef2;stop-opacity:1"
         offset="0" />
      <stop
         id="stop4687"
         style="stop-color:#dbeef2;stop-opacity:0"
         offset="1" />
    </linearGradient>
    <linearGradient
       x1="124.01234"
       y1="966.51019"
       x2="124.01234"
       y2="935.34326"
       id="linearGradient4941"
       xlink:href="#linearGradient4865"
       gradientUnits="userSpaceOnUse" />
    <linearGradient
       id="linearGradient4865">
      <stop
         id="stop4867"
         style="stop-color:#639f10;stop-opacity:1"
         offset="0" />
      <stop
         id="stop4869"
         style="stop-color:#518a00;stop-opacity:1"
         offset="1" />
    </linearGradient>
    <linearGradient
       x1="3"
       y1="968.26129"
       x2="3"
       y2="953.01678"
       id="linearGradient4943"
       xlink:href="#linearGradient4865"
       gradientUnits="userSpaceOnUse" />
    <linearGradient
       id="linearGradient3396">
      <stop
         id="stop3398"
         style="stop-color:#639f10;stop-opacity:1"
         offset="0" />
      <stop
         id="stop3400"
         style="stop-color:#518a00;stop-opacity:1"
         offset="1" />
    </linearGradient>
    <radialGradient
       cx="75.950432"
       cy="28.88085"
       r="57.906349"
       fx="117.18725"
       fy="39.988396"
       id="radialGradient4945"
       xlink:href="#linearGradient4751"
       gradientUnits="userSpaceOnUse"
       gradientTransform="matrix(0.99136537,-0.082029,0.03047675,0.36832818,0.28506669,10.731594)" />
    <linearGradient
       id="linearGradient4751">
      <stop
         id="stop4753"
         style="stop-color:#ffffff;stop-opacity:0.60000002"
         offset="0" />
      <stop
         id="stop4755"
         style="stop-color:#ffffff;stop-opacity:0"
         offset="1" />
    </linearGradient>
    <linearGradient
       x1="79.839294"
       y1="13.3362"
       x2="79.839294"
       y2="27.853235"
       id="linearGradient4947"
       xlink:href="#linearGradient4865"
       gradientUnits="userSpaceOnUse" />
    <linearGradient
       id="linearGradient3407">
      <stop
         id="stop3409"
         style="stop-color:#639f10;stop-opacity:1"
         offset="0" />
      <stop
         id="stop3411"
         style="stop-color:#518a00;stop-opacity:1"
         offset="1" />
    </linearGradient>
    <filter
       color-interpolation-filters="sRGB"
       id="filter4697">
      <feGaussianBlur
         stdDeviation="0.1005596"
         id="feGaussianBlur4699" />
    </filter>
    <radialGradient
       cx="47"
       cy="27.000002"
       r="3.5"
       fx="48.649815"
       fy="26.04748"
       id="radialGradient4949"
       xlink:href="#linearGradient4683-30"
       gradientUnits="userSpaceOnUse"
       gradientTransform="matrix(0.80296847,-8.9236606e-7,8.923658e-7,0.80296824,-29.023671,915.99803)" />
    <linearGradient
       id="linearGradient4683-30">
      <stop
         id="stop4685-7"
         style="stop-color:#e9f2db;stop-opacity:1"
         offset="0" />
      <stop
         id="stop4687-8"
         style="stop-color:#e9f2db;stop-opacity:0"
         offset="1" />
    </linearGradient>
    <radialGradient
       cx="47"
       cy="27.000002"
       r="3.5"
       fx="48.649815"
       fy="26.04748"
       id="radialGradient4951"
       xlink:href="#linearGradient4683-30"
       gradientUnits="userSpaceOnUse"
       gradientTransform="matrix(1.2379575,-1.3757841e-6,1.3757838e-6,1.2379572,-52.718442,905.01388)" />
    <linearGradient
       id="linearGradient3424">
      <stop
         id="stop3426"
         style="stop-color:#e9f2db;stop-opacity:1"
         offset="0" />
      <stop
         id="stop3428"
         style="stop-color:#e9f2db;stop-opacity:0"
         offset="1" />
    </linearGradient>
    <radialGradient
       cx="47"
       cy="27.000002"
       r="3.5"
       fx="48.649815"
       fy="26.04748"
       id="radialGradient4953"
       xlink:href="#linearGradient4683"
       gradientUnits="userSpaceOnUse"
       gradientTransform="matrix(0.59281195,-6.58812e-7,6.5881181e-7,0.59281178,-21.112186,920.10632)" />
    <linearGradient
       x1="125"
       y1="1008.4331"
       x2="125"
       y2="1010.0434"
       id="linearGradient4955"
       xlink:href="#linearGradient4957"
       gradientUnits="userSpaceOnUse" />
    <linearGradient
       id="linearGradient4957">
      <stop
         id="stop4959"
         style="stop-color:#3b6500;stop-opacity:1"
         offset="0" />
      <stop
         id="stop4961"
         style="stop-color:#518a00;stop-opacity:0"
         offset="1" />
    </linearGradient>
    <filter
       color-interpolation-filters="sRGB"
       id="filter4123">
      <feGaussianBlur
         stdDeviation="2.028"
         id="feGaussianBlur4125" />
    </filter>
    <filter
       color-interpolation-filters="sRGB"
       id="filter4111">
      <feGaussianBlur
         stdDeviation="1.5615"
         id="feGaussianBlur4113" />
    </filter>
    <linearGradient
       x1="72"
       y1="0"
       x2="72"
       y2="116.40091"
       id="linearGradient4524-4"
       xlink:href="#linearGradient4518-3"
       gradientUnits="userSpaceOnUse"
       gradientTransform="translate(3.9208988e-7,2.7836915e-6)" />
    <linearGradient
       id="linearGradient4518-3">
      <stop
         id="stop4520-1"
         style="stop-color:#eeecec;stop-opacity:1"
         offset="0" />
      <stop
         id="stop5969-4"
         style="stop-color:#f4f4f4;stop-opacity:1"
         offset="0.40000001" />
      <stop
         id="stop4522-9"
         style="stop-color:#f6f5f5;stop-opacity:1"
         offset="1" />
    </linearGradient>
    <mask
       id="mask7255">
      <path
         d="m 241.51444,3931.5777 c -1.76769,0 -2.60074,-1.2204 -2.60074,-2.6008 l 0,-566.7984 c 0,-4.2735 3.53348,-7.7998 7.80221,-7.8023 l 286.08126,-0.1625 c 0.27604,-2e-4 5.19047,0.042 8.7775,-3e-4 52.52765,20.7819 132.1867,116.7903 178.71511,163.613 7.6818,8.6162 5.79367,5.9885 7.56248,15.0255 l 3.1e-4,396.125 c 0,1.6787 -0.84898,2.6008 -2.60073,2.6008 z"
         id="path7257"
         style="opacity:0.84653476;fill:url(#radialGradient7259);fill-opacity:1" />
    </mask>
    <radialGradient
       cx="64"
       cy="64.004021"
       r="47.5"
       fx="63.793392"
       fy="47.274845"
       id="radialGradient7259"
       xlink:href="#linearGradient5982"
       gradientUnits="userSpaceOnUse"
       gradientTransform="matrix(8.7603829,0.43845953,0.35819137,-7.1566327,-102.80777,4072.8666)" />
    <linearGradient
       id="linearGradient5982">
      <stop
         id="stop5984"
         style="stop-color:#ffffff;stop-opacity:1"
         offset="0" />
      <stop
         id="stop5986"
         style="stop-color:#ffffff;stop-opacity:0"
         offset="1" />
    </linearGradient>
    <filter
       color-interpolation-filters="sRGB"
       id="filter7249">
      <feGaussianBlur
         stdDeviation="10.277204"
         id="feGaussianBlur7251" />
    </filter>
    <radialGradient
       cx="64"
       cy="64.004021"
       r="47.5"
       fx="63.793392"
       fy="47.274845"
       id="radialGradient5988-0"
       xlink:href="#linearGradient5982-7"
       gradientUnits="userSpaceOnUse"
       gradientTransform="matrix(1.6842105,-0.08429519,0.06886339,1.3758846,-48.197001,-18.66323)" />
    <linearGradient
       id="linearGradient5982-7">
      <stop
         id="stop5984-8"
         style="stop-color:#ffffff;stop-opacity:1"
         offset="0" />
      <stop
         id="stop5986-6"
         style="stop-color:#ffffff;stop-opacity:0"
         offset="1" />
    </linearGradient>
    <linearGradient
       x1="342.94724"
       y1="-30.602612"
       x2="32.017258"
       y2="91.333046"
       id="linearGradient3980"
       xlink:href="#linearGradient3928"
       gradientUnits="userSpaceOnUse"
       gradientTransform="translate(0,8)" />
    <linearGradient
       id="linearGradient3928">
      <stop
         id="stop3930"
         style="stop-color:#000000;stop-opacity:1"
         offset="0" />
      <stop
         id="stop3932"
         style="stop-color:#000000;stop-opacity:0"
         offset="1" />
    </linearGradient>
    <filter
       color-interpolation-filters="sRGB"
       id="filter3924">
      <feGaussianBlur
         stdDeviation="2.2160499"
         id="feGaussianBlur3926" />
    </filter>
    <radialGradient
       cx="200.5"
       cy="36.774048"
       r="52.25"
       fx="200.5"
       fy="36.774048"
       id="radialGradient3982"
       xlink:href="#linearGradient4518"
       gradientUnits="userSpaceOnUse"
       gradientTransform="matrix(1,0,0,1.1918478,-0.46707006,-6.273771)" />
    <linearGradient
       id="linearGradient4518">
      <stop
         id="stop4520"
         style="stop-color:#eeecec;stop-opacity:1"
         offset="0" />
      <stop
         id="stop5969"
         style="stop-color:#f4f4f4;stop-opacity:1"
         offset="0.40000001" />
      <stop
         id="stop4522"
         style="stop-color:#f6f5f5;stop-opacity:1"
         offset="1" />
    </linearGradient>
    <radialGradient
       cx="227.58197"
       cy="69.511993"
       r="52.25"
       fx="227.58197"
       fy="69.511993"
       id="radialGradient4005"
       xlink:href="#linearGradient4518"
       gradientUnits="userSpaceOnUse"
       gradientTransform="matrix(0.73332196,0.15008493,-0.1788784,0.87400816,-261.36186,81.667381)" />
    <linearGradient
       id="linearGradient3478">
      <stop
         id="stop3480"
         style="stop-color:#eeecec;stop-opacity:1"
         offset="0" />
      <stop
         id="stop3482"
         style="stop-color:#f4f4f4;stop-opacity:1"
         offset="0.40000001" />
      <stop
         id="stop3484"
         style="stop-color:#f6f5f5;stop-opacity:1"
         offset="1" />
    </linearGradient>
    <radialGradient
       cx="188.375"
       cy="77.644028"
       r="36.625"
       fx="174.62433"
       fy="77.906471"
       id="radialGradient3986"
       xlink:href="#linearGradient3822"
       gradientUnits="userSpaceOnUse"
       gradientTransform="matrix(0.2962549,0.14473464,-1.7358612,3.5531053,267.34723,-204.32731)" />
    <linearGradient
       id="linearGradient3822">
      <stop
         id="stop3824"
         style="stop-color:#000000;stop-opacity:1"
         offset="0" />
      <stop
         id="stop3826"
         style="stop-color:#000000;stop-opacity:0"
         offset="1" />
    </linearGradient>
    <clipPath
       id="clipPath3856">
      <path
         d="m 148.25,70 c 19.07837,5.821872 44.51361,10.360268 41.25049,28.387969 C 196.70521,81.90419 231.70284,90.399346 246.5,95.5 l 5.75,-121 c -30.06077,18.2843166 -71.14629,62.458027 -104,95.5 z"
         id="path3858"
         style="fill:none;stroke:#000000;stroke-width:1px;stroke-linecap:butt;stroke-linejoin:miter;stroke-opacity:1" />
    </clipPath>
    <filter
       x="-0.18312992"
       y="-0.11106568"
       width="1.3662598"
       height="1.2221314"
       color-interpolation-filters="sRGB"
       id="filter3848">
      <feGaussianBlur
         stdDeviation="5.5129737"
         id="feGaussianBlur3850" />
    </filter>
    <radialGradient
       cx="174.4538"
       cy="75.719681"
       r="36.625"
       fx="174.4538"
       fy="75.719681"
       id="radialGradient3990"
       xlink:href="#linearGradient5982"
       gradientUnits="userSpaceOnUse"
       gradientTransform="matrix(0.41591722,0.24012992,-2.0282743,3.5130742,267.14692,-218.71095)" />
    <clipPath
       id="clipPath3501">
      <path
         d="m 148.25,70 c 19.07837,5.821872 44.51361,10.360268 41.25049,28.387969 C 196.70521,81.90419 231.70284,90.399346 246.5,95.5 l 5.75,-121 c -30.06077,18.2843166 -71.14629,62.458027 -104,95.5 z"
         id="path3503"
         style="fill:none;stroke:#000000;stroke-width:1px;stroke-linecap:butt;stroke-linejoin:miter;stroke-opacity:1" />
    </clipPath>
    <filter
       color-interpolation-filters="sRGB"
       id="filter3960">
      <feGaussianBlur
         stdDeviation="1.9935597"
         id="feGaussianBlur3962" />
    </filter>
    <radialGradient
       cx="188.375"
       cy="77.644028"
       r="36.625"
       fx="174.62433"
       fy="77.906471"
       id="radialGradient3988"
       xlink:href="#linearGradient3822"
       gradientUnits="userSpaceOnUse"
       gradientTransform="matrix(0.40057779,0.21184129,-1.742024,3.2940515,248.17392,-196.85456)" />
    <clipPath
       id="clipPath3514">
      <path
         d="m 148.25,70 c 19.07837,5.821872 44.51361,10.360268 41.25049,28.387969 C 196.70521,81.90419 231.70284,90.399346 246.5,95.5 l 5.75,-121 c -30.06077,18.2843166 -71.14629,62.458027 -104,95.5 z"
         id="path3516"
         style="fill:none;stroke:#000000;stroke-width:1px;stroke-linecap:butt;stroke-linejoin:miter;stroke-opacity:1" />
    </clipPath>
    <filter
       color-interpolation-filters="sRGB"
       id="filter3968">
      <feGaussianBlur
         stdDeviation="0.44888709"
         id="feGaussianBlur3970" />
    </filter>
    <clipPath
       id="clipPath6093-7">
      <path
         d="m 17.000001,8 0.782827,110 57.5,0 c 1.675283,0 3.119418,0.18058 4.9,-1.6 C 88.980763,107.60206 99.94047,96.548195 107.19904,89.224043 109.6396,86.761431 110,84.752873 110,82.5 L 110,8 z"
         id="path6095-4"
         style="fill:#ffffff;fill-opacity:1" />
    </clipPath>
    <filter
       x="-0.47870937"
       y="-0.51275069"
       width="1.9574188"
       height="2.0255013"
       color-interpolation-filters="sRGB"
       id="filter6171-8">
      <feGaussianBlur
         stdDeviation="10.140743"
         id="feGaussianBlur6173-8" />
    </filter>
    <clipPath
       id="clipPath3524">
      <path
         d="m 17.000001,8 0.782827,110 57.5,0 c 1.675283,0 3.119418,0.18058 4.9,-1.6 C 88.980763,107.60206 99.94047,96.548195 107.19904,89.224043 109.6396,86.761431 110,84.752873 110,82.5 L 110,8 z"
         id="path3526"
         style="fill:#ffffff;fill-opacity:1" />
    </clipPath>
    <filter
       x="-0.1126375"
       y="-0.12064722"
       width="1.225275"
       height="1.2412944"
       color-interpolation-filters="sRGB"
       id="filter6118-4">
      <feGaussianBlur
         stdDeviation="2.3860572"
         id="feGaussianBlur6120-3" />
    </filter>
    <linearGradient
       x1="86.73793"
       y1="93.621468"
       x2="95.18235"
       y2="102.06589"
       id="linearGradient3895-3"
       xlink:href="#linearGradient3897-7"
       gradientUnits="userSpaceOnUse"
       gradientTransform="matrix(1.3459172,0,0,1.3459172,-38.154591,-38.469319)" />
    <linearGradient
       id="linearGradient3897-7">
      <stop
         id="stop3899-4"
         style="stop-color:#fcfcfc;stop-opacity:1"
         offset="0" />
      <stop
         id="stop3901-5"
         style="stop-color:#f8f8f8;stop-opacity:1"
         offset="0.52275378" />
      <stop
         id="stop3903-2"
         style="stop-color:#f0efef;stop-opacity:1"
         offset="0.72337759" />
      <stop
         id="stop3905-5"
         style="stop-color:#e3e1e1;stop-opacity:1"
         offset="0.89024991" />
      <stop
         id="stop3907-4"
         style="stop-color:#cecbcb;stop-opacity:1"
         offset="1" />
    </linearGradient>
    <radialGradient
       cx="90.75"
       cy="110.25299"
       r="18.750002"
       fx="90.75"
       fy="110.25299"
       id="radialGradient3919-5"
       xlink:href="#linearGradient3913-5"
       gradientUnits="userSpaceOnUse"
       gradientTransform="matrix(1.3067347,0,0,1.3067347,-27.83617,-33.818441)" />
    <linearGradient
       id="linearGradient3913-5">
      <stop
         id="stop3915-4"
         style="stop-color:#ffffff;stop-opacity:1"
         offset="0" />
      <stop
         id="stop3917-7"
         style="stop-color:#ffffff;stop-opacity:0"
         offset="1" />
    </linearGradient>
    <clipPath
       id="clipPath3889-6">
      <path
         d="m 112,82.502986 c 0,4.465301 -2.79749,6.409952 -5.27972,8.093625 -5.10854,3.46508 -14.939114,3.32536 -20.720284,3.40638 -0.081,5.781159 0.16586,15.504599 -3.29922,20.613139 -1.68367,2.48224 -5.29051,5.38687 -8.20078,5.38687 2.31803,0 4.74284,-1.33476 7.58402,-4.08481 9.14197,-8.84873 17.36714,-16.13535 25.673154,-25.297529 C 109.67612,88.503916 112,86.97878 112,82.502986 z"
         id="path3891-5"
         style="fill:url(#linearGradient3893);fill-opacity:1;stroke:none" />
    </clipPath>
    <filter
       color-interpolation-filters="sRGB"
       id="filter3909-6">
      <feGaussianBlur
         stdDeviation="0.43040059"
         id="feGaussianBlur3911-9" />
    </filter>
    <linearGradient
       x1="1257.3567"
       y1="660.328"
       x2="1374.0907"
       y2="543.59406"
       id="linearGradient3970"
       xlink:href="#linearGradient22877-6"
       gradientUnits="userSpaceOnUse"
       gradientTransform="matrix(0,-0.75329989,-0.75329989,0,515.04187,979.66255)" />
    <linearGradient
       id="linearGradient22877-6">
      <stop
         id="stop22879-7"
         style="stop-color:#abed5f;stop-opacity:1"
         offset="0" />
      <stop
         id="stop22881-5"
         style="stop-color:#ffffff;stop-opacity:1"
         offset="1" />
    </linearGradient>
    <linearGradient
       x1="1257.3567"
       y1="660.328"
       x2="1374.0907"
       y2="543.59406"
       id="linearGradient3974"
       xlink:href="#linearGradient22877-6"
       gradientUnits="userSpaceOnUse"
       gradientTransform="matrix(0,-0.75329989,-0.75329989,0,580.30947,1026.8676)" />
    <linearGradient
       id="linearGradient3550">
      <stop
         id="stop3552"
         style="stop-color:#abed5f;stop-opacity:1"
         offset="0" />
      <stop
         id="stop3554"
         style="stop-color:#ffffff;stop-opacity:1"
         offset="1" />
    </linearGradient>
    <linearGradient
       x1="1257.3567"
       y1="660.328"
       x2="1374.0907"
       y2="543.59406"
       id="linearGradient3617"
       xlink:href="#linearGradient22877-6"
       gradientUnits="userSpaceOnUse"
       gradientTransform="matrix(0,-0.75329989,-0.75329989,0,580.30947,1030.2413)" />
    <linearGradient
       x1="1257.3567"
       y1="660.328"
       x2="1374.0907"
       y2="543.59406"
       id="linearGradient3543"
       xlink:href="#linearGradient22877-6"
       gradientUnits="userSpaceOnUse"
       gradientTransform="matrix(0,-0.75329989,-0.75329989,0,580.30947,1087.4925)" />
    <linearGradient
       x1="72"
       y1="0"
       x2="72"
       y2="116.40091"
       id="linearGradient3545"
       xlink:href="#linearGradient4518-3"
       gradientUnits="userSpaceOnUse"
       gradientTransform="translate(3.9208988e-7,2.7836915e-6)" />
    <radialGradient
       cx="64"
       cy="64.004021"
       r="47.5"
       fx="63.793392"
       fy="47.274845"
       id="radialGradient3547"
       xlink:href="#linearGradient5982-7"
       gradientUnits="userSpaceOnUse"
       gradientTransform="matrix(1.6842105,-0.08429519,0.06886339,1.3758846,-48.197001,-18.66323)" />
    <linearGradient
       x1="342.94724"
       y1="-30.602612"
       x2="32.017258"
       y2="91.333046"
       id="linearGradient3549"
       xlink:href="#linearGradient3928"
       gradientUnits="userSpaceOnUse"
       gradientTransform="translate(0,8)" />
    <radialGradient
       cx="200.5"
       cy="36.774048"
       r="52.25"
       fx="200.5"
       fy="36.774048"
       id="radialGradient3551"
       xlink:href="#linearGradient4518"
       gradientUnits="userSpaceOnUse"
       gradientTransform="matrix(1,0,0,1.1918478,-0.46707006,-6.273771)" />
    <radialGradient
       cx="227.58197"
       cy="69.511993"
       r="52.25"
       fx="227.58197"
       fy="69.511993"
       id="radialGradient3553"
       xlink:href="#linearGradient4518"
       gradientUnits="userSpaceOnUse"
       gradientTransform="matrix(0.73332196,0.15008493,-0.1788784,0.87400816,-261.36186,81.667381)" />
    <radialGradient
       cx="188.375"
       cy="77.644028"
       r="36.625"
       fx="174.62433"
       fy="77.906471"
       id="radialGradient3555"
       xlink:href="#linearGradient3822"
       gradientUnits="userSpaceOnUse"
       gradientTransform="matrix(0.2962549,0.14473464,-1.7358612,3.5531053,267.34723,-204.32731)" />
    <radialGradient
       cx="174.4538"
       cy="75.719681"
       r="36.625"
       fx="174.4538"
       fy="75.719681"
       id="radialGradient3557"
       xlink:href="#linearGradient5982"
       gradientUnits="userSpaceOnUse"
       gradientTransform="matrix(0.41591722,0.24012992,-2.0282743,3.5130742,267.14692,-218.71095)" />
    <radialGradient
       cx="188.375"
       cy="77.644028"
       r="36.625"
       fx="174.62433"
       fy="77.906471"
       id="radialGradient3559"
       xlink:href="#linearGradient3822"
       gradientUnits="userSpaceOnUse"
       gradientTransform="matrix(0.40057779,0.21184129,-1.742024,3.2940515,248.17392,-196.85456)" />
    <linearGradient
       x1="86.73793"
       y1="93.621468"
       x2="95.18235"
       y2="102.06589"
       id="linearGradient3561"
       xlink:href="#linearGradient3897-7"
       gradientUnits="userSpaceOnUse"
       gradientTransform="matrix(1.3459172,0,0,1.3459172,-38.154591,-38.469319)" />
    <radialGradient
       cx="90.75"
       cy="110.25299"
       r="18.750002"
       fx="90.75"
       fy="110.25299"
       id="radialGradient3563"
       xlink:href="#linearGradient3913-5"
       gradientUnits="userSpaceOnUse"
       gradientTransform="matrix(1.3067347,0,0,1.3067347,-27.83617,-33.818441)" />
  </defs>
  <path
     d="m 65.25445,38.373628 0,43.499358 c 0,1.476665 0.85869,2.899784 1.97741,4.029435 1.11864,1.12965 2.55201,1.977408 4.06675,1.977408 l 24.58701,0 0,-1.492383 -24.58701,0 c -0.9069,0 -2.10961,-0.608272 -3.02208,-1.529693 -0.91248,-0.921362 -1.49238,-2.119543 -1.49238,-2.984767 l 0,-43.499358 z"
     id="path3972"
     style="font-size:medium;font-style:normal;font-variant:normal;font-weight:normal;font-stretch:normal;text-indent:0;text-align:start;text-decoration:none;line-height:normal;letter-spacing:normal;word-spacing:normal;text-transform:none;direction:ltr;block-progression:tb;writing-mode:lr-tb;text-anchor:start;baseline-shift:baseline;color:#000000;fill:url(#linearGradient3617);fill-opacity:1;stroke:none;stroke-width:2;marker:none;visibility:visible;display:inline;overflow:visible;enable-background:accumulate;font-family:Sans;-inkscape-font-specification:Sans" />
  <path
     d="M 0,3.3736267 0,31.281194 c 0,1.476665 0.82137,2.937094 1.94009,4.066744 1.11865,1.129651 2.58933,1.977408 4.10406,1.977408 l 20.6322,0 0,-1.529693 -20.6322,0 c -0.90689,0 -2.10961,-0.608271 -3.02208,-1.529693 C 2.10959,33.344599 1.52969,32.146418 1.52969,31.281194 l 0,-27.9075673 -1.52969,0 z"
     id="path3968"
     style="font-size:medium;font-style:normal;font-variant:normal;font-weight:normal;font-stretch:normal;text-indent:0;text-align:start;text-decoration:none;line-height:normal;letter-spacing:normal;word-spacing:normal;text-transform:none;direction:ltr;block-progression:tb;writing-mode:lr-tb;text-anchor:start;baseline-shift:baseline;color:#000000;fill:url(#linearGradient3970);fill-opacity:1;stroke:none;stroke-width:2;marker:none;visibility:visible;display:inline;overflow:visible;enable-background:accumulate;font-family:Sans;-inkscape-font-specification:Sans" />
  <text
     x="86.751526"
     y="43.477436"
     id="text3251-3"
     xml:space="preserve"
     style="font-size:23.87813187px;font-style:normal;font-variant:normal;font-weight:300;font-stretch:normal;text-align:start;line-height:100%;writing-mode:lr-tb;text-anchor:start;fill:#000000;fill-opacity:1;stroke:none;font-family:Lato;-inkscape-font-specification:Lato Light"><tspan
       x="86.751526"
       y="43.477436"
       id="tspan3253-6">LineEdit</tspan></text>
  <text
     x="146.09903"
     y="92.76252"
     id="text3259-7"
     xml:space="preserve"
     style="font-size:23.87813187px;font-style:normal;font-variant:normal;font-weight:300;font-stretch:normal;text-align:start;line-height:100%;writing-mode:lr-tb;text-anchor:start;fill:#000000;fill-opacity:1;stroke:none;font-family:Lato;-inkscape-font-specification:Lato Light"><tspan
       x="146.09903"
       y="92.76252"
       id="tspan3261-5"><tspan
   id="tspan3017"
   style="font-size:23.87813187px;font-style:normal;font-variant:normal;font-weight:300;font-stretch:normal;text-align:start;line-height:100%;writing-mode:lr-tb;text-anchor:start;font-family:Lato;-inkscape-font-specification:Lato Light">1.0.qm</tspan>l</tspan></text>
  <g
     transform="matrix(0.3848269,0,0,0.3848269,94.45429,63.311128)"
     id="layer1">
    <path
       d="m 13.333,5.3364 0,117.8304 49.8545,0.4332 c 2.115476,0.0184 4.528919,-1.77169 7,-4.25 0.71234,-0.71442 1.440746,-1.39395 2.15625,-2.09375 0.415612,-0.40649 0.832187,-0.81443 1.25,-1.21875 7.773958,-7.40962 26.98341,-25.122599 34.21875,-33.099999 0.42065,-0.42064 0.81207,-0.8111 1.15625,-1.1875 1.46444,-1.49766 2.76158,-2.8378 2.99375,-5.8625 L 112,75.156251 111.9972,5.3364 z"
       id="path5990"
       style="opacity:0.45606695;fill:#000000;fill-opacity:1;filter:url(#filter4123)" />
    <path
       d="m 13.333,5.3364 0,118.3304 49.3318,0.3 c 1.527964,0 3.65713,-0.98408 6.387944,-2.83388 C 82.175824,111.57445 97.49744,91.890146 108.75009,80.500071 110.49334,78.756821 112,77.462561 112,73.300001 L 111.9972,5.3364 z"
       id="path3722"
       style="fill:#000000;fill-opacity:0.84716157;filter:url(#filter4111)" />
    <path
       d="m 13.333,5.3364 0,117.3304 49.3318,0 c 1.675283,0 3.914297,-0.56468 7,-3.6 8.870045,-8.72523 32.07567,-31.518599 39.33424,-38.842759 C 111.4396,77.761431 112,75.752871 112,73.500001 L 111.9972,5.3364 z"
       id="path34"
       style="fill:#ffffff;fill-opacity:1" />
    <path
       d="m 16.5,8.000003 c -0.339844,0 -0.5,0.234618 -0.5,0.5 l 0,109.968747 c 0,0.82158 0.679323,1.5 1.5,1.5 l 48.6875,0 c 0.05308,0 0.810384,0.0234 1.5,0.0313 1.777664,-0.0401 3.131974,-0.75374 4.356035,-1.59328 1.051866,-0.29103 25.980435,-26.619589 35.101555,-35.809239 1.36239,-1.37262 2.18546,-3.94817 2.18546,-4.89561 l 5e-5,-69.201918 c 0,-0.322717 -0.16322,-0.5 -0.5,-0.5 z"
       id="path3967"
       style="fill:url(#linearGradient4524-4);fill-opacity:1" />
    <g
       transform="matrix(0.19225307,0,0,-0.19225307,-31.244303,762.19142)"
       mask="url(#mask7255)"
       id="g17439"
       style="filter:url(#filter7249)">
      <path
         d="m 245.63086,3531.9452 c -3.67111,3.3602 -10.22007,9.5319 -14.55327,13.7147 l -7.87854,7.6052 0,171.655 c 0,186.6818 -0.32462,176.9485 6.39285,191.6585 3.29528,7.2156 11.77535,16.6363 18.53382,20.5891 8.91077,5.2118 16.36271,6.6514 38.10163,7.3606 l 20.42583,0.6665 36.18292,-5.9747 c 52.42699,-8.6571 152.3744,-25.0083 190.25207,-31.1249 17.97474,-2.9027 34.25705,-5.6723 36.18291,-6.1549 l 3.50158,-0.8773 0,-142.3535 c 0,-118.9216 -0.27079,-143.3141 -1.64487,-148.1895 -4.38834,-15.5701 -14.29604,-28.6358 -25.43337,-33.5401 -4.88178,-2.1494 -15.8862,-4.49 -39.45163,-8.3909 -17.97474,-2.9753 -69.97308,-11.6907 -115.55188,-19.3676 -92.315,-15.5485 -89.85457,-15.1369 -114.96828,-19.2295 -9.9503,-1.6215 -19.28972,-3.22 -20.75425,-3.5521 -2.03544,-0.4615 -4.23559,0.8356 -9.33752,5.5054 z m 183.48645,55.4916 c 0.0613,8.5959 0.10067,15.9552 0.0905,25.3933 l -5.44582,0.7767 c -8.73074,1.2453 -11.73669,3.2742 -15.31384,10.3359 -1.78842,3.5308 -3.85143,9.5665 -3.88514,11.0395 1.57819,0.5865 4.09597,1.569 8.4226,4.0822 10.76222,6.2518 15.23023,10.3235 21.43399,19.5337 14.70048,21.8235 20.59144,51.4219 19.58794,98.4165 -0.48336,22.6382 -0.90107,26.7886 -4.28519,42.5903 -5.10617,23.8424 -11.01988,36.2777 -22.91006,48.1746 -15.71345,15.7226 -37.60061,22.4971 -59.80991,18.5124 -33.5986,-6.028 -51.82779,-32.1391 -57.51842,-82.388 -2.09817,-18.5271 -0.80289,-63.6315 2.30301,-80.193 2.68614,-14.3233 8.06237,-30.7741 12.718,-38.9165 7.6699,-13.4142 19.92131,-24.9115 30.58623,-28.7035 2.8888,-1.0271 7.81507,-2.8604 10.23072,-3.6001 0.23942,-1.3846 0.41129,-2.2482 1.76946,-7.133 6.96638,-25.0566 15.57251,-34.9442 33.72597,-38.7476 6.13913,-1.2863 28.29956,0.8266 28.29956,0.8266 z m -50.44788,74.6399 c -16.88093,8.3197 -23.4954,38.9692 -22.08689,102.3437 0.7168,32.247 2.5207,46.1355 7.37037,56.7459 3.43971,7.5258 5.38629,9.88 11.24953,13.6058 5.28051,3.3554 11.34743,3.5357 17.95839,0.5336 16.37321,-7.4354 22.51759,-35.7912 21.0144,-96.9783 -1.07892,-43.9206 -4.78169,-61.3233 -15.20048,-71.442 -2.59159,-2.5167 -6.3355,-4.6862 -9.43337,-5.4664 -6.41765,-1.6159 -6.23601,-1.6269 -10.87195,0.6577 z m 134.28106,-14.2638 c 8.9951,1.6038 23.02152,6.9917 23.02152,6.9917 0,0 0.0335,4.2932 0.0335,10.8655 l 0,9.9274 -4.96056,-0.9578 c -2.7283,-0.5267 -7.78837,-0.9878 -11.24456,-1.0245 -5.57101,-0.06 -6.56429,0.307 -8.75394,3.2274 -2.42907,3.2397 -2.46992,4.1565 -2.46992,55.4416 l 0,53.3145 24.51101,-1.1672 0.0773,24.5831 -25.19483,1.655 0.0555,40.4242 c -7.53859,0.7351 -14.41597,1.3041 -22.03189,1.9393 l -1.15581,-4.5374 c -0.63583,-2.4956 -2.6434,-11.0637 -4.46129,-19.0401 -1.8179,-7.9763 -3.89112,-17.0262 -3.89112,-17.0262 l -15.26102,0.8775 0.19856,-25.1404 12.69539,-0.7967 c 0,0 0.0263,-15.0139 0.0263,-58.8946 0,-62.1529 0.2387,-64.5521 7.21339,-72.4957 4.372,-4.9795 6.78444,-6.3597 14.37964,-8.2269 7.43443,-1.8277 6.60674,-1.8306 17.21242,0.06 z"
         id="path17284"
         style="fill:#81c142" />
      <path
         d="m 288.59645,3944.5895 -2.15186,-0.073 c -21.73892,-0.7092 -29.16897,-2.1197 -38.07959,-7.3315 -6.75848,-3.9528 -15.2705,-13.3926 -18.56578,-20.6081 -6.71732,-14.71 -6.38292,-4.9928 -6.38292,-191.6746 l 0,-171.65 7.87853,-7.5867 c 4.3332,-4.1828 10.88216,-10.3543 14.55327,-13.7146 2.62311,-2.4009 4.48449,-3.9043 5.94537,-4.7416 l 0,125.5094 c 0,186.6818 -0.33439,251.7378 6.38308,266.4477 3.29527,7.2156 11.77068,16.6189 18.52915,20.5718 3.81438,2.2309 7.37606,3.764 11.89075,4.8512 z"
         id="path17294"
         style="fill:#00612c;fill-opacity:1" />
      <path
         d="m 416.46059,3587.4368 c 0.0613,8.5959 0.10067,15.9552 0.0904,25.3933 l -5.44582,0.7767 c -8.73073,1.2453 -11.73668,3.2742 -15.31383,10.3359 -1.78843,3.5308 -3.85144,9.5665 -3.88514,11.0395 1.57819,0.5865 4.09596,1.569 8.4226,4.0822 10.76222,6.2518 15.23023,10.3235 21.43399,19.5337 14.70048,21.8235 20.59144,51.4219 19.58794,98.4165 -0.48336,22.6382 -0.90107,26.7886 -4.28519,42.5903 -5.10617,23.8424 -11.01989,36.2777 -22.91006,48.1746 -15.71345,15.7226 -37.60061,22.4971 -59.80991,18.5124 -33.59861,-6.028 -51.82779,-32.1391 -57.51843,-82.388 -2.09817,-18.5271 -0.80288,-63.6315 2.30301,-80.193 2.68614,-14.3233 8.06237,-30.7741 12.71801,-38.9165 7.66989,-13.4142 19.92131,-24.9115 30.58623,-28.7035 2.8888,-1.0271 7.81507,-2.8604 10.23072,-3.6001 0.23941,-1.3846 0.41129,-2.2482 1.76945,-7.133 6.96638,-25.0566 15.57252,-34.9442 33.72598,-38.7476 6.13913,-1.2863 29.66736,0.1429 29.66736,0.1429 z m -50.44788,74.6399 c -16.88093,8.3197 -23.4954,38.9692 -22.08689,102.3437 0.71679,32.247 2.52069,46.1355 7.37036,56.7459 3.43972,7.5258 5.3863,9.88 11.24953,13.6058 5.28052,3.3554 11.34744,3.5357 17.9584,0.5336 16.37321,-7.4354 22.51759,-35.7912 21.01439,-96.9783 -1.07892,-43.9206 -4.78168,-61.3233 -15.20047,-71.442 -2.5916,-2.5167 -6.33551,-4.6862 -9.43338,-5.4664 -6.41765,-1.6159 -6.23601,-1.6269 -10.87194,0.6577 z m 134.28106,-14.2638 c 8.9951,1.6038 23.02152,6.9917 23.02152,6.9917 0,0 12.60697,14.2874 12.60697,20.8597 l -12.57342,-0.067 -4.96056,-0.9578 c -2.7283,-0.5267 -7.78837,-0.9878 -11.24457,-1.0245 -5.571,-0.06 -6.56427,0.307 -8.75392,3.2274 -2.42907,3.2397 -2.46993,4.1565 -2.46993,55.4416 l 0,53.3145 24.51101,-1.1672 12.75826,-0.034 -12.68094,24.6172 -25.19483,1.6551 0.0555,40.4241 -9.24605,1.9008 -12.78584,0.038 -1.15581,-4.5374 c -0.63583,-2.4956 -2.64339,-11.0637 -4.4613,-19.0401 -1.8179,-7.9763 -3.89112,-17.0262 -3.89112,-17.0262 l -2.64062,0.8699 -12.6204,0.015 0.19857,-25.1404 12.69539,-0.7967 c 0,0 0.0263,-15.0139 0.0263,-58.8946 0,-62.1529 0.23868,-64.5521 7.21338,-72.4957 4.37201,-4.9795 6.78444,-6.3597 14.37964,-8.227 7.43442,-1.8276 13.05459,-2.9589 23.66027,-1.0685 z"
         id="path17314"
         style="fill:#02621b;fill-opacity:1" />
      <path
         d="m 429.29968,3587.4368 c 0.0613,8.5959 0.10067,15.9552 0.0905,25.3933 l -5.44582,0.7767 c -8.73073,1.2453 -11.73668,3.2742 -15.31383,10.3359 -1.78843,3.5308 -3.85144,9.5665 -3.88514,11.0395 1.57818,0.5865 4.09596,1.569 8.42259,4.0822 10.76223,6.2518 15.23023,10.3235 21.434,19.5337 14.70047,21.8235 20.59143,51.4219 19.58794,98.4165 -0.48336,22.6382 -0.90107,26.7886 -4.2852,42.5903 -5.10616,23.8424 -11.01988,36.2777 -22.91005,48.1746 -15.71345,15.7226 -37.60061,22.4971 -59.80992,18.5124 -33.5986,-6.028 -51.82778,-32.1391 -57.51842,-82.388 -2.09818,-18.5271 -0.80288,-63.6315 2.30301,-80.193 2.68615,-14.3233 8.06237,-30.7741 12.718,-38.9165 7.66991,-13.4142 19.92132,-24.9115 30.58623,-28.7035 2.8888,-1.0271 7.81507,-2.8604 10.23072,-3.6001 0.23942,-1.3846 0.41129,-2.2482 1.76946,-7.133 6.96638,-25.0566 15.57251,-34.9442 33.72598,-38.7476 6.13913,-1.2863 28.29956,0.8266 28.29956,0.8266 z m -50.44787,74.6399 c -16.88094,8.3197 -23.4954,38.9692 -22.0869,102.3437 0.7168,32.247 2.52069,46.1355 7.37037,56.7459 3.43971,7.5258 5.38629,9.88 11.24953,13.6058 5.28052,3.3554 11.34743,3.5357 17.9584,0.5336 16.3732,-7.4354 22.51758,-35.7912 21.01439,-96.9783 -1.07892,-43.9206 -4.78169,-61.3233 -15.20047,-71.442 -2.5916,-2.5167 -6.33551,-4.6862 -9.43338,-5.4664 -6.41765,-1.6159 -6.23601,-1.6269 -10.87194,0.6577 z m 134.28105,-14.2638 c 8.9951,1.6038 23.02153,6.9917 23.02153,6.9917 0,0 0.0335,4.2932 0.0335,10.8655 l 0,9.9274 -4.96056,-0.9578 c -2.72831,-0.5267 -7.78838,-0.9878 -11.24457,-1.0245 -5.571,-0.06 -6.56428,0.307 -8.75393,3.2274 -2.42907,3.2397 -2.46992,4.1565 -2.46992,55.4416 l 0,53.3145 24.511,-1.1672 0.0773,24.5831 -25.19484,1.655 0.0555,40.4242 c -7.5386,0.7351 -14.41597,1.3041 -22.03189,1.9393 l -1.15581,-4.5374 c -0.63583,-2.4956 -2.6434,-11.0637 -4.4613,-19.0401 -1.8179,-7.9763 -3.89112,-17.0262 -3.89112,-17.0262 l -15.26102,0.8775 0.19857,-25.1404 12.69539,-0.7967 c 0,0 0.0263,-15.0139 0.0263,-58.8946 0,-62.1529 0.2387,-64.5521 7.21339,-72.4957 4.372,-4.9795 6.78444,-6.3597 14.37964,-8.2269 7.43442,-1.8277 6.60673,-1.8306 17.21242,0.06 z"
         id="path17312"
         style="fill:#ffffff;fill-opacity:1" />
      <g
         transform="matrix(7.491626,0,0,7.491626,-18462.231,-8277.6498)"
         id="g17416" />
    </g>
    <path
       d="m 16.5,8.000003 c -0.339844,0 -0.5,0.234618 -0.5,0.5 l 0,109.968747 c 0,0.82158 0.679323,1.49946 1.5,1.5 l 47.5,0.0313 c 0.05308,3e-5 3.273884,-0.008 3.9635,5e-5 6.540972,-4.50366 29.9679,-28.953329 38.91313,-37.955139 1.47685,-1.65649 0.4576,-0.37007 1.45391,-1.60746 l 6e-5,-71.937498 c 0,-0.322717 -0.16322,-0.5 -0.5,-0.5 z"
       id="path5980"
       style="opacity:0.84653476;fill:url(#radialGradient5988-0);fill-opacity:1" />
    <g
       transform="matrix(0.59090603,0.19695008,-0.19695008,0.59090603,-54.028983,11.457818)"
       id="g3972">
      <path
         d="m 255.66,-20.879894 -105.11828,98.792635 -0.1875,0.78125 c 18.83796,6.317374 41.13313,9.578482 38.625,28.468749 -0.15057,1.13411 1.04228,1.11051 1.21875,0.71875 7.57124,-16.808252 43.73986,-8.646128 58.125,-3.6875 l 0.46875,-0.78125 0,-0.0313 z M 172.60422,85.100241 c 8.07919,3.307344 14.65114,7.537278 16.78125,13.9375 -2.15264,-6.336718 -8.71571,-10.599533 -16.78125,-13.9375 z"
         id="path3905"
         style="opacity:0.63598328;fill:url(#linearGradient3980);fill-opacity:1;stroke:none;filter:url(#filter3924)" />
      <path
         d="M 246.49529,95.463551 C 231.69813,90.362897 196.73393,81.788231 189.52921,98.27201 192.73475,80.562444 167.13391,75.686012 148.25,69.984375 l -0.1875,0.796875 c 18.83796,6.317374 43.66065,8.856721 41.15252,27.746989 -0.15057,1.134103 0.93775,0.671345 1.11422,0.279587 7.57124,-16.808253 41.31687,-7.485205 55.70201,-2.526576 z"
         id="path3899"
         style="fill:url(#radialGradient3982);fill-opacity:1;stroke:none" />
      <path
         d="m 148.25,70 c 19.07837,5.821872 44.51361,10.360268 41.25049,28.387969 C 196.70521,81.90419 231.70284,90.399346 246.5,95.5 l 6.25,-121 z"
         id="path3050"
         style="fill:#ffffff;fill-opacity:1;stroke:none" />
      <path
         d="M -69.5625,83.5625 -171.53125,176.75 c 9.16467,2.75783 19.78654,4.81592 27.40019,8.97485 3.99367,2.18153 8.68534,4.74472 10.83038,8.02127 1.58218,2.41679 2.58751,6.09518 2.61375,9.27275 1.98717,-3.0799 5.4589,-5.17563 9.06009,-6.32644 4.85384,-1.55111 9.45574,-1.75005 15.51215,-1.48123 11.637195,0.51652 22.871003,3.79916 30.45844,6.32005 z"
         transform="translate(320.7562,-106.46855)"
         id="path4000"
         style="fill:url(#radialGradient4005);fill-opacity:1;stroke:none" />
      <path
         d="M 248.10355,-17.242641 C 223.23953,19.641686 200.01573,58.00221 177.5,97 c 0,0 17.75,8.25 18.25,7 0.5,-1.25 52.35355,-121.242641 52.35355,-121.242641 z"
         clip-path="url(#clipPath3856)"
         id="path3052"
         style="opacity:0.31799167;fill:url(#radialGradient3986);fill-opacity:1;stroke:none;filter:url(#filter3848)" />
      <path
         d="M 277.60355,-71.992641 170.78249,89.928932 c 0,0 -4.96384,11.467518 11.09251,10.571068 1.3442,-0.0751 95.72855,-172.492641 95.72855,-172.492641 z"
         clip-path="url(#clipPath3856)"
         id="path3936"
         style="fill:url(#radialGradient3990);fill-opacity:1;stroke:none;filter:url(#filter3960)" />
      <path
         d="m 259.63327,-38.183068 c -25.68178,46.715933 -48.01976,91.885159 -71.74278,139.580538 0,0 2.86612,-0.10933 2.03769,0.9519 -20.329,26.04157 57.13833,-121.420728 69.70509,-140.532438 z"
         clip-path="url(#clipPath3856)"
         id="path3878"
         style="opacity:0.51464431;fill:url(#radialGradient3988);fill-opacity:1;stroke:none;filter:url(#filter3968)" />
    </g>
    <path
       d=""
       id="path2197"
       style="fill:#000000" />
    <path
       d="m 114.4,82.502986 c 0,4.465301 -4.99749,5.909952 -7.47972,7.593625 -5.10854,3.46508 -18.362065,-1.446073 -24.143235,-1.365053 -0.081,5.781159 3.371639,20.976032 -0.09344,26.084572 -1.68367,2.48224 -5.573338,8.68687 -8.483608,8.68687 -2.091359,1.5337 3.488204,8.21101 6.734971,5.31989 9.501888,-8.46107 35.131682,-30.022704 43.350822,-39.262889 2.04044,-2.29392 -4.90514,-9.844666 -9.88579,-7.057015 z"
       transform="matrix(1.2774204,0,0,1.2774204,-31.076286,-28.013102)"
       clip-path="url(#clipPath6093-7)"
       id="path6153"
       style="opacity:0.34728035;fill:#000000;fill-opacity:1;stroke:none;filter:url(#filter6171-8)" />
    <path
       d="m 113.9,82.502986 c 0,4.465301 -5.09749,6.009952 -7.57972,7.693625 -5.10854,3.46508 -16.139114,2.12536 -21.920284,2.20638 -0.081,5.781159 1.66586,17.304599 -1.79922,22.413139 -1.68367,2.48224 -4.69051,7.98687 -7.60078,7.98687 -2.091359,1.5337 3.488204,11.21101 6.734971,8.31989 9.501888,-8.46107 45.998943,-30.20138 54.218083,-39.441569 2.04044,-2.29392 -17.0724,-11.965986 -22.05305,-9.178335 z"
       transform="matrix(1.3299764,0,0,1.3299764,-36.963543,-37.156423)"
       clip-path="url(#clipPath6093-7)"
       id="path6081"
       style="opacity:0.40099009;fill:#000000;fill-opacity:1;stroke:none;filter:url(#filter6118-4)" />
    <path
       d="m 111.99381,72.570604 c 0,5.938743 -3.72059,8.525082 -7.0219,10.764323 -6.794238,4.608475 -19.95169,4.558319 -27.64051,4.666073 -0.107728,7.688805 0.303611,20.48508 -4.304863,27.27932 -2.239241,3.30132 -7.036253,7.16441 -10.906844,7.16441 3.082925,0 6.307865,-1.7752 10.086567,-5.4327 12.158605,-11.76861 23.097887,-21.459634 34.14469,-33.645117 2.55216,-2.815215 5.64286,-4.843615 5.64286,-10.796309 z"
       id="path6011"
       style="fill:url(#linearGradient3895-3);fill-opacity:1;stroke:none" />
    <path
       d="m 112.01875,73.115242 c -0.42084,5.185724 -5.08438,7.318602 -8.17936,9.417895 C 98.818947,85.938464 82.6646,85.3344 74.6648,85.3344 c 0,7.9998 1.619153,23.49711 -2.7864,30.22372 -1.912401,2.91993 -4.654194,5.79882 -8.19598,6.58338 2.633964,-0.48185 5.299865,-2.47561 8.470288,-5.54435 0.451018,-0.51674 0.763801,-0.90298 1.471286,-1.99496 4.608475,-6.79423 4.099678,-18.412383 4.207406,-26.10119 7.68882,-0.107728 20.028368,-0.145785 26.8226,-4.754259 0.619,-0.41986 2.51897,-1.313671 3.06727,-1.861967 2.04322,-2.043229 3.9922,-4.273773 4.29748,-8.769532 z M 63.68242,122.1415 c -0.209681,0.0464 -0.416863,0.0551 -0.623426,0.0831 0.208794,-0.0225 0.412882,-0.0446 0.623426,-0.0831 z"
       id="path6122"
       style="fill:#ffffff;fill-opacity:1;stroke:none" />
    <path
       d="M 117.31456,81.861283 72.639105,125.34835"
       transform="matrix(1.3299764,0,0,1.3299764,-36.963543,-37.156423)"
       clip-path="url(#clipPath3889-6)"
       id="path3873"
       style="fill:none;stroke:url(#radialGradient3919-5);stroke-width:1.20000005;stroke-linecap:butt;stroke-linejoin:miter;stroke-miterlimit:4;stroke-opacity:1;stroke-dasharray:none;filter:url(#filter3909-6)" />
  </g>
  <g
     transform="matrix(0.37324519,0,0,0.37324519,28.95927,7.3118107)"
     id="g4871"
     style="display:inline;enable-background:new">
    <g
       transform="translate(0,-924.36218)"
       id="g4873">
      <path
         d="m 7,1034.1822 114.00003,0 c 2.216,0 4,0.8652 4,1.94 0,1.0747 -1.78433,1.902 -4,1.94 -36.945188,0.6329 -74.703071,0.7782 -114.00003,0 -2.2155656,-0.044 -4,-0.8653 -4,-1.94 0,-1.0748 1.784,-1.94 4,-1.94 z"
         id="path4875"
         style="opacity:0.55428569;fill:#000000;fill-opacity:1;stroke:none;filter:url(#filter4724)" />
      <path
         d="m 9.3332,935.03178 c -1.7327589,-10e-6 -4,2.19218 -4,4 l 0,2 C 5.3332,963.17483 6,991.26517 6,1004.0257 l 0,23.7338 c 0,2.5513 2.0595923,4.6027 4.620974,4.6027 l 106.758056,0 c 2.56138,0 4.60034,-2.0515 4.62097,-4.6027 l 0.6636,-82.06132 c 0.0206,-2.5512 -2.72757,-5.4858 -5.28457,-5.336 l -17.06932,0 -57.64411,0.003 0,-1.3666 c 0,-1.83881 -2.057065,-3.96659 -3.9666,-3.9666 z"
         id="path4877"
         style="fill:url(#linearGradient4927);fill-opacity:1;fill-rule:nonzero;stroke:none" />
      <path
         d="m 11.9998,13.3362 c -2.5544883,0 -4,1.036235 -4,4 l 0,2 0,60.32005 -1.90605,23.71875 c -0.15668,1.94971 2.5657478,3.53125 4.53125,3.53125 l 106.75,0 c 1.9655,0 2.55684,-0.95073 2.622,-2.90565 l 2.6666,-79.998 c 0.0652,-1.954866 -3.35873,-5.3332 -5.3332,-5.3332 l -15.9996,0 -61.3308,0 0,0 -10e-4,-2.6666 c -0.01048,-0.904 -0.848813,-2.6666 -2.6666,-2.6666 z m -1.3334,2.6666 23.9994,0 c 1.173368,0 2.6666,1.015335 2.6666,2.6666 l 0,0 c 0.02347,1.442549 1.712369,2.667384 2.6676,2.6666 l 61.3308,0 15.9996,0 c 1.582,0 2.6666,1.10876 2.6666,2.6666 l 0,79.998 c 0,1.5579 -1.05497,2.15565 -2.622,2.15565 l -107.75,0 c -1.5670292,0 -2.846874,-1.22473 -2.78125,-2.78125 l 3.82265,-23.71875 0,-60.98685 z"
         transform="translate(0,924.36218)"
         id="path4879"
         style="opacity:0.54857142;fill:url(#linearGradient4929);fill-opacity:1;fill-rule:nonzero;stroke:none" />
      <path
         d="m 118.6636,940.36218 c 1.662,0 4.04241,2.33854 4,4 l -0.6636,26 c -0.0424,1.66146 -1.338,3 -3,3 l -1,0 c 1.662,0 1.997,-2.0026 1.997,-3.6646 l 0,-23.9994 c 0,-1.662 -0.6714,-5.336 -2.3334,-5.336 z"
         id="path4881"
         style="opacity:0.4857143;fill:url(#linearGradient4931);fill-opacity:1;stroke:none" />
      <path
         d="m 45.3322,956.36458 c 0,2.54081 -0.105644,2.71333 -2.6666,2.6666 l -37.3324,0 0.5668,47.33102 116.1,0 0,-51.41613 c 0,-2.54081 -2.05973,-4.61063 -4.62097,-4.58387 L 53.332,951.03138 c -5.982278,0 -7.9998,2.80239 -7.9998,5.3332 z"
         clip-path="url(#clipPath3834)"
         id="path4883"
         style="fill:#455b16;fill-opacity:0.80147059;fill-rule:nonzero;stroke:none;filter:url(#filter4747)" />
      <path
         d="m 9.3332,935.03178 c -1.662,0 -4,2.338 -4,4 l 0,25 c 0,1.662 1.338,3 3,3 l 1,0 c -1.662,0 -1.3334,-1.0054 -1.3334,-2.6674 l 0,-26.666 c 0,-1.662 0.6714,-2.6666 2.3334,-2.6666 z"
         id="path4885"
         style="opacity:0.4857143;fill:url(#linearGradient4933);fill-opacity:1;stroke:none" />
      <path
         d="m 53.332,953.69798 c -3.2463,0 -5.3332,1.09524 -5.3332,3.6666 0,3.17504 -1.599943,4.3332 -5.3332,4.3332 l -36.999,0 c -2.2548157,0 -3,1.78253 -3,3.01562 l 0,0.65781 0,57.65839 0,9.3237 c 0,1.7783 1.0416004,4.0089 4,4.0089 l 114.6636,0 c 1.64583,0 4,-1.9812 4,-3.9688 l 0,-9.8 0,-57.22201 0,-7.0729 c 0,-2.55004 -2.05959,-4.60051 -4.62097,-4.60051 z"
         id="path4887"
         style="fill:#b9dd53;fill-opacity:1;fill-rule:nonzero;stroke:none" />
      <path
         d="m 47.9988,957.80306 c 0,2.54081 -1.646818,3.89472 -5.3332,3.89472 l -36.999,0 c -2.3281005,0 -3,1.88019 -3,3.0042 l 0,67.66022 c 0,1.8291 1.0672851,4 4,4 19.115811,0 98.04684,-0.1 114.6636,-0.1 2.12179,0 4,-2.3892 4,-3.9 l 0,-74.08035 c 0,-2.54081 -2.05959,-4.58387 -4.62097,-4.58387 l -67.37723,0 c -3.9338,0 -5.3332,1.54302 -5.3332,4.10508 z"
         id="path4889"
         style="opacity:0.46285712;fill:url(#linearGradient4935);fill-opacity:1;fill-rule:nonzero;stroke:none" />
      <g
         transform="translate(-81,0)"
         id="g4891"
         style="opacity:0.72000002" />
      <path
         d="m 53.332,953.69798 c -4.347578,0 -5.300955,1.75007 -5.3332,4.3332 -0.03935,3.15253 -3.037698,3.6666 -5.3332,3.6666 l -36.999,0 c -2.3233459,0 -3,1.86162 -3,3 0,-0.73974 1.5829269,-0.3334 2.6666,-0.3334 l 37.3324,0 c 2.827261,0 7.9998,-2.30096 7.9998,-5.3332 0,-1.91074 0.804609,-2.64076 2.6666,-2.6666 l 66.665,0 c 2.29551,0 5.3272,0.0628 5.3272,2.3334 l 0.006,0 c 0,-2.81101 -1.79736,-5 -4.62463,-5 z"
         id="path4893"
         style="font-size:medium;font-style:normal;font-variant:normal;font-weight:normal;font-stretch:normal;text-indent:0;text-align:start;text-decoration:none;line-height:normal;letter-spacing:normal;word-spacing:normal;text-transform:none;direction:ltr;block-progression:tb;writing-mode:lr-tb;text-anchor:start;baseline-shift:baseline;opacity:0.56571428;color:#000000;fill:#eef8d5;fill-opacity:0.72794118;stroke:none;stroke-width:1;marker:none;visibility:visible;display:inline;overflow:visible;enable-background:accumulate;font-family:Sans;-inkscape-font-specification:Sans" />
      <rect
         width="121.99997"
         height="4.3919897"
         rx="2.4399951"
         ry="2.1959949"
         x="3.0000281"
         y="1032.4822"
         transform="matrix(1,0,0,2.049182,0,-1087.4817)"
         id="rect4895"
         style="opacity:0.57714281;fill:url(#linearGradient4937);fill-opacity:1;stroke:none;filter:url(#filter4584)" />
      <path
         d="M 4.3125,1030.8622 C 4.1209783,1031.1468 4,1031.4722 4,1031.7997 l 0,0.125 c 0,1.3467 1.784,2.4375 4,2.4375 l 113,0 c 2.216,0 4,-1.0908 4,-2.4375 l 0,-0.125 c 0,-0.3275 -0.12098,-0.6529 -0.3125,-0.9375 -0.59612,0.8858 -2.01034,-0.5 -3.6875,-0.5 l -113,0 c -1.6771642,0 -3.0913752,1.3858 -3.6875,0.5 z"
         id="path4897"
         style="opacity:0.26857144;fill:#f1ffb8;fill-opacity:1;stroke:none;filter:url(#filter4720)" />
      <path
         d="m 2.6666,1007.03 0,10.6664 122.6636,0 0,-10.6664 z"
         id="path4899"
         style="opacity:0.32571429;fill:#457500;fill-opacity:1;stroke:none" />
      <path
         d="m 52.7,954.46218 c -1.932997,0 -3.5,1.567 -3.5,3.5 0,0.16773 0.0084,0.33856 0.03125,0.5 l 1.03125,0 c -0.0333,-0.16274 -0.0625,-0.32741 -0.0625,-0.5 0,-1.38071 1.119288,-2.5 2.5,-2.5 0.151347,0 0.293565,0.0367 0.4375,0.0625 0.02014,-0.1817 0.0625,-0.37242 0.0625,-0.5625 0,-0.15779 -0.01728,-0.3166 -0.03125,-0.46875 -0.15181,-0.0201 -0.311445,-0.0313 -0.46875,-0.0313 z"
         id="path4901"
         style="opacity:0.93714282;fill:url(#radialGradient4939);fill-opacity:1;stroke:none" />
      <path
         d="m 123.15746,956.36458 c 0.27358,0 2.17274,1.55859 2.17274,2.6666 l 0,73.33102 c 0,2.1236 -2,3.5473 -2,2 0,-0.2736 -0.6666,-2.2247 -0.6666,-3.3328 l 0,-72.66482 c 0,-1.10801 0.22024,-2 0.49382,-2 z"
         id="path4903"
         style="fill:url(#linearGradient4941);fill-opacity:1;stroke:none" />
      <path
         d="m 5.3332,961.69778 c 0,0.4078 0,2.3896 0,2.6666 0,24.5 0,47.49822 0,71.99822 0,0.277 -2.6666,-1.6497 -2.6666,-4.0004 l 0,-67.46442 c 0,-2.91238 2.6666,-3.477 2.6666,-3.2 z"
         id="path4905"
         style="fill:url(#linearGradient4943);fill-opacity:1;stroke:none" />
      <path
         d="m 11.9998,13.3362 c -2.6326133,0 -3.9832336,1.317369 -4,4 l -0.00625,1 0.00625,61.32005 0,23.71875 c 0,1.956 1.5657478,3.53125 3.53125,3.53125 l 105.84395,0 c 1.9655,0 2.55894,-0.95066 2.622,-2.90565 l 2.6666,-82.6646 c 0.0631,-1.954935 -3.3602,-2.590391 -5.3332,-2.6666 l -15.9996,0 -61.3308,0 0,0 0,-1.6666 c -0.03567,-3.07667 -1.135338,-3.6666 -4,-3.6666 z m -1.3334,2.6666 23.9994,0 c 1.173369,0 2.6666,1.037432 2.6666,2.6666 l 0,0 c 0,1.419158 1.712369,2.667384 2.6676,2.6666 l 61.3308,0 15.9996,0 c 1.582,0 2.6666,1.10876 2.6666,2.6666 l 0,79.998 c 0,1.5579 -1.05497,2.15565 -2.622,2.15565 l -105.84395,0 c -1.5670292,0 -2.8582178,-1.22525 -2.78125,-2.78125 l 1.9166,-23.3738 0,-61.3318 z"
         transform="translate(0,924.36218)"
         id="path4907"
         style="opacity:0.39344261;fill:url(#radialGradient4945);fill-opacity:1;fill-rule:nonzero;stroke:none" />
      <path
         d="m 9.3332,10.6696 c -2.0067779,-0.0068 -4,2.406252 -4,4 l 0,1 0,21.666 2.6666,0 0,-21.3328 c 0,-2.440179 0.486868,-2.682894 2.6666,-2.6666 l 26.666,0 c 1.173368,0 2.6666,1.43518 2.6666,2.6666 L 40,16 c -7.26e-4,1.729552 0.885006,2.716736 2,2.6694 l 75.3304,0 c 1.582,0 2.68576,-0.22712 2.6666,1.3306 l 0,8 2.6666,0 0,-6.664 c 0,-3.856685 -2.11901,-5.350236 -5.3332,-5.3332 L 42.7281,16 l -0.0625,0.0028 0,-1.3666 c 0,-1.378109 -1.817369,-3.859281 -3.9666,-3.8666 z"
         transform="translate(0,924.36218)"
         id="path4909"
         style="fill:url(#linearGradient4947);fill-opacity:1;fill-rule:nonzero;stroke:none" />
      <g
         transform="translate(0,1)"
         id="g4911"
         style="filter:url(#filter4697)">
        <path
           d="m 11.255556,936.66224 c -1.963679,0 -3.5555545,1.59187 -3.5555545,3.55555 0,0.17047 0.00857,0.34394 0.031747,0.50794 L 9.7,940.66218 c -0.033832,-0.16538 0,0.17532 0,0 0,-1.40263 0.597373,-2 2,-2 0.153744,0 -0.14622,-0.0264 0,0 0.02046,-0.18448 0.06349,-1.29884 0.06349,-1.49194 0,-0.16031 -0.01747,-0.32163 -0.03176,-0.47619 -0.154212,-0.0203 -0.316389,-0.032 -0.47619,-0.032 z"
           id="path4913"
           style="opacity:0.93714282;fill:url(#radialGradient4949);fill-opacity:1;stroke:none" />
      </g>
      <g
         transform="matrix(-0.98436635,0,0,0.98436635,43.937444,15.623124)"
         id="g4915"
         style="filter:url(#filter4697)">
        <path
           d="m 9.381098,936.87245 c -3.0274558,0 -5.4816921,2.45422 -5.4816921,5.48168 0,0.26282 0.013213,0.53026 0.048946,0.78311 l 1.6151409,0 c -0.052158,-0.25497 -0.097888,-0.51281 -0.097888,-0.78311 0,-2.16246 1.7530274,-3.91548 3.9154949,-3.91548 0.2370311,0 0.4597788,0.0572 0.6852103,0.0979 0.03154,-0.28443 0.09789,-0.58322 0.09789,-0.88093 0,-0.24714 -0.02694,-0.49585 -0.04896,-0.73415 -0.2377515,-0.0313 -0.4877854,-0.0494 -0.7341538,-0.0494 z"
           id="path4917"
           style="opacity:0.93714282;fill:url(#radialGradient4951);fill-opacity:1;stroke:none" />
      </g>
      <g
         transform="matrix(-1,0,0,1,126.99998,7)"
         id="g4919"
         style="filter:url(#filter4697)">
        <path
           d="m 8.6249803,935.3622 c -1.4497361,0 -2.6249788,1.17524 -2.6249788,2.62498 0,0.12585 0.00633,0.25392 0.023438,0.375 l 0.7734311,0 c -0.024977,-0.1221 -0.046875,-0.24557 -0.046875,-0.375 0,-1.03553 0.8394598,-1.87498 1.8749853,-1.87498 0.1135053,0 0.2201707,0.0274 0.3281215,0.0469 0.015105,-0.1362 0.046875,-0.27928 0.046875,-0.42184 0,-0.11835 -0.0129,-0.23745 -0.023445,-0.35156 -0.1138504,-0.015 -0.2335823,-0.0236 -0.3515592,-0.0236 z"
           id="path4921"
           style="opacity:0.93714282;fill:url(#radialGradient4953);fill-opacity:1;stroke:none" />
      </g>
      <rect
         width="122.6636"
         height="2.6665688"
         rx="0"
         ry="0.95573604"
         x="2.6666"
         y="1017.6964"
         id="rect4923"
         style="opacity:0.10857143;fill:#ffffff;fill-opacity:1;stroke:none" />
      <path
         d="m 2.6666,1007.03 0,7.6664 122.6636,-2 0,-5.6664 z"
         id="path4925"
         style="opacity:0.4;fill:url(#linearGradient4955);fill-opacity:1;stroke:none" />
    </g>
  </g>
  <path
     d="m 65.25445,73.373628 0,65.750552 c 0,1.47667 0.85869,2.89979 1.97741,4.02944 1.11864,1.12965 2.55201,1.97741 4.06675,1.97741 l 24.58701,0 0,-1.49239 -24.58701,0 c -0.9069,0 -2.10961,-0.60827 -3.02208,-1.52969 -0.91248,-0.92136 -1.49238,-2.11954 -1.49238,-2.98477 l 0,-65.750552 z"
     id="path3481"
     style="font-size:medium;font-style:normal;font-variant:normal;font-weight:normal;font-stretch:normal;text-indent:0;text-align:start;text-decoration:none;line-height:normal;letter-spacing:normal;word-spacing:normal;text-transform:none;direction:ltr;block-progression:tb;writing-mode:lr-tb;text-anchor:start;baseline-shift:baseline;color:#000000;fill:url(#linearGradient3543);fill-opacity:1;stroke:none;stroke-width:2;marker:none;visibility:visible;display:inline;overflow:visible;enable-background:accumulate;font-family:Sans;-inkscape-font-specification:Sans" />
  <text
     x="146.09903"
     y="150.01372"
     id="text3483"
     xml:space="preserve"
     style="font-size:23.87813187px;font-style:normal;font-variant:normal;font-weight:300;font-stretch:normal;text-align:start;line-height:100%;writing-mode:lr-tb;text-anchor:start;fill:#000000;fill-opacity:1;stroke:none;font-family:Lato;-inkscape-font-specification:Lato Light"><tspan
       x="146.09903"
       y="150.01372"
       id="tspan3485">qmldir</tspan></text>
  <g
     transform="matrix(0.3848269,0,0,0.3848269,94.45429,120.56232)"
     id="g3489">
    <path
       d="m 13.333,5.3364 0,117.8304 49.8545,0.4332 c 2.115476,0.0184 4.528919,-1.77169 7,-4.25 0.71234,-0.71442 1.440746,-1.39395 2.15625,-2.09375 0.415612,-0.40649 0.832187,-0.81443 1.25,-1.21875 7.773958,-7.40962 26.98341,-25.122599 34.21875,-33.099999 0.42065,-0.42064 0.81207,-0.8111 1.15625,-1.1875 1.46444,-1.49766 2.76158,-2.8378 2.99375,-5.8625 L 112,75.156251 111.9972,5.3364 z"
       id="path3491"
       style="opacity:0.45606695;fill:#000000;fill-opacity:1;filter:url(#filter4123)" />
    <path
       d="m 13.333,5.3364 0,118.3304 49.3318,0.3 c 1.527964,0 3.65713,-0.98408 6.387944,-2.83388 C 82.175824,111.57445 97.49744,91.890146 108.75009,80.500071 110.49334,78.756821 112,77.462561 112,73.300001 L 111.9972,5.3364 z"
       id="path3493"
       style="fill:#000000;fill-opacity:0.84716157;filter:url(#filter4111)" />
    <path
       d="m 13.333,5.3364 0,117.3304 49.3318,0 c 1.675283,0 3.914297,-0.56468 7,-3.6 8.870045,-8.72523 32.07567,-31.518599 39.33424,-38.842759 C 111.4396,77.761431 112,75.752871 112,73.500001 L 111.9972,5.3364 z"
       id="path3495"
       style="fill:#ffffff;fill-opacity:1" />
    <path
       d="m 16.5,8.000003 c -0.339844,0 -0.5,0.234618 -0.5,0.5 l 0,109.968747 c 0,0.82158 0.679323,1.5 1.5,1.5 l 48.6875,0 c 0.05308,0 0.810384,0.0234 1.5,0.0313 1.777664,-0.0401 3.131974,-0.75374 4.356035,-1.59328 1.051866,-0.29103 25.980435,-26.619589 35.101555,-35.809239 1.36239,-1.37262 2.18546,-3.94817 2.18546,-4.89561 l 5e-5,-69.201918 c 0,-0.322717 -0.16322,-0.5 -0.5,-0.5 z"
       id="path3497"
       style="fill:url(#linearGradient3545);fill-opacity:1" />
    <g
       transform="matrix(0.19225307,0,0,-0.19225307,-31.244303,762.19142)"
       mask="url(#mask7255)"
       id="g3499"
       style="filter:url(#filter7249)">
      <path
         d="m 245.63086,3531.9452 c -3.67111,3.3602 -10.22007,9.5319 -14.55327,13.7147 l -7.87854,7.6052 0,171.655 c 0,186.6818 -0.32462,176.9485 6.39285,191.6585 3.29528,7.2156 11.77535,16.6363 18.53382,20.5891 8.91077,5.2118 16.36271,6.6514 38.10163,7.3606 l 20.42583,0.6665 36.18292,-5.9747 c 52.42699,-8.6571 152.3744,-25.0083 190.25207,-31.1249 17.97474,-2.9027 34.25705,-5.6723 36.18291,-6.1549 l 3.50158,-0.8773 0,-142.3535 c 0,-118.9216 -0.27079,-143.3141 -1.64487,-148.1895 -4.38834,-15.5701 -14.29604,-28.6358 -25.43337,-33.5401 -4.88178,-2.1494 -15.8862,-4.49 -39.45163,-8.3909 -17.97474,-2.9753 -69.97308,-11.6907 -115.55188,-19.3676 -92.315,-15.5485 -89.85457,-15.1369 -114.96828,-19.2295 -9.9503,-1.6215 -19.28972,-3.22 -20.75425,-3.5521 -2.03544,-0.4615 -4.23559,0.8356 -9.33752,5.5054 z m 183.48645,55.4916 c 0.0613,8.5959 0.10067,15.9552 0.0905,25.3933 l -5.44582,0.7767 c -8.73074,1.2453 -11.73669,3.2742 -15.31384,10.3359 -1.78842,3.5308 -3.85143,9.5665 -3.88514,11.0395 1.57819,0.5865 4.09597,1.569 8.4226,4.0822 10.76222,6.2518 15.23023,10.3235 21.43399,19.5337 14.70048,21.8235 20.59144,51.4219 19.58794,98.4165 -0.48336,22.6382 -0.90107,26.7886 -4.28519,42.5903 -5.10617,23.8424 -11.01988,36.2777 -22.91006,48.1746 -15.71345,15.7226 -37.60061,22.4971 -59.80991,18.5124 -33.5986,-6.028 -51.82779,-32.1391 -57.51842,-82.388 -2.09817,-18.5271 -0.80289,-63.6315 2.30301,-80.193 2.68614,-14.3233 8.06237,-30.7741 12.718,-38.9165 7.6699,-13.4142 19.92131,-24.9115 30.58623,-28.7035 2.8888,-1.0271 7.81507,-2.8604 10.23072,-3.6001 0.23942,-1.3846 0.41129,-2.2482 1.76946,-7.133 6.96638,-25.0566 15.57251,-34.9442 33.72597,-38.7476 6.13913,-1.2863 28.29956,0.8266 28.29956,0.8266 z m -50.44788,74.6399 c -16.88093,8.3197 -23.4954,38.9692 -22.08689,102.3437 0.7168,32.247 2.5207,46.1355 7.37037,56.7459 3.43971,7.5258 5.38629,9.88 11.24953,13.6058 5.28051,3.3554 11.34743,3.5357 17.95839,0.5336 16.37321,-7.4354 22.51759,-35.7912 21.0144,-96.9783 -1.07892,-43.9206 -4.78169,-61.3233 -15.20048,-71.442 -2.59159,-2.5167 -6.3355,-4.6862 -9.43337,-5.4664 -6.41765,-1.6159 -6.23601,-1.6269 -10.87195,0.6577 z m 134.28106,-14.2638 c 8.9951,1.6038 23.02152,6.9917 23.02152,6.9917 0,0 0.0335,4.2932 0.0335,10.8655 l 0,9.9274 -4.96056,-0.9578 c -2.7283,-0.5267 -7.78837,-0.9878 -11.24456,-1.0245 -5.57101,-0.06 -6.56429,0.307 -8.75394,3.2274 -2.42907,3.2397 -2.46992,4.1565 -2.46992,55.4416 l 0,53.3145 24.51101,-1.1672 0.0773,24.5831 -25.19483,1.655 0.0555,40.4242 c -7.53859,0.7351 -14.41597,1.3041 -22.03189,1.9393 l -1.15581,-4.5374 c -0.63583,-2.4956 -2.6434,-11.0637 -4.46129,-19.0401 -1.8179,-7.9763 -3.89112,-17.0262 -3.89112,-17.0262 l -15.26102,0.8775 0.19856,-25.1404 12.69539,-0.7967 c 0,0 0.0263,-15.0139 0.0263,-58.8946 0,-62.1529 0.2387,-64.5521 7.21339,-72.4957 4.372,-4.9795 6.78444,-6.3597 14.37964,-8.2269 7.43443,-1.8277 6.60674,-1.8306 17.21242,0.06 z"
         id="path3501"
         style="fill:#81c142" />
      <path
         d="m 288.59645,3944.5895 -2.15186,-0.073 c -21.73892,-0.7092 -29.16897,-2.1197 -38.07959,-7.3315 -6.75848,-3.9528 -15.2705,-13.3926 -18.56578,-20.6081 -6.71732,-14.71 -6.38292,-4.9928 -6.38292,-191.6746 l 0,-171.65 7.87853,-7.5867 c 4.3332,-4.1828 10.88216,-10.3543 14.55327,-13.7146 2.62311,-2.4009 4.48449,-3.9043 5.94537,-4.7416 l 0,125.5094 c 0,186.6818 -0.33439,251.7378 6.38308,266.4477 3.29527,7.2156 11.77068,16.6189 18.52915,20.5718 3.81438,2.2309 7.37606,3.764 11.89075,4.8512 z"
         id="path3504"
         style="fill:#00612c;fill-opacity:1" />
      <path
         d="m 416.46059,3587.4368 c 0.0613,8.5959 0.10067,15.9552 0.0904,25.3933 l -5.44582,0.7767 c -8.73073,1.2453 -11.73668,3.2742 -15.31383,10.3359 -1.78843,3.5308 -3.85144,9.5665 -3.88514,11.0395 1.57819,0.5865 4.09596,1.569 8.4226,4.0822 10.76222,6.2518 15.23023,10.3235 21.43399,19.5337 14.70048,21.8235 20.59144,51.4219 19.58794,98.4165 -0.48336,22.6382 -0.90107,26.7886 -4.28519,42.5903 -5.10617,23.8424 -11.01989,36.2777 -22.91006,48.1746 -15.71345,15.7226 -37.60061,22.4971 -59.80991,18.5124 -33.59861,-6.028 -51.82779,-32.1391 -57.51843,-82.388 -2.09817,-18.5271 -0.80288,-63.6315 2.30301,-80.193 2.68614,-14.3233 8.06237,-30.7741 12.71801,-38.9165 7.66989,-13.4142 19.92131,-24.9115 30.58623,-28.7035 2.8888,-1.0271 7.81507,-2.8604 10.23072,-3.6001 0.23941,-1.3846 0.41129,-2.2482 1.76945,-7.133 6.96638,-25.0566 15.57252,-34.9442 33.72598,-38.7476 6.13913,-1.2863 29.66736,0.1429 29.66736,0.1429 z m -50.44788,74.6399 c -16.88093,8.3197 -23.4954,38.9692 -22.08689,102.3437 0.71679,32.247 2.52069,46.1355 7.37036,56.7459 3.43972,7.5258 5.3863,9.88 11.24953,13.6058 5.28052,3.3554 11.34744,3.5357 17.9584,0.5336 16.37321,-7.4354 22.51759,-35.7912 21.01439,-96.9783 -1.07892,-43.9206 -4.78168,-61.3233 -15.20047,-71.442 -2.5916,-2.5167 -6.33551,-4.6862 -9.43338,-5.4664 -6.41765,-1.6159 -6.23601,-1.6269 -10.87194,0.6577 z m 134.28106,-14.2638 c 8.9951,1.6038 23.02152,6.9917 23.02152,6.9917 0,0 12.60697,14.2874 12.60697,20.8597 l -12.57342,-0.067 -4.96056,-0.9578 c -2.7283,-0.5267 -7.78837,-0.9878 -11.24457,-1.0245 -5.571,-0.06 -6.56427,0.307 -8.75392,3.2274 -2.42907,3.2397 -2.46993,4.1565 -2.46993,55.4416 l 0,53.3145 24.51101,-1.1672 12.75826,-0.034 -12.68094,24.6172 -25.19483,1.6551 0.0555,40.4241 -9.24605,1.9008 -12.78584,0.038 -1.15581,-4.5374 c -0.63583,-2.4956 -2.64339,-11.0637 -4.4613,-19.0401 -1.8179,-7.9763 -3.89112,-17.0262 -3.89112,-17.0262 l -2.64062,0.8699 -12.6204,0.015 0.19857,-25.1404 12.69539,-0.7967 c 0,0 0.0263,-15.0139 0.0263,-58.8946 0,-62.1529 0.23868,-64.5521 7.21338,-72.4957 4.37201,-4.9795 6.78444,-6.3597 14.37964,-8.227 7.43442,-1.8276 13.05459,-2.9589 23.66027,-1.0685 z"
         id="path3506"
         style="fill:#02621b;fill-opacity:1" />
      <path
         d="m 429.29968,3587.4368 c 0.0613,8.5959 0.10067,15.9552 0.0905,25.3933 l -5.44582,0.7767 c -8.73073,1.2453 -11.73668,3.2742 -15.31383,10.3359 -1.78843,3.5308 -3.85144,9.5665 -3.88514,11.0395 1.57818,0.5865 4.09596,1.569 8.42259,4.0822 10.76223,6.2518 15.23023,10.3235 21.434,19.5337 14.70047,21.8235 20.59143,51.4219 19.58794,98.4165 -0.48336,22.6382 -0.90107,26.7886 -4.2852,42.5903 -5.10616,23.8424 -11.01988,36.2777 -22.91005,48.1746 -15.71345,15.7226 -37.60061,22.4971 -59.80992,18.5124 -33.5986,-6.028 -51.82778,-32.1391 -57.51842,-82.388 -2.09818,-18.5271 -0.80288,-63.6315 2.30301,-80.193 2.68615,-14.3233 8.06237,-30.7741 12.718,-38.9165 7.66991,-13.4142 19.92132,-24.9115 30.58623,-28.7035 2.8888,-1.0271 7.81507,-2.8604 10.23072,-3.6001 0.23942,-1.3846 0.41129,-2.2482 1.76946,-7.133 6.96638,-25.0566 15.57251,-34.9442 33.72598,-38.7476 6.13913,-1.2863 28.29956,0.8266 28.29956,0.8266 z m -50.44787,74.6399 c -16.88094,8.3197 -23.4954,38.9692 -22.0869,102.3437 0.7168,32.247 2.52069,46.1355 7.37037,56.7459 3.43971,7.5258 5.38629,9.88 11.24953,13.6058 5.28052,3.3554 11.34743,3.5357 17.9584,0.5336 16.3732,-7.4354 22.51758,-35.7912 21.01439,-96.9783 -1.07892,-43.9206 -4.78169,-61.3233 -15.20047,-71.442 -2.5916,-2.5167 -6.33551,-4.6862 -9.43338,-5.4664 -6.41765,-1.6159 -6.23601,-1.6269 -10.87194,0.6577 z m 134.28105,-14.2638 c 8.9951,1.6038 23.02153,6.9917 23.02153,6.9917 0,0 0.0335,4.2932 0.0335,10.8655 l 0,9.9274 -4.96056,-0.9578 c -2.72831,-0.5267 -7.78838,-0.9878 -11.24457,-1.0245 -5.571,-0.06 -6.56428,0.307 -8.75393,3.2274 -2.42907,3.2397 -2.46992,4.1565 -2.46992,55.4416 l 0,53.3145 24.511,-1.1672 0.0773,24.5831 -25.19484,1.655 0.0555,40.4242 c -7.5386,0.7351 -14.41597,1.3041 -22.03189,1.9393 l -1.15581,-4.5374 c -0.63583,-2.4956 -2.6434,-11.0637 -4.4613,-19.0401 -1.8179,-7.9763 -3.89112,-17.0262 -3.89112,-17.0262 l -15.26102,0.8775 0.19857,-25.1404 12.69539,-0.7967 c 0,0 0.0263,-15.0139 0.0263,-58.8946 0,-62.1529 0.2387,-64.5521 7.21339,-72.4957 4.372,-4.9795 6.78444,-6.3597 14.37964,-8.2269 7.43442,-1.8277 6.60673,-1.8306 17.21242,0.06 z"
         id="path3508"
         style="fill:#ffffff;fill-opacity:1" />
      <g
         transform="matrix(7.491626,0,0,7.491626,-18462.231,-8277.6498)"
         id="g3510" />
    </g>
    <path
       d="m 16.5,8.000003 c -0.339844,0 -0.5,0.234618 -0.5,0.5 l 0,109.968747 c 0,0.82158 0.679323,1.49946 1.5,1.5 l 47.5,0.0313 c 0.05308,3e-5 3.273884,-0.008 3.9635,5e-5 6.540972,-4.50366 29.9679,-28.953329 38.91313,-37.955139 1.47685,-1.65649 0.4576,-0.37007 1.45391,-1.60746 l 6e-5,-71.937498 c 0,-0.322717 -0.16322,-0.5 -0.5,-0.5 z"
       id="path3512"
       style="opacity:0.84653476;fill:url(#radialGradient3547);fill-opacity:1" />
    <g
       transform="matrix(0.59090603,0.19695008,-0.19695008,0.59090603,-54.028983,11.457818)"
       id="g3514">
      <path
         d="m 255.66,-20.879894 -105.11828,98.792635 -0.1875,0.78125 c 18.83796,6.317374 41.13313,9.578482 38.625,28.468749 -0.15057,1.13411 1.04228,1.11051 1.21875,0.71875 7.57124,-16.808252 43.73986,-8.646128 58.125,-3.6875 l 0.46875,-0.78125 0,-0.0313 z M 172.60422,85.100241 c 8.07919,3.307344 14.65114,7.537278 16.78125,13.9375 -2.15264,-6.336718 -8.71571,-10.599533 -16.78125,-13.9375 z"
         id="path3517"
         style="opacity:0.63598328;fill:url(#linearGradient3549);fill-opacity:1;stroke:none;filter:url(#filter3924)" />
      <path
         d="M 246.49529,95.463551 C 231.69813,90.362897 196.73393,81.788231 189.52921,98.27201 192.73475,80.562444 167.13391,75.686012 148.25,69.984375 l -0.1875,0.796875 c 18.83796,6.317374 43.66065,8.856721 41.15252,27.746989 -0.15057,1.134103 0.93775,0.671345 1.11422,0.279587 7.57124,-16.808253 41.31687,-7.485205 55.70201,-2.526576 z"
         id="path3519"
         style="fill:url(#radialGradient3551);fill-opacity:1;stroke:none" />
      <path
         d="m 148.25,70 c 19.07837,5.821872 44.51361,10.360268 41.25049,28.387969 C 196.70521,81.90419 231.70284,90.399346 246.5,95.5 l 6.25,-121 z"
         id="path3521"
         style="fill:#ffffff;fill-opacity:1;stroke:none" />
      <path
         d="M -69.5625,83.5625 -171.53125,176.75 c 9.16467,2.75783 19.78654,4.81592 27.40019,8.97485 3.99367,2.18153 8.68534,4.74472 10.83038,8.02127 1.58218,2.41679 2.58751,6.09518 2.61375,9.27275 1.98717,-3.0799 5.4589,-5.17563 9.06009,-6.32644 4.85384,-1.55111 9.45574,-1.75005 15.51215,-1.48123 11.637195,0.51652 22.871003,3.79916 30.45844,6.32005 z"
         transform="translate(320.7562,-106.46855)"
         id="path3523"
         style="fill:url(#radialGradient3553);fill-opacity:1;stroke:none" />
      <path
         d="M 248.10355,-17.242641 C 223.23953,19.641686 200.01573,58.00221 177.5,97 c 0,0 17.75,8.25 18.25,7 0.5,-1.25 52.35355,-121.242641 52.35355,-121.242641 z"
         clip-path="url(#clipPath3856)"
         id="path3525"
         style="opacity:0.31799167;fill:url(#radialGradient3555);fill-opacity:1;stroke:none;filter:url(#filter3848)" />
      <path
         d="M 277.60355,-71.992641 170.78249,89.928932 c 0,0 -4.96384,11.467518 11.09251,10.571068 1.3442,-0.0751 95.72855,-172.492641 95.72855,-172.492641 z"
         clip-path="url(#clipPath3856)"
         id="path3527"
         style="fill:url(#radialGradient3557);fill-opacity:1;stroke:none;filter:url(#filter3960)" />
      <path
         d="m 259.63327,-38.183068 c -25.68178,46.715933 -48.01976,91.885159 -71.74278,139.580538 0,0 2.86612,-0.10933 2.03769,0.9519 -20.329,26.04157 57.13833,-121.420728 69.70509,-140.532438 z"
         clip-path="url(#clipPath3856)"
         id="path3529"
         style="opacity:0.51464431;fill:url(#radialGradient3559);fill-opacity:1;stroke:none;filter:url(#filter3968)" />
    </g>
    <path
       d=""
       id="path3531"
       style="fill:#000000" />
    <path
       d="m 114.4,82.502986 c 0,4.465301 -4.99749,5.909952 -7.47972,7.593625 -5.10854,3.46508 -18.362065,-1.446073 -24.143235,-1.365053 -0.081,5.781159 3.371639,20.976032 -0.09344,26.084572 -1.68367,2.48224 -5.573338,8.68687 -8.483608,8.68687 -2.091359,1.5337 3.488204,8.21101 6.734971,5.31989 9.501888,-8.46107 35.131682,-30.022704 43.350822,-39.262889 2.04044,-2.29392 -4.90514,-9.844666 -9.88579,-7.057015 z"
       transform="matrix(1.2774204,0,0,1.2774204,-31.076286,-28.013102)"
       clip-path="url(#clipPath6093-7)"
       id="path3533"
       style="opacity:0.34728035;fill:#000000;fill-opacity:1;stroke:none;filter:url(#filter6171-8)" />
    <path
       d="m 113.9,82.502986 c 0,4.465301 -5.09749,6.009952 -7.57972,7.693625 -5.10854,3.46508 -16.139114,2.12536 -21.920284,2.20638 -0.081,5.781159 1.66586,17.304599 -1.79922,22.413139 -1.68367,2.48224 -4.69051,7.98687 -7.60078,7.98687 -2.091359,1.5337 3.488204,11.21101 6.734971,8.31989 9.501888,-8.46107 45.998943,-30.20138 54.218083,-39.441569 2.04044,-2.29392 -17.0724,-11.965986 -22.05305,-9.178335 z"
       transform="matrix(1.3299764,0,0,1.3299764,-36.963543,-37.156423)"
       clip-path="url(#clipPath6093-7)"
       id="path3535"
       style="opacity:0.40099009;fill:#000000;fill-opacity:1;stroke:none;filter:url(#filter6118-4)" />
    <path
       d="m 111.99381,72.570604 c 0,5.938743 -3.72059,8.525082 -7.0219,10.764323 -6.794238,4.608475 -19.95169,4.558319 -27.64051,4.666073 -0.107728,7.688805 0.303611,20.48508 -4.304863,27.27932 -2.239241,3.30132 -7.036253,7.16441 -10.906844,7.16441 3.082925,0 6.307865,-1.7752 10.086567,-5.4327 12.158605,-11.76861 23.097887,-21.459634 34.14469,-33.645117 2.55216,-2.815215 5.64286,-4.843615 5.64286,-10.796309 z"
       id="path3537"
       style="fill:url(#linearGradient3561);fill-opacity:1;stroke:none" />
    <path
       d="m 112.01875,73.115242 c -0.42084,5.185724 -5.08438,7.318602 -8.17936,9.417895 C 98.818947,85.938464 82.6646,85.3344 74.6648,85.3344 c 0,7.9998 1.619153,23.49711 -2.7864,30.22372 -1.912401,2.91993 -4.654194,5.79882 -8.19598,6.58338 2.633964,-0.48185 5.299865,-2.47561 8.470288,-5.54435 0.451018,-0.51674 0.763801,-0.90298 1.471286,-1.99496 4.608475,-6.79423 4.099678,-18.412383 4.207406,-26.10119 7.68882,-0.107728 20.028368,-0.145785 26.8226,-4.754259 0.619,-0.41986 2.51897,-1.313671 3.06727,-1.861967 2.04322,-2.043229 3.9922,-4.273773 4.29748,-8.769532 z M 63.68242,122.1415 c -0.209681,0.0464 -0.416863,0.0551 -0.623426,0.0831 0.208794,-0.0225 0.412882,-0.0446 0.623426,-0.0831 z"
       id="path3539"
       style="fill:#ffffff;fill-opacity:1;stroke:none" />
    <path
       d="M 117.31456,81.861283 72.639105,125.34835"
       transform="matrix(1.3299764,0,0,1.3299764,-36.963543,-37.156423)"
       clip-path="url(#clipPath3889-6)"
       id="path3541"
       style="fill:none;stroke:url(#radialGradient3563);stroke-width:1.20000005;stroke-linecap:butt;stroke-linejoin:miter;stroke-miterlimit:4;stroke-opacity:1;stroke-dasharray:none;filter:url(#filter3909-6)" />
  </g>
</svg>