<?xml version="1.0" encoding="UTF-8" standalone="no"?>
<!-- Created with Inkscape (http://www.inkscape.org/) -->

<svg
   xmlns:dc="http://purl.org/dc/elements/1.1/"
   xmlns:cc="http://creativecommons.org/ns#"
   xmlns:rdf="http://www.w3.org/1999/02/22-rdf-syntax-ns#"
   xmlns:svg="http://www.w3.org/2000/svg"
   xmlns="http://www.w3.org/2000/svg"
   xmlns:sodipodi="http://sodipodi.sourceforge.net/DTD/sodipodi-0.dtd"
   xmlns:inkscape="http://www.inkscape.org/namespaces/inkscape"
   version="1.0"
   width="318.89764"
   height="318.89764"
   id="svg2"
   sodipodi:version="0.32"
   inkscape:version="0.48.3.1 r9886"
   sodipodi:docname="anchors.pdf"
   inkscape:output_extension="org.inkscape.output.svg.inkscape">
  <metadata
     id="metadata7">
    <rdf:RDF>
      <cc:Work
         rdf:about="">
        <dc:format>image/svg+xml</dc:format>
        <dc:type
           rdf:resource="http://purl.org/dc/dcmitype/StillImage" />
        <dc:title></dc:title>
      </cc:Work>
    </rdf:RDF>
  </metadata>
  <sodipodi:namedview
     inkscape:window-height="668"
     inkscape:window-width="1195"
     inkscape:pageshadow="2"
     inkscape:pageopacity="0.0"
     guidetolerance="10.0"
     gridtolerance="10.0"
     objecttolerance="10.0"
     borderopacity="1.0"
     bordercolor="#666666"
     pagecolor="#ffffff"
     id="base"
     showgrid="false"
     inkscape:zoom="8"
     inkscape:cx="31.128542"
     inkscape:cy="155.04898"
     inkscape:window-x="149"
     inkscape:window-y="564"
     inkscape:current-layer="svg2"
     fit-margin-top="0"
     fit-margin-left="0"
     fit-margin-right="0"
     fit-margin-bottom="0"
     inkscape:window-maximized="0"
     showguides="true"
     inkscape:guide-bbox="true">
    <inkscape:grid
       type="xygrid"
       id="grid2388"
       visible="true"
       enabled="true"
       units="cm"
       spacingx="0.5cm"
       spacingy="0.5cm"
       empspacing="4"
       snapvisiblegridlinesonly="true"
       originx="1cm"
       originy="2.1531847e-07cm" />
    <sodipodi:guide
       orientation="0,1"
       position="47.5,316.5"
       id="guide3887" />
  </sodipodi:namedview>
  <defs
     id="defs4">
    <inkscape:perspective
       sodipodi:type="inkscape:persp3d"
       inkscape:vp_x="0 : 141.73228 : 1"
       inkscape:vp_y="0 : 1000 : 0"
       inkscape:vp_z="283.46457 : 141.73228 : 1"
       inkscape:persp3d-origin="141.73228 : 94.48819 : 1"
       id="perspective9" />
  </defs>
  <g
     id="layer1"
     transform="matrix(0.93148019,0,0,0.93148019,27.428007,27.428007)"
     style="stroke:none">
    <rect
       width="283.46457"
       height="283.46457"
       x="0"
       y="0"
       id="rect2385"
       style="fill:#add8e6;fill-opacity:1;fill-rule:evenodd;stroke:none" />
  </g>
  <path
     style="fill:none;stroke:#2e7700;stroke-width:0.93333334;stroke-linecap:butt;stroke-linejoin:miter;stroke-miterlimit:4;stroke-opacity:1;stroke-dasharray:3.73333339, 3.73333339;stroke-dashoffset:0"
     d="m 159.44882,14.763784 0,289.370076"
     id="path3757"
     inkscape:connector-curvature="0" />
  <rect
     style="fill:#518a00;fill-opacity:0;fill-rule:evenodd;stroke:none"
     id="rect3763"
     width="318.89764"
     height="318.89764"
     x="0"
     y="0" />
  <path
     inkscape:connector-curvature="0"
     id="path3803"
     d="m 14.763783,159.44882 289.370077,0"
     style="fill:none;stroke:#2e7700;stroke-width:0.93333334;stroke-linecap:butt;stroke-linejoin:miter;stroke-miterlimit:4;stroke-opacity:1;stroke-dasharray:3.73333339, 3.73333339;stroke-dashoffset:0" />
  <g
     style="stroke:none;opacity:0.46818182"
     transform="matrix(0.93148019,0,0,0.93148019,27.428007,27.428007)"
     id="g3889">
    <rect
       style="fill:#add8e6;fill-opacity:1;fill-rule:evenodd;stroke:none"
       id="rect3891"
       y="0"
       x="0"
       height="283.46457"
       width="283.46457" />
  </g>
  <path
     sodipodi:type="inkscape:offset"
     inkscape:radius="1.8200275"
     inkscape:original="M 190.4375 150.6875 L 190.4375 158.1875 C 189.95907 157.36263 189.35913 156.73971 188.625 156.34375 C 187.8991 155.93958 187.02284 155.75001 186 155.75 C 184.3255 155.75001 182.96208 156.41371 181.90625 157.75 C 180.85865 159.08631 180.3125 160.85359 180.3125 163.03125 C 180.3125 165.20892 180.85865 166.97621 181.90625 168.3125 C 182.96208 169.6488 184.3255 170.3125 186 170.3125 C 187.02284 170.3125 187.8991 170.11469 188.625 169.71875 C 189.35913 169.31456 189.95907 168.69988 190.4375 167.875 L 190.4375 169.9375 L 192.71875 169.9375 L 192.71875 150.6875 L 190.4375 150.6875 z M 88.9375 151.125 C 86.141166 151.12502 83.952251 152.00303 82.34375 153.71875 C 80.735241 155.42626 79.937498 157.74921 79.9375 160.71875 C 79.937498 163.68006 80.735241 166.03426 82.34375 167.75 C 83.952251 169.45749 86.141166 170.3125 88.9375 170.3125 C 90.026324 170.3125 91.057885 170.1407 92.03125 169.84375 C 93.012837 169.54679 93.938117 169.12516 94.8125 168.53125 L 94.8125 165.90625 C 93.971112 166.68988 93.081841 167.26856 92.125 167.65625 C 91.176381 168.04395 90.166076 168.25 89.09375 168.25 C 86.982061 168.25 85.371823 167.59931 84.25 166.3125 C 83.128165 165.01745 82.562496 163.15214 82.5625 160.71875 C 82.562496 158.27713 83.128165 156.41182 84.25 155.125 C 85.371823 153.82997 86.982061 153.18752 89.09375 153.1875 C 90.166076 153.18752 91.176381 153.39358 92.125 153.78125 C 93.081841 154.16896 93.971112 154.74764 94.8125 155.53125 L 94.8125 152.90625 C 93.954614 152.3206 93.044087 151.88247 92.0625 151.59375 C 91.089135 151.29681 90.042822 151.12502 88.9375 151.125 z M 203 151.46875 L 203 153.5625 L 209.5625 153.5625 L 209.5625 169.9375 L 212.0625 169.9375 L 212.0625 153.5625 L 218.625 153.5625 L 218.625 151.46875 L 203 151.46875 z M 130.25 152.15625 L 130.25 156.09375 L 128.59375 156.09375 L 128.59375 157.84375 L 130.25 157.84375 L 130.25 165.375 C 130.25 167.10724 130.58185 168.30885 131.25 168.96875 C 131.91815 169.6204 133.11801 169.9375 134.875 169.9375 L 137.21875 169.9375 L 137.21875 168.03125 L 134.875 168.03125 C 133.92639 168.03125 133.31345 167.88421 133 167.5625 C 132.6948 167.24081 132.53124 166.50509 132.53125 165.375 L 132.53125 157.84375 L 137.21875 157.84375 L 137.21875 156.09375 L 132.53125 156.09375 L 132.53125 152.15625 L 130.25 152.15625 z M 246.75 152.15625 L 246.75 156.09375 L 245.09375 156.09375 L 245.09375 157.84375 L 246.75 157.84375 L 246.75 165.375 C 246.75 167.10724 247.08185 168.30885 247.75 168.96875 C 248.41815 169.6204 249.64926 169.9375 251.40625 169.9375 L 253.71875 169.9375 L 253.71875 168.03125 L 251.40625 168.03125 C 250.45764 168.03125 249.81344 167.88421 249.5 167.5625 C 249.19479 167.24081 249.03125 166.50509 249.03125 165.375 L 249.03125 157.84375 L 253.71875 157.84375 L 253.71875 156.09375 L 249.03125 156.09375 L 249.03125 152.15625 L 246.75 152.15625 z M 104.40625 155.75 C 102.32756 155.75001 100.66656 156.41371 99.4375 157.75 C 98.216683 159.07806 97.624998 160.88785 97.625 163.15625 C 97.624998 165.35042 98.275693 167.0882 99.5625 168.375 C 100.85755 169.66181 102.60183 170.3125 104.8125 170.3125 C 105.69511 170.3125 106.54837 170.2127 107.40625 170.03125 C 108.26411 169.84978 109.12086 169.59645 109.9375 169.25 L 109.9375 167.09375 C 109.12911 167.52268 108.29362 167.84803 107.46875 168.0625 C 106.65212 168.27697 105.81186 168.375 104.9375 168.375 C 103.42798 168.375 102.25586 167.97288 101.40625 167.15625 C 100.56487 166.33138 100.09898 165.12977 100 163.5625 L 110.46875 163.5625 L 110.46875 162.4375 C 110.46873 160.37532 109.93257 158.75858 108.84375 157.5625 C 107.76315 156.35819 106.27046 155.75001 104.40625 155.75 z M 120.875 155.75 C 119.90989 155.75001 119.05488 155.96257 118.3125 156.375 C 117.57836 156.78745 116.95066 157.41689 116.40625 158.25 L 116.40625 156.09375 L 114.125 156.09375 L 114.125 169.9375 L 116.40625 169.9375 L 116.40625 162.125 C 116.40624 160.77221 116.75935 159.68989 117.46875 158.90625 C 118.17813 158.12263 119.14593 157.71876 120.375 157.71875 C 121.39784 157.71876 122.17607 158.06711 122.6875 158.71875 C 123.19892 159.37041 123.43749 160.34471 123.4375 161.65625 L 123.4375 169.9375 L 125.71875 169.9375 L 125.71875 161.59375 C 125.71874 159.68005 125.31662 158.23161 124.5 157.25 C 123.68337 156.26016 122.467 155.75001 120.875 155.75 z M 146.03125 155.75 C 143.95256 155.75001 142.29156 156.41371 141.0625 157.75 C 139.84168 159.07806 139.25 160.88785 139.25 163.15625 C 139.25 165.35042 139.90069 167.0882 141.1875 168.375 C 142.48255 169.66181 144.22683 170.3125 146.4375 170.3125 C 147.32011 170.3125 148.17337 170.2127 149.03125 170.03125 C 149.88911 169.84978 150.74586 169.59645 151.5625 169.25 L 151.5625 167.09375 C 150.7541 167.52268 149.91861 167.84803 149.09375 168.0625 C 148.27711 168.27697 147.43685 168.375 146.5625 168.375 C 145.05297 168.375 143.88087 167.97288 143.03125 167.15625 C 142.18987 166.33138 141.724 165.12977 141.625 163.5625 L 152.09375 163.5625 L 152.09375 162.4375 C 152.09374 160.37532 151.55757 158.75858 150.46875 157.5625 C 149.38815 156.35819 147.89546 155.75001 146.03125 155.75 z M 162.6875 155.75 C 161.59041 155.75001 160.67338 155.96257 159.90625 156.375 C 159.13911 156.7792 158.50967 157.40864 158.03125 158.25 L 158.03125 156.09375 L 155.75 156.09375 L 155.75 169.9375 L 158.03125 169.9375 L 158.03125 162.65625 C 158.03124 161.089 158.37785 159.86439 159.0625 159.03125 C 159.75539 158.18989 160.74444 157.78127 162.03125 157.78125 C 162.39418 157.78127 162.70303 157.83205 163 157.90625 C 163.30519 157.97225 163.58803 158.07029 163.84375 158.21875 L 163.84375 155.875 C 163.61277 155.8338 163.40846 155.79775 163.21875 155.78125 C 163.02902 155.75655 162.84421 155.7501 162.6875 155.75 z M 171.53125 155.75 C 169.45256 155.75001 167.79156 156.41371 166.5625 157.75 C 165.34168 159.07806 164.71875 160.88785 164.71875 163.15625 C 164.71875 165.35042 165.36944 167.0882 166.65625 168.375 C 167.95129 169.66181 169.72683 170.3125 171.9375 170.3125 C 172.82011 170.3125 173.67337 170.2127 174.53125 170.03125 C 175.38911 169.84978 176.21461 169.59645 177.03125 169.25 L 177.03125 167.09375 C 176.22286 167.52268 175.41861 167.84803 174.59375 168.0625 C 173.77711 168.27697 172.93686 168.375 172.0625 168.375 C 170.55297 168.375 169.38087 167.97288 168.53125 167.15625 C 167.68988 166.33138 167.19275 165.12977 167.09375 163.5625 L 177.5625 163.5625 L 177.5625 162.4375 C 177.56249 160.37532 177.02632 158.75858 175.9375 157.5625 C 174.8569 156.35819 173.39546 155.75001 171.53125 155.75 z M 222.46875 155.75 C 220.39006 155.75001 218.72906 156.41371 217.5 157.75 C 216.27918 159.07806 215.65624 160.88785 215.65625 163.15625 C 215.65624 165.35042 216.30695 167.0882 217.59375 168.375 C 218.8888 169.66181 220.63308 170.3125 222.84375 170.3125 C 223.72636 170.3125 224.61087 170.2127 225.46875 170.03125 C 226.32661 169.84978 227.15211 169.59645 227.96875 169.25 L 227.96875 167.09375 C 227.16036 167.52268 226.35611 167.84803 225.53125 168.0625 C 224.71461 168.27697 223.87435 168.375 223 168.375 C 221.49047 168.375 220.28712 167.97288 219.4375 167.15625 C 218.59613 166.33138 218.13025 165.12977 218.03125 163.5625 L 228.5 163.5625 L 228.5 162.4375 C 228.49999 160.37532 227.96382 158.75858 226.875 157.5625 C 225.7944 156.35819 224.33296 155.75001 222.46875 155.75 z M 230.59375 156.09375 L 235.53125 162.6875 L 230.125 169.9375 L 232.8125 169.9375 L 236.84375 164.5 L 240.875 169.9375 L 243.5625 169.9375 L 238.3125 162.84375 L 243.3125 156.09375 L 240.625 156.09375 L 236.96875 161.03125 L 233.28125 156.09375 L 230.59375 156.09375 z M 186.5625 157.65625 C 187.76681 157.65626 188.71335 158.13691 189.40625 159.09375 C 190.09913 160.04237 190.43749 161.35676 190.4375 163.03125 C 190.43749 164.70575 190.09913 166.0119 189.40625 166.96875 C 188.71335 167.91736 187.76681 168.40625 186.5625 168.40625 C 185.35818 168.40625 184.38039 167.91736 183.6875 166.96875 C 183.00285 166.0119 182.6875 164.70575 182.6875 163.03125 C 182.6875 161.35676 183.00285 160.04237 183.6875 159.09375 C 184.38039 158.13691 185.35818 157.65626 186.5625 157.65625 z M 104.4375 157.6875 C 105.55932 157.68751 106.44859 158.03887 107.125 158.78125 C 107.80963 159.52365 108.171 160.5357 108.1875 161.78125 L 100.0625 161.78125 C 100.17798 160.47795 100.61611 159.46765 101.375 158.75 C 102.14213 158.03237 103.16718 157.68751 104.4375 157.6875 z M 146.0625 157.6875 C 147.18432 157.68751 148.07359 158.03887 148.75 158.78125 C 149.43463 159.52365 149.796 160.5357 149.8125 161.78125 L 141.6875 161.78125 C 141.80298 160.47795 142.24112 159.46765 143 158.75 C 143.76713 158.03237 144.79218 157.68751 146.0625 157.6875 z M 171.5625 157.6875 C 172.68432 157.68751 173.57359 158.03887 174.25 158.78125 C 174.93464 159.52365 175.296 160.5357 175.3125 161.78125 L 167.1875 161.78125 C 167.30298 160.47795 167.74111 159.46765 168.5 158.75 C 169.26713 158.03237 170.29219 157.68751 171.5625 157.6875 z M 222.46875 157.6875 C 223.59057 157.68751 224.51109 158.03887 225.1875 158.78125 C 225.87213 159.52365 226.20225 160.5357 226.21875 161.78125 L 218.125 161.78125 C 218.24048 160.47795 218.67861 159.46765 219.4375 158.75 C 220.20462 158.03237 221.19843 157.68751 222.46875 157.6875 z "
     style="font-size:25.34016418px;font-style:normal;font-variant:normal;font-weight:normal;font-stretch:normal;text-align:start;line-height:125%;writing-mode:lr-tb;text-anchor:start;fill:#add8e6;fill-opacity:1;stroke:none;font-family:DejaVu Sans;-inkscape-font-specification:DejaVu Sans"
     id="path3847"
     d="m 190.25,148.875 a 1.8202095,1.8202095 0 0 0 -1.625,1.8125 l 0,3.875 c -0.84463,-0.31541 -1.68799,-0.62499 -2.625,-0.625 -2.15541,1e-5 -4.18465,0.9832 -5.53125,2.6875 -0.68702,0.87635 -1.1724,1.88913 -1.5,3 -0.33397,-1.23038 -0.8537,-2.36531 -1.6875,-3.28125 -1.42194,-1.58473 -3.48995,-2.40624 -5.75,-2.40625 -2.27201,1e-5 -4.32387,0.82245 -5.875,2.28125 l 0,-0.34375 a 1.8202095,1.8202095 0 0 0 -1.5,-1.78125 c -0.20569,-0.0367 -0.42913,-0.0976 -0.6875,-0.125 -0.0359,-0.005 -0.059,0.004 -0.0937,0 -0.25509,-0.028 -0.50641,-0.0311 -0.6875,-0.0313 -1.2515,1e-5 -2.41295,0.27569 -3.4375,0.78125 a 1.8202095,1.8202095 0 0 0 -1.21875,-0.4375 l -2.28125,0 a 1.8202095,1.8202095 0 0 0 -1.8125,1.8125 l 0,13.84375 a 1.8202095,1.8202095 0 0 0 1.8125,1.8125 l 2.28125,0 a 1.8202095,1.8202095 0 0 0 1.8125,-1.8125 l 0,-7.28125 c -1e-5,-1.2989 0.30447,-2.07871 0.625,-2.46875 0.33642,-0.40851 0.66097,-0.59374 1.5625,-0.59375 0.19322,1e-5 0.33273,0.0442 0.53125,0.0937 a 1.8202095,1.8202095 0 0 0 0.0625,0 c 0.16831,0.0364 0.25984,0.0632 0.3125,0.0937 A 1.8202095,1.8202095 0 0 0 163.40625,160 c -0.28635,0.99384 -0.5,2.03257 -0.5,3.15625 0,2.55399 0.81953,4.85079 2.46875,6.5 1.66744,1.65685 3.99469,2.46875 6.5625,2.46875 1.01981,0 2.00402,-0.10845 2.96875,-0.3125 0.96211,-0.20352 1.91481,-0.48091 2.84375,-0.875 a 1.8202095,1.8202095 0 0 0 1.09375,-1.6875 l 0,-2.15625 a 1.8202095,1.8202095 0 0 0 -1.21875,-1.71875 1.8202095,1.8202095 0 0 0 1.125,-0.40625 c 0.26014,1.67513 0.75026,3.23337 1.71875,4.46875 1.3466,1.70431 3.37583,2.6875 5.53125,2.6875 1.17797,0 2.28661,-0.25503 3.28125,-0.75 a 1.8202095,1.8202095 0 0 0 0.0313,0 1.8202095,1.8202095 0 0 0 1.125,0.375 l 2.28125,0 a 1.8202095,1.8202095 0 0 0 1.8125,-1.8125 l 0,-19.25 a 1.8202095,1.8202095 0 0 0 -1.8125,-1.8125 l -2.28125,0 a 1.8202095,1.8202095 0 0 0 -0.1875,0 z m -101.3125,0.4375 c -3.177303,2e-5 -5.946163,1.06551 -7.90625,3.15625 -1.967485,2.08858 -2.906252,4.9545 -2.90625,8.25 -2e-6,3.28817 0.934948,6.17853 2.90625,8.28125 1.96566,2.08663 4.73892,3.125 7.90625,3.125 1.280273,0 2.495758,-0.18675 3.625,-0.53125 1.135187,-0.34343 2.244384,-0.85823 3.28125,-1.5625 a 1.8202095,1.8202095 0 0 0 0.78125,-1.5 l 0,-1.4375 c 0.405876,0.9472 0.928786,1.83504 1.65625,2.5625 1.657063,1.64652 3.96344,2.46875 6.53125,2.46875 1.01981,0 2.00402,-0.10845 2.96875,-0.3125 0.95335,-0.20167 1.93069,-0.47439 2.875,-0.875 A 1.8202095,1.8202095 0 0 0 111.75,169.25 l 0,-2.15625 a 1.8202095,1.8202095 0 0 0 -1.25,-1.71875 1.8202095,1.8202095 0 0 0 1.78125,-1.8125 l 0,-1.125 c -2e-5,-2.37764 -0.65555,-4.51387 -2.09375,-6.09375 -1.43359,-1.59771 -3.5212,-2.40624 -5.78125,-2.40625 -2.46609,1e-5 -4.733617,0.87712 -6.3125,2.59375 -1.580053,1.71885 -2.281252,4.04011 -2.28125,6.625 0,0.49892 0.156014,0.92952 0.21875,1.40625 a 1.8202095,1.8202095 0 0 0 -2.46875,0 c -0.700369,0.65229 -1.38861,1.10788 -2.125,1.40625 -0.73875,0.30193 -1.504572,0.46875 -2.34375,0.46875 -1.73781,0 -2.714111,-0.44688 -3.46875,-1.3125 -0.753796,-0.87018 -1.250004,-2.25492 -1.25,-4.40625 -4e-6,-2.16051 0.50151,-3.54768 1.25,-4.40625 0.75253,-0.86872 1.726196,-1.31248 3.46875,-1.3125 0.839188,2e-5 1.604964,0.16683 2.34375,0.46875 0.736414,0.29839 1.424624,0.75397 2.125,1.40625 a 1.8202095,1.8202095 0 0 0 3.0625,-1.34375 l 0,-2.625 a 1.8202095,1.8202095 0 0 0 -0.78125,-1.5 c -0.996266,-0.68012 -2.092768,-1.21895 -3.25,-1.5625 -0.0095,-0.003 -0.02174,0.003 -0.03125,0 -1.126215,-0.3407 -2.341949,-0.53123 -3.625,-0.53125 z m 113.875,0.34375 a 1.8202095,1.8202095 0 0 0 -1.625,1.8125 l 0,2.09375 A 1.8202095,1.8202095 0 0 0 203,155.375 l 4.75,0 0,14.5625 a 1.8202095,1.8202095 0 0 0 1.8125,1.8125 l 2.5,0 a 1.8202095,1.8202095 0 0 0 1.8125,-1.8125 l 0,-6.59375 c 0.0417,2.47432 0.83133,4.70633 2.4375,6.3125 1.65706,1.64652 3.96344,2.46875 6.53125,2.46875 1.01981,0 2.02651,-0.1066 3,-0.3125 0.93982,-0.19881 1.87319,-0.46354 2.78125,-0.84375 a 1.8202095,1.8202095 0 0 0 1.5,0.78125 l 2.6875,0 a 1.8202095,1.8202095 0 0 0 1.46875,-0.71875 l 2.5625,-3.46875 2.5625,3.46875 A 1.8202095,1.8202095 0 0 0 240.875,171.75 l 2.6875,0 a 1.8202095,1.8202095 0 0 0 1.46875,-2.90625 l -4.4375,-6 2.96875,-4 a 1.8202095,1.8202095 0 0 0 1.375,0.8125 l 0,5.71875 c 0,1.96469 0.29155,3.65061 1.53125,4.875 a 1.8202095,1.8202095 0 0 0 0,0.0313 c 1.25688,1.22584 2.96153,1.46875 4.9375,1.46875 l 2.3125,0 a 1.8202095,1.8202095 0 0 0 1.8125,-1.8125 l 0,-1.90625 a 1.8202095,1.8202095 0 0 0 -1.8125,-1.8125 l -2.3125,0 c -0.23184,0 -0.30925,-0.0354 -0.4375,-0.0625 -0.048,-0.19139 -0.125,-0.40818 -0.125,-0.78125 l 0,-5.71875 2.875,0 a 1.8202095,1.8202095 0 0 0 1.8125,-1.8125 l 0,-1.75 a 1.8202095,1.8202095 0 0 0 -1.8125,-1.8125 l -2.875,0 0,-2.125 a 1.8202095,1.8202095 0 0 0 -1.8125,-1.8125 l -2.28125,0 a 1.8202095,1.8202095 0 0 0 -1.8125,1.8125 l 0,2.125 a 1.8202095,1.8202095 0 0 0 -0.71875,0.21875 1.8202095,1.8202095 0 0 0 -0.0313,0 1.8202095,1.8202095 0 0 0 -0.875,-0.21875 l -2.6875,0 A 1.8202095,1.8202095 0 0 0 239.15625,155 l -2.1875,2.96875 L 234.75,155 a 1.8202095,1.8202095 0 0 0 -1.46875,-0.71875 l -2.6875,0 a 1.8202095,1.8202095 0 0 0 -1.46875,2.90625 l 4.125,5.5 -3.46875,4.65625 0,-0.25 a 1.8202095,1.8202095 0 0 0 -1.21875,-1.71875 1.8202095,1.8202095 0 0 0 1.75,-1.8125 l 0,-1.125 c -1e-5,-2.37765 -0.65555,-4.51387 -2.09375,-6.09375 -1.42194,-1.58473 -3.48995,-2.40624 -5.75,-2.40625 -0.78104,0 -1.49369,0.23228 -2.21875,0.40625 a 1.8202095,1.8202095 0 0 0 0.1875,-0.78125 l 0,-2.09375 a 1.8202095,1.8202095 0 0 0 -1.8125,-1.8125 l -15.625,0 a 1.8202095,1.8202095 0 0 0 -0.1875,0 z m -72.75,0.6875 a 1.8202095,1.8202095 0 0 0 -1.625,1.8125 l 0,2.125 a 1.8202095,1.8202095 0 0 0 -1.65625,1.8125 l 0,1.71875 c -0.24716,-0.60539 -0.4597,-1.21955 -0.875,-1.71875 -1.18586,-1.43739 -3.05044,-2.15624 -5.03125,-2.15625 -1.16375,1e-5 -2.26226,0.27183 -3.25,0.78125 a 1.8202095,1.8202095 0 0 0 -1.21875,-0.4375 l -2.28125,0 a 1.8202095,1.8202095 0 0 0 -1.8125,1.8125 l 0,13.84375 a 1.8202095,1.8202095 0 0 0 1.8125,1.8125 l 2.28125,0 a 1.8202095,1.8202095 0 0 0 1.8125,-1.8125 l 0,-7.8125 c -1e-5,-1.03607 0.24225,-1.61171 0.59375,-2 0.36546,-0.4037 0.73213,-0.59374 1.5625,-0.59375 0.60962,1e-5 0.7227,0.11845 0.875,0.3125 0.1372,0.17482 0.37499,0.72166 0.375,1.8125 l 0,8.28125 a 1.8202095,1.8202095 0 0 0 1.8125,1.8125 l 2.28125,0 a 1.8202095,1.8202095 0 0 0 1.8125,-1.8125 l 0,-8.34375 c 0,-0.90544 -0.13481,-1.73261 -0.3125,-2.53125 a 1.8202095,1.8202095 0 0 0 1.21875,0.59375 l 0,5.71875 c 0,1.96469 0.29155,3.65061 1.53125,4.875 a 1.8202095,1.8202095 0 0 0 0,0.0313 c 1.23657,1.20603 2.93028,1.46875 4.90625,1.46875 l 2.34375,0 a 1.8202095,1.8202095 0 0 0 1.8125,-1.8125 l 0,-1.625 c 0.29342,0.44752 0.49269,0.96144 0.875,1.34375 1.65706,1.64652 3.96344,2.46875 6.53125,2.46875 1.01981,0 2.00402,-0.10845 2.96875,-0.3125 0.95335,-0.20167 1.93069,-0.47439 2.875,-0.875 A 1.8202095,1.8202095 0 0 0 153.375,169.25 l 0,-2.15625 a 1.8202095,1.8202095 0 0 0 -1.25,-1.71875 1.8202095,1.8202095 0 0 0 1.78125,-1.8125 l 0,-1.125 c -1e-5,-2.37765 -0.65555,-4.51387 -2.09375,-6.09375 -1.43359,-1.59771 -3.5212,-2.40624 -5.78125,-2.40625 -2.46609,1e-5 -4.73362,0.87712 -6.3125,2.59375 -0.30839,0.33547 -0.44405,0.77661 -0.6875,1.15625 l 0,-1.59375 a 1.8202095,1.8202095 0 0 0 -1.8125,-1.8125 l -2.875,0 0,-2.125 a 1.8202095,1.8202095 0 0 0 -1.8125,-1.8125 l -2.28125,0 a 1.8202095,1.8202095 0 0 0 -0.1875,0 z m 83.8125,5.03125 3.96875,0 c -0.58268,0.36177 -1.21465,0.64215 -1.6875,1.15625 -1.52271,1.65647 -2.2375,3.89844 -2.28125,6.40625 l 0,-7.5625 z m -27.3125,4.09375 c 0.72006,1e-5 0.9741,0.13388 1.375,0.6875 0.38703,0.52989 0.68749,1.44568 0.6875,2.875 -1e-5,1.42933 -0.291,2.32744 -0.6875,2.875 -0.40291,0.55161 -0.66325,0.6875 -1.375,0.6875 -0.71176,0 -1.01872,-0.15695 -1.40625,-0.6875 -0.38244,-0.53449 -0.65625,-1.429 -0.65625,-2.875 0,-1.44598 0.28329,-2.35824 0.65625,-2.875 0.38564,-0.53255 0.68618,-0.68749 1.40625,-0.6875 z m -82.125,0.0313 c 0.6907,1e-5 0.94521,0.15688 1.25,0.46875 l -2.6875,0 c 0.35325,-0.23537 0.69157,-0.46874 1.4375,-0.46875 z m 33.53125,0 c -0.37565,1.12152 -0.53125,2.36381 -0.53125,3.65625 0,1.14371 0.20124,2.21198 0.53125,3.21875 a 1.8202095,1.8202095 0 0 0 -0.75,-0.15625 l -2.34375,0 c -0.22523,0 -0.28675,-0.0404 -0.40625,-0.0625 -0.048,-0.19139 -0.125,-0.4082 -0.125,-0.78125 l 0,-5.71875 2.875,0 a 1.8202095,1.8202095 0 0 0 0.75,-0.15625 z m 33.59375,0 c 0.6907,1e-5 0.94521,0.15688 1.25,0.46875 l -2.6875,0 c 0.35325,-0.23537 0.69158,-0.46874 1.4375,-0.46875 z m 50.90625,0 c 0.69172,1e-5 0.9853,0.17015 1.28125,0.46875 l -2.6875,0 c 0.34862,-0.2374 0.66341,-0.46874 1.40625,-0.46875 z m -120.09375,5.875 6.96875,0 a 1.8202095,1.8202095 0 0 0 -0.25,0.125 c -0.68635,0.36418 -1.41305,0.63552 -2.09375,0.8125 -0.65175,0.17117 -1.32418,0.25 -2.0625,0.25 -1.17082,0 -1.78997,-0.28518 -2.25,-0.71875 -0.12191,-0.11952 -0.2104,-0.30517 -0.3125,-0.46875 z m 41.625,0 6.96875,0 a 1.8202095,1.8202095 0 0 0 -0.25,0.125 c -0.68637,0.36418 -1.41306,0.63552 -2.09375,0.8125 -0.65177,0.17117 -1.32419,0.25 -2.0625,0.25 -1.17083,0 -1.78995,-0.28516 -2.25,-0.71875 -0.12191,-0.11952 -0.2104,-0.30517 -0.3125,-0.46875 z m 25.5,0 6.9375,0 a 1.8202095,1.8202095 0 0 0 -0.25,0.125 c -0.7035,0.37328 -1.39264,0.63833 -2.0625,0.8125 -0.65177,0.17117 -1.32418,0.25 -2.0625,0.25 -1.17083,0 -1.78995,-0.28516 -2.25,-0.71875 -0.12124,-0.11886 -0.20968,-0.31093 -0.3125,-0.46875 z m 50.90625,0 6.96875,0 a 1.8202095,1.8202095 0 0 0 -0.25,0.125 c -0.7035,0.37328 -1.39264,0.63833 -2.0625,0.8125 -0.65177,0.17117 -1.32419,0.25 -2.0625,0.25 -1.17083,0 -1.83545,-0.29962 -2.28125,-0.71875 -0.12191,-0.11952 -0.2104,-0.30516 -0.3125,-0.46875 z"
     transform="matrix(1.4300628,0,0,1.4300628,-79.125874,-70.07453)" />
  <text
     xml:space="preserve"
     style="font-size:36.23802567px;font-style:normal;font-variant:normal;font-weight:normal;font-stretch:normal;text-align:start;line-height:125%;writing-mode:lr-tb;text-anchor:start;fill:#008000;fill-opacity:1;stroke:none;font-family:DejaVu Sans;-inkscape-font-specification:DejaVu Sans"
     x="33.137711"
     y="172.95845"
     id="text2383"
     sodipodi:linespacing="125%"><tspan
       sodipodi:role="line"
       id="tspan2987"
       x="33.137711"
       y="172.95845">Centered Text</tspan></text>
</svg>
