<?xml version="1.0" encoding="UTF-8" standalone="no"?>
<!-- Created with Inkscape (http://www.inkscape.org/) -->
<svg id="svg2" xmlns:rdf="http://www.w3.org/1999/02/22-rdf-syntax-ns#" xmlns="http://www.w3.org/2000/svg" xml:space="preserve" height="377.12" width="340" version="1.1" xmlns:cc="http://creativecommons.org/ns#" xmlns:xlink="http://www.w3.org/1999/xlink" xmlns:dc="http://purl.org/dc/elements/1.1/"><metadata id="metadata8"><rdf:RDF><cc:Work rdf:about=""><dc:format>image/svg+xml</dc:format><dc:type rdf:resource="http://purl.org/dc/dcmitype/StillImage"/><dc:title/></cc:Work></rdf:RDF></metadata><defs id="defs6"><linearGradient id="linearGradient5297"><stop id="stop5299" stop-color="#dbe0db" offset="0"/><stop id="stop5301" stop-color="#fdfdfd" offset="1"/></linearGradient><linearGradient id="linearGradient5854" y2="174.04" xlink:href="#linearGradient5297" gradientUnits="userSpaceOnUse" y1="326.22" gradientTransform="matrix(0.36783309,0,0,0.36783309,440.45075,-129.22368)" x2="1156.1" x1="1156.1"/><filter id="filter6643" color-interpolation-filters="sRGB"><feGaussianBlur id="feGaussianBlur6645" stdDeviation="1.019229"/></filter><linearGradient id="linearGradient3131" y2="295.22" gradientUnits="userSpaceOnUse" x2="1236" gradientTransform="matrix(0,1.2692683,-1.2692683,0,706.16061,-1274.4645)" y1="279.57" x1="1236"><stop id="stop5198-6" stop-color="#5bb55b" offset="0"/><stop id="stop5200-2" stop-color="#dce3dc" offset="1"/></linearGradient><linearGradient id="linearGradient7161" y2="174.04" xlink:href="#linearGradient5297" gradientUnits="userSpaceOnUse" x2="1156.1" gradientTransform="matrix(0.36783309,0,0,0.36783309,506.19117,-74.059876)" y1="326.22" x1="1156.1"/><linearGradient id="linearGradient7171" y2="174.04" xlink:href="#linearGradient5297" gradientUnits="userSpaceOnUse" x2="1156.1" gradientTransform="matrix(0.36783309,0,0,0.36783309,506.19117,-21.025266)" y1="326.22" x1="1156.1"/><linearGradient id="linearGradient7181" y2="174.04" xlink:href="#linearGradient5297" gradientUnits="userSpaceOnUse" x2="1156.1" gradientTransform="matrix(0.36783309,0,0,0.36783309,506.19117,32.009343)" y1="326.22" x1="1156.1"/><linearGradient id="linearGradient22877-6"><stop id="stop22879-7" stop-color="#abed5f" offset="0"/><stop id="stop22881-5" stop-color="#FFF" offset="1"/></linearGradient><linearGradient id="linearGradient8190" y2="543.59" xlink:href="#linearGradient22877-6" gradientUnits="userSpaceOnUse" y1="679.22" gradientTransform="matrix(0,0.442356,-0.442356,0,1116.8775,-548.00383)" x2="1374.1" x1="1139.2"/></defs><g id="g10" transform="matrix(1.25,0,0,-1.25,-963.45961,100.02434)"><path id="path3418" style="baseline-shift:baseline;block-progression:tb;color:#000000;direction:ltr;text-indent:0;text-align:start;enable-background:accumulate;text-transform:none;" fill="url(#linearGradient8190)" d="m814.43,28.271,0-141.03c0.0165-0.86698,0.48233-1.7028,1.1393-2.3662,0.65689-0.66336,1.5205-1.1612,2.41-1.1612h36.234v0.87636h-36.234c-0.53255,0-1.2388,0.35719-1.7746,0.89827-0.53582,0.54105-0.87636,1.2446-0.87636,1.7527v141.03z"/><path id="path8209" style="baseline-shift:baseline;block-progression:tb;color:#000000;direction:ltr;text-indent:0;text-align:start;enable-background:accumulate;text-transform:none;" d="m814.43,28.271,0-85.529c0.0165-0.86698,0.48233-1.7028,1.1393-2.3662,0.65689-0.66335,1.5206-1.1468,2.41-1.1612h36.234v0.87636h-36.234c-0.53255,0-1.2388,0.35719-1.7746,0.89827-0.53582,0.54105-0.87636,1.2447-0.87636,1.7527v85.529z" fill="url(#linearGradient8190)"/><path id="path8211" style="baseline-shift:baseline;block-progression:tb;color:#000000;direction:ltr;text-indent:0;text-align:start;enable-background:accumulate;text-transform:none;" fill="url(#linearGradient8190)" d="m814.43,28.271,0-32.092c0.0165-0.86698,0.48233-1.7028,1.1393-2.3662,0.65689-0.66335,1.5205-1.1612,2.41-1.1612h36.234v0.87636h-36.234c-0.53255,0-1.2388,0.35719-1.7746,0.89827-0.53582,0.54105-0.87636,1.2447-0.87636,1.7527v32.092z"/><g id="g3915" transform="matrix(0,0.73403038,-0.73403038,0,1024.729,-227.53558)"><path id="path5346-2" d="m348.37,285.9-9.6375,5.2024,0-10.161z" fill="url(#linearGradient3131)"/></g><rect id="rect5873" ry="3.3278" fill-rule="evenodd" fill-opacity="0.62857" rx="3.3278" transform="matrix(0.62527802,0,0,-0.62527802,774.20282,-116.15827)" height="61.351" filter="url(#filter6643)" width="278.59" y="-291.19" x="23.128" fill="#000"/><rect id="rect4330" transform="scale(1,-1)" fill-rule="evenodd" rx="2.0808" ry="2.0808" height="38.361" width="174.16" y="-66.414" x="788.66" fill="url(#linearGradient5854)"/><text id="text6705" style="writing-mode:lr-tb;letter-spacing:0px;text-anchor:start;word-spacing:0px;text-align:start;" font-weight="300" xml:space="preserve" transform="scale(1,-1)" font-style="normal" font-stretch="normal" font-size="18.00800514px" font-variant="normal" y="-41.483063" x="797.93939" font-family="Lato" line-height="125%" fill="#2a2a2a"><tspan id="tspan6707" x="797.93939" y="-41.483063">QAbstractItemView</tspan></text>
<rect id="rect7153" transform="matrix(0.62527802,0,0,-0.62527802,839.94325,-171.32207)" fill-rule="evenodd" fill-opacity="0.62857" rx="3.3278" ry="3.3278" height="61.351" filter="url(#filter6643)" width="171.24" y="-291.19" x="23.128" fill="#000"/><rect id="rect7155" ry="2.0808" fill-rule="evenodd" rx="2.0808" transform="scale(1,-1)" height="38.361" width="106.82" y="-11.25" x="854.4" fill="url(#linearGradient7161)"/><text id="text7157" style="writing-mode:lr-tb;letter-spacing:0px;text-anchor:start;word-spacing:0px;text-align:start;" font-weight="300" transform="scale(1,-1)" font-style="normal" line-height="125%" font-stretch="normal" xml:space="preserve" font-size="18.00800514px" font-variant="normal" y="13.680737" x="863.67987" font-family="Lato" fill="#2a2a2a"><tspan id="tspan7159" y="13.680737" x="863.67987">QListView</tspan></text>
<rect id="rect7163" ry="3.3278" fill-rule="evenodd" fill-opacity="0.62857" rx="3.3278" transform="matrix(0.62527802,0,0,-0.62527802,839.94325,-224.35668)" height="61.351" filter="url(#filter6643)" width="170.85" y="-291.19" x="23.128" fill="#000"/><rect id="rect7165" transform="scale(1,-1)" fill-rule="evenodd" rx="2.0808" ry="2.0808" height="38.361" width="106.82" y="41.785" x="854.4" fill="url(#linearGradient7171)"/><text id="text7167" style="writing-mode:lr-tb;letter-spacing:0px;text-anchor:start;word-spacing:0px;text-align:start;" font-weight="300" xml:space="preserve" transform="scale(1,-1)" font-style="normal" font-stretch="normal" font-size="18.00800514px" font-variant="normal" y="66.715347" x="863.67987" font-family="Lato" line-height="125%" fill="#2a2a2a"><tspan id="tspan7169" x="863.67987" y="66.715347">QTableView</tspan></text>
<rect id="rect7173" transform="matrix(0.62527802,0,0,-0.62527802,839.94325,-277.39129)" fill-rule="evenodd" fill-opacity="0.62857" rx="3.3278" ry="3.3278" height="61.351" filter="url(#filter6643)" width="170.84" y="-291.19" x="23.128" fill="#000"/><rect id="rect7175" ry="2.0808" fill-rule="evenodd" rx="2.0808" transform="scale(1,-1)" height="38.361" width="106.82" y="94.819" x="854.4" fill="url(#linearGradient7181)"/><text id="text7177" style="writing-mode:lr-tb;letter-spacing:0px;text-anchor:start;word-spacing:0px;text-align:start;" font-weight="300" transform="scale(1,-1)" font-style="normal" line-height="125%" font-stretch="normal" xml:space="preserve" font-size="18.00800514px" font-variant="normal" y="119.74995" x="863.67987" font-family="Lato" fill="#2a2a2a"><tspan id="tspan7179" y="119.74995" x="863.67987">QTreeView</tspan></text>
</g></svg>