<?xml version="1.0" encoding="UTF-8" standalone="no"?>
<!-- Created with Inkscape (http://www.inkscape.org/) -->

<svg
   xmlns:dc="http://purl.org/dc/elements/1.1/"
   xmlns:cc="http://creativecommons.org/ns#"
   xmlns:rdf="http://www.w3.org/1999/02/22-rdf-syntax-ns#"
   xmlns:svg="http://www.w3.org/2000/svg"
   xmlns="http://www.w3.org/2000/svg"
   xmlns:xlink="http://www.w3.org/1999/xlink"
   xmlns:inkscape="http://www.inkscape.org/namespaces/inkscape"
   version="1.1"
   width="743.74878"
   height="524.99878"
   id="svg2"
   xml:space="preserve"><metadata
     id="metadata8"><rdf:RDF><cc:Work
         rdf:about=""><dc:format>image/svg+xml</dc:format><dc:type
           rdf:resource="http://purl.org/dc/dcmitype/StillImage" /><dc:title></dc:title></cc:Work></rdf:RDF></metadata><defs
     id="defs6"><linearGradient
   x1="1236"
   y1="279.57001"
   x2="1236"
   y2="295.22"
   id="linearGradient4130"
   gradientUnits="userSpaceOnUse"
   gradientTransform="matrix(0,1.2692683,-1.2692683,0,706.16061,-1274.4645)"><stop
     id="stop4132"
     style="stop-color:#3b823b;stop-opacity:1"
     offset="0" /><stop
     id="stop4134"
     style="stop-color:#516551;stop-opacity:1"
     offset="1" /></linearGradient><linearGradient
   id="linearGradient3971"><stop
     id="stop3973"
     style="stop-color:#aeec6a;stop-opacity:1"
     offset="0" /><stop
     id="stop3975"
     style="stop-color:#e7f9d4;stop-opacity:1"
     offset="1" /></linearGradient><inkscape:path-effect
   effect="spiro"
   id="path-effect6316" /><linearGradient
   id="linearGradient6269"><stop
     id="stop6271"
     style="stop-color:#ffffff;stop-opacity:1"
     offset="0" /><stop
     id="stop6273"
     style="stop-color:#ffffff;stop-opacity:0"
     offset="1" /></linearGradient><inkscape:path-effect
   effect="spiro"
   id="path-effect6243" /><inkscape:path-effect
   effect="spiro"
   id="path-effect6239" /><linearGradient
   id="linearGradient4613"><stop
     id="stop4615"
     style="stop-color:#e3e3e3;stop-opacity:1"
     offset="0" /><stop
     id="stop4617"
     style="stop-color:#e3e3e3;stop-opacity:0"
     offset="1" /></linearGradient><linearGradient
   id="linearGradient4605"><stop
     id="stop4607"
     style="stop-color:#000000;stop-opacity:1"
     offset="0" /><stop
     id="stop4609"
     style="stop-color:#000000;stop-opacity:0"
     offset="1" /></linearGradient><inkscape:path-effect
   effect="spiro"
   id="path-effect4601" /><inkscape:path-effect
   effect="spiro"
   id="path-effect4550" /><inkscape:path-effect
   effect="spiro"
   id="path-effect4546" /><inkscape:path-effect
   effect="spiro"
   id="path-effect4540" /><inkscape:path-effect
   effect="spiro"
   id="path-effect4536" /><linearGradient
   id="linearGradient4341"><stop
     id="stop4343"
     style="stop-color:#aeec6a;stop-opacity:1"
     offset="0" /><stop
     id="stop4345"
     style="stop-color:#aeec6a;stop-opacity:0"
     offset="1" /></linearGradient><clipPath
   id="clipPath26"><path
     d="M 0,0 595,0 595,420 0,420 0,0 z"
     id="path28" /></clipPath><clipPath
   id="clipPath30"><path
     d="m 0,0.4 595.3,0 0,419.6 L 0,420 0,0.4 z"
     id="path32" /></clipPath><linearGradient
   x1="1139.2"
   y1="679.21997"
   x2="1374.1"
   y2="543.59003"
   id="linearGradient8190"
   xlink:href="#linearGradient22877-6"
   gradientUnits="userSpaceOnUse"
   gradientTransform="matrix(0,0.442356,-0.442356,0,1116.8775,-548.00383)" /><linearGradient
   id="linearGradient22877-6"><stop
     id="stop22879-7"
     style="stop-color:#abed5f;stop-opacity:1"
     offset="0" /><stop
     id="stop22881-5"
     style="stop-color:#ffffff;stop-opacity:1"
     offset="1" /></linearGradient><linearGradient
   x1="1139.2"
   y1="679.21997"
   x2="1374.1"
   y2="543.59003"
   id="linearGradient3356"
   xlink:href="#linearGradient22877-6"
   gradientUnits="userSpaceOnUse"
   gradientTransform="matrix(0,0.442356,-0.442356,0,1116.8775,-548.00383)" /><linearGradient
   id="linearGradient3358"><stop
     id="stop3360"
     style="stop-color:#abed5f;stop-opacity:1"
     offset="0" /><stop
     id="stop3362"
     style="stop-color:#ffffff;stop-opacity:1"
     offset="1" /></linearGradient><linearGradient
   x1="1139.2"
   y1="679.21997"
   x2="1374.1"
   y2="543.59003"
   id="linearGradient3364"
   xlink:href="#linearGradient22877-6"
   gradientUnits="userSpaceOnUse"
   gradientTransform="matrix(0,0.442356,-0.442356,0,1116.8775,-548.00383)" /><linearGradient
   id="linearGradient3366"><stop
     id="stop3368"
     style="stop-color:#abed5f;stop-opacity:1"
     offset="0" /><stop
     id="stop3370"
     style="stop-color:#ffffff;stop-opacity:1"
     offset="1" /></linearGradient><linearGradient
   x1="1236"
   y1="279.57001"
   x2="1236"
   y2="295.22"
   id="linearGradient3131"
   gradientUnits="userSpaceOnUse"
   gradientTransform="matrix(0,1.2692683,-1.2692683,0,706.16061,-1274.4645)"><stop
     id="stop5198-6"
     style="stop-color:#3b823b;stop-opacity:1"
     offset="0" /><stop
     id="stop5200-2"
     style="stop-color:#516551;stop-opacity:1"
     offset="1" /></linearGradient><filter
   color-interpolation-filters="sRGB"
   id="filter6643"><feGaussianBlur
     id="feGaussianBlur6645"
     stdDeviation="1.019229" /></filter><linearGradient
   x1="1156.1"
   y1="326.22"
   x2="1156.1"
   y2="174.03999"
   id="linearGradient5854"
   xlink:href="#linearGradient5297"
   gradientUnits="userSpaceOnUse"
   gradientTransform="matrix(0.36783309,0,0,0.36783309,440.45075,-129.22368)" /><linearGradient
   id="linearGradient5297"><stop
     id="stop5299"
     style="stop-color:#dbe0db;stop-opacity:1"
     offset="0" /><stop
     id="stop5301"
     style="stop-color:#fdfdfd;stop-opacity:1"
     offset="1" /></linearGradient><filter
   color-interpolation-filters="sRGB"
   id="filter3381"><feGaussianBlur
     id="feGaussianBlur3383"
     stdDeviation="1.019229" /></filter><linearGradient
   x1="1156.1"
   y1="326.22"
   x2="1156.1"
   y2="174.03999"
   id="linearGradient7161"
   xlink:href="#linearGradient5297"
   gradientUnits="userSpaceOnUse"
   gradientTransform="matrix(0.36783309,0,0,0.36783309,506.19117,-74.059876)" /><linearGradient
   id="linearGradient3386"><stop
     id="stop3388"
     style="stop-color:#dbe0db;stop-opacity:1"
     offset="0" /><stop
     id="stop3390"
     style="stop-color:#fdfdfd;stop-opacity:1"
     offset="1" /></linearGradient><filter
   color-interpolation-filters="sRGB"
   id="filter3392"><feGaussianBlur
     id="feGaussianBlur3394"
     stdDeviation="1.019229" /></filter><linearGradient
   x1="1156.1"
   y1="326.22"
   x2="1156.1"
   y2="174.03999"
   id="linearGradient7171"
   xlink:href="#linearGradient5297"
   gradientUnits="userSpaceOnUse"
   gradientTransform="matrix(0.36783309,0,0,0.36783309,506.19117,-21.025266)" /><linearGradient
   id="linearGradient3397"><stop
     id="stop3399"
     style="stop-color:#dbe0db;stop-opacity:1"
     offset="0" /><stop
     id="stop3401"
     style="stop-color:#fdfdfd;stop-opacity:1"
     offset="1" /></linearGradient><filter
   color-interpolation-filters="sRGB"
   id="filter3403"><feGaussianBlur
     id="feGaussianBlur3405"
     stdDeviation="1.019229" /></filter><linearGradient
   x1="1156.1"
   y1="326.22"
   x2="1156.1"
   y2="174.03999"
   id="linearGradient7181"
   xlink:href="#linearGradient5297"
   gradientUnits="userSpaceOnUse"
   gradientTransform="matrix(0.36783309,0,0,0.36783309,506.19117,32.009343)" /><linearGradient
   id="linearGradient3408"><stop
     id="stop3410"
     style="stop-color:#dbe0db;stop-opacity:1"
     offset="0" /><stop
     id="stop3412"
     style="stop-color:#fdfdfd;stop-opacity:1"
     offset="1" /></linearGradient><linearGradient
   x1="-690.49017"
   y1="283.17819"
   x2="-690.49017"
   y2="275.26657"
   id="linearGradient4347"
   xlink:href="#linearGradient3397"
   gradientUnits="userSpaceOnUse"
   gradientTransform="matrix(0.8,0,0,0.8,673.713,-404.879)" /><linearGradient
   x1="-687.96765"
   y1="277.90378"
   x2="-687.96765"
   y2="288.34802"
   id="linearGradient4364"
   xlink:href="#linearGradient3131"
   gradientUnits="userSpaceOnUse"
   gradientTransform="matrix(0.8,0,0,-0.8,0.113,403.53469)" /><filter
   x="-0.017381443"
   y="-0.21323796"
   width="1.0347629"
   height="1.4264759"
   color-interpolation-filters="sRGB"
   id="filter4378"><feGaussianBlur
     stdDeviation="0.70412946"
     id="feGaussianBlur4380" /></filter><clipPath
   id="clipPath4382"><rect
     width="93.930511"
     height="4.5864511"
     rx="2.2932255"
     ry="2.2932255"
     x="-591.35571"
     y="-182.07034"
     transform="scale(1,-1)"
     id="rect4384"
     style="fill:url(#linearGradient4386);fill-opacity:1;fill-rule:evenodd;stroke:none" /></clipPath><linearGradient
   x1="-690.49017"
   y1="283.17819"
   x2="-690.49017"
   y2="275.26657"
   id="linearGradient4386"
   xlink:href="#linearGradient4341"
   gradientUnits="userSpaceOnUse"
   gradientTransform="matrix(0.8,0,0,0.8,0.113,-403.93469)" /><linearGradient
   x1="-690.73865"
   y1="298.75339"
   x2="-690.73865"
   y2="264.88931"
   id="linearGradient4396"
   xlink:href="#linearGradient3397"
   gradientUnits="userSpaceOnUse" /><linearGradient
   x1="-690.49017"
   y1="283.17819"
   x2="-690.49017"
   y2="275.26657"
   id="linearGradient4456"
   xlink:href="#linearGradient3397"
   gradientUnits="userSpaceOnUse"
   gradientTransform="translate(0,17.25)" /><linearGradient
   x1="-690.49017"
   y1="283.17819"
   x2="-690.49017"
   y2="275.26657"
   id="linearGradient4460"
   xlink:href="#linearGradient3397"
   gradientUnits="userSpaceOnUse"
   gradientTransform="matrix(0.8,0,0,0.8,0.113,-405.479)" /><linearGradient
   x1="-690.49017"
   y1="283.17819"
   x2="-690.49017"
   y2="275.26657"
   id="linearGradient4475"
   xlink:href="#linearGradient3397"
   gradientUnits="userSpaceOnUse"
   gradientTransform="translate(2.99125e-5,33.000013)" /><linearGradient
   x1="-690.49017"
   y1="283.17819"
   x2="-690.49017"
   y2="275.26657"
   id="linearGradient4479"
   xlink:href="#linearGradient3397"
   gradientUnits="userSpaceOnUse"
   gradientTransform="matrix(0.8,0,0,0.8,0.11302393,-392.87899)" /><linearGradient
   x1="-690.73865"
   y1="279.44223"
   x2="-690.73865"
   y2="264.88931"
   id="linearGradient4495"
   xlink:href="#linearGradient3397"
   gradientUnits="userSpaceOnUse" /><filter
   x="-0.33214286"
   y="-0.33214286"
   width="1.6642857"
   height="1.6642857"
   color-interpolation-filters="sRGB"
   id="filter4497"><feGaussianBlur
     stdDeviation="2.6480576"
     id="feGaussianBlur4499" /></filter><filter
   x="-0.165866"
   y="-0.098011151"
   width="1.331732"
   height="1.1960223"
   color-interpolation-filters="sRGB"
   id="filter4526"><feGaussianBlur
     stdDeviation="0.5784156"
     id="feGaussianBlur4528" /></filter><linearGradient
   x1="1236"
   y1="279.57001"
   x2="1236"
   y2="295.22"
   id="linearGradient4555"
   xlink:href="#linearGradient3131"
   gradientUnits="userSpaceOnUse"
   gradientTransform="matrix(0,1.2692683,-1.2692683,0,706.16061,-1274.4645)" /><linearGradient
   x1="1156.1"
   y1="212.76271"
   x2="1156.1"
   y2="174.03999"
   id="linearGradient4558"
   xlink:href="#linearGradient5297"
   gradientUnits="userSpaceOnUse"
   gradientTransform="matrix(0.45707488,0,0,0.45707488,53.82349,-268.52847)" /><linearGradient
   x1="1156.1"
   y1="317.77832"
   x2="1156.1"
   y2="174.03999"
   id="linearGradient4561"
   xlink:href="#linearGradient5297"
   gradientUnits="userSpaceOnUse"
   gradientTransform="matrix(0.45707488,0,0,0.45707488,53.82349,-268.52847)" /><linearGradient
   x1="1156.1"
   y1="396.93283"
   x2="1156.1"
   y2="174.03999"
   id="linearGradient4567"
   xlink:href="#linearGradient5297"
   gradientUnits="userSpaceOnUse"
   gradientTransform="matrix(0.45707488,0,0,0.45707488,-131.81428,-460.31483)" /><linearGradient
   x1="1139.2"
   y1="679.21997"
   x2="1374.1"
   y2="543.59003"
   id="linearGradient4597"
   xlink:href="#linearGradient22877-6"
   gradientUnits="userSpaceOnUse"
   gradientTransform="matrix(0,0.54967816,0.54967816,0,-79.903024,-418.816)" /><linearGradient
   x1="466.96298"
   y1="230.38087"
   x2="466.96298"
   y2="177.89748"
   id="linearGradient4611"
   xlink:href="#linearGradient4605"
   gradientUnits="userSpaceOnUse"
   gradientTransform="translate(8.8,-8.8)" /><linearGradient
   x1="466.65143"
   y1="-164.21875"
   x2="466.65143"
   y2="-193.97227"
   id="linearGradient4619"
   xlink:href="#linearGradient4613"
   gradientUnits="userSpaceOnUse"
   gradientTransform="translate(8.8,8.8)" /><linearGradient
   x1="1156.1"
   y1="396.93283"
   x2="1156.1"
   y2="174.03999"
   id="linearGradient5735"
   xlink:href="#linearGradient5297"
   gradientUnits="userSpaceOnUse"
   gradientTransform="matrix(0.45707488,0,0,0.45707488,-423.01428,-460.31483)" /><linearGradient
   x1="1156.1"
   y1="280.62521"
   x2="1156.1"
   y2="174.03999"
   id="linearGradient6235"
   xlink:href="#linearGradient5297"
   gradientUnits="userSpaceOnUse"
   gradientTransform="matrix(0.45707488,0,0,0.45707488,-360.0489,-179.59459)" /><linearGradient
   x1="242.53125"
   y1="275.6875"
   x2="288.31781"
   y2="329.58328"
   id="linearGradient6291"
   xlink:href="#linearGradient4341"
   gradientUnits="userSpaceOnUse" /><filter
   color-interpolation-filters="sRGB"
   id="filter6306"><feGaussianBlur
     stdDeviation="1.0587681"
     id="feGaussianBlur6308" /></filter><linearGradient
   x1="288.31781"
   y1="284.16391"
   x2="288.31781"
   y2="329.58328"
   id="linearGradient6310"
   xlink:href="#linearGradient4341"
   gradientUnits="userSpaceOnUse"
   gradientTransform="matrix(0.8,0,0,-0.8,0.913,411.279)" /><linearGradient
   x1="296.56781"
   y1="258.60715"
   x2="296.56781"
   y2="294.15073"
   id="linearGradient6340"
   xlink:href="#linearGradient6269"
   gradientUnits="userSpaceOnUse" /><linearGradient
   x1="242.53125"
   y1="275.6875"
   x2="288.31781"
   y2="329.58328"
   id="linearGradient6350"
   xlink:href="#linearGradient4341"
   gradientUnits="userSpaceOnUse" /><linearGradient
   x1="288.31781"
   y1="284.16391"
   x2="288.31781"
   y2="329.58328"
   id="linearGradient6352"
   xlink:href="#linearGradient4341"
   gradientUnits="userSpaceOnUse"
   gradientTransform="matrix(0.8,0,0,-0.8,186.113,411.279)" /><linearGradient
   x1="296.56781"
   y1="258.60715"
   x2="296.56781"
   y2="294.15073"
   id="linearGradient6354"
   xlink:href="#linearGradient6269"
   gradientUnits="userSpaceOnUse" /><linearGradient
   x1="1332.7468"
   y1="38.223064"
   x2="1332.7468"
   y2="396.57413"
   id="linearGradient6358"
   xlink:href="#linearGradient4341"
   gradientUnits="userSpaceOnUse"
   gradientTransform="matrix(0.12907106,0,0,0.12907106,141.94359,-215.58268)" /><linearGradient
   x1="1332.7468"
   y1="21.841125"
   x2="1332.7468"
   y2="244.29805"
   id="linearGradient6371"
   xlink:href="#linearGradient6269"
   gradientUnits="userSpaceOnUse"
   gradientTransform="matrix(0.12907106,0,0,-0.12907106,142.74359,206.78268)" /><filter
   color-interpolation-filters="sRGB"
   id="filter6375"><feGaussianBlur
     stdDeviation="0.3613503"
     id="feGaussianBlur6377" /></filter><clipPath
   id="clipPath6395"><path
     d="m 275.088,201.304 c -5.59514,0 -10.10384,-4.35027 -10.375,-9.875 l 84.825,0 c -0.27116,5.52473 -4.77986,9.875 -10.375,9.875 l -64.075,0 z"
     id="path6397"
     style="fill:url(#linearGradient6399);fill-opacity:1;fill-rule:evenodd" /></clipPath><linearGradient
   x1="1332.7468"
   y1="21.841125"
   x2="1332.7468"
   y2="244.29805"
   id="linearGradient6399"
   xlink:href="#linearGradient6269"
   gradientUnits="userSpaceOnUse"
   gradientTransform="matrix(0.12907106,0,0,-0.12907106,141.94359,215.58268)" /><linearGradient
   x1="1332.7468"
   y1="176.9812"
   x2="1332.7468"
   y2="396.57413"
   id="linearGradient6401"
   xlink:href="#linearGradient3971"
   gradientUnits="userSpaceOnUse"
   gradientTransform="matrix(0.12907106,0,0,0.12907106,142.74359,-206.78268)" /><linearGradient
   x1="1139.2"
   y1="679.21997"
   x2="1374.1"
   y2="543.59003"
   id="linearGradient6406"
   xlink:href="#linearGradient22877-6"
   gradientUnits="userSpaceOnUse"
   gradientTransform="matrix(0,0.54967816,-0.54967816,0,773.33827,-437.729)" /><linearGradient
   x1="1139.2"
   y1="679.21997"
   x2="1374.1"
   y2="543.59003"
   id="linearGradient6414"
   xlink:href="#linearGradient22877-6"
   gradientUnits="userSpaceOnUse"
   gradientTransform="matrix(0,0.54967816,-0.54967816,0,586.93827,-437.729)" /><linearGradient
   x1="1236"
   y1="279.57001"
   x2="1236"
   y2="295.22"
   id="linearGradient6416"
   xlink:href="#linearGradient3131"
   gradientUnits="userSpaceOnUse"
   gradientTransform="matrix(0,1.2692683,-1.2692683,0,706.16061,-1274.4645)" /><linearGradient
   x1="1139.2"
   y1="679.21997"
   x2="1374.1"
   y2="543.59003"
   id="linearGradient6424"
   xlink:href="#linearGradient22877-6"
   gradientUnits="userSpaceOnUse"
   gradientTransform="matrix(0,-0.54967816,-0.54967816,0,695.33221,801.93394)" /><linearGradient
   x1="1236"
   y1="279.57001"
   x2="1236"
   y2="295.22"
   id="linearGradient6441"
   xlink:href="#linearGradient3131"
   gradientUnits="userSpaceOnUse"
   gradientTransform="matrix(-0.74796398,0,0,-0.74796398,1214.7158,380.01826)" /><linearGradient
   x1="1236"
   y1="279.57001"
   x2="1236"
   y2="295.22"
   id="linearGradient6444"
   xlink:href="#linearGradient3131"
   gradientUnits="userSpaceOnUse"
   gradientTransform="matrix(-0.74796398,0,0,-0.74796398,1239.6822,380.01826)" /><linearGradient
   x1="1139.2"
   y1="679.21997"
   x2="1374.1"
   y2="543.59003"
   id="linearGradient6454"
   xlink:href="#linearGradient22877-6"
   gradientUnits="userSpaceOnUse"
   gradientTransform="matrix(0,0.54967816,0.54967816,0,-163.90302,-418.816)" /><linearGradient
   x1="1236"
   y1="279.57001"
   x2="1236"
   y2="295.22"
   id="linearGradient6456"
   xlink:href="#linearGradient3131"
   gradientUnits="userSpaceOnUse"
   gradientTransform="matrix(-0.74796398,0,0,-0.74796398,1130.7158,380.01826)" /><linearGradient
   x1="1139.2"
   y1="679.21997"
   x2="1374.1"
   y2="543.59003"
   id="linearGradient6466"
   xlink:href="#linearGradient22877-6"
   gradientUnits="userSpaceOnUse"
   gradientTransform="matrix(0,0.54967816,-0.54967816,0,774.29453,-418.816)" /><linearGradient
   x1="1236"
   y1="279.57001"
   x2="1236"
   y2="295.22"
   id="linearGradient6468"
   xlink:href="#linearGradient3131"
   gradientUnits="userSpaceOnUse"
   gradientTransform="matrix(-0.74796398,0,0,-0.74796398,1318.7158,380.01826)" /><linearGradient
   x1="434.43442"
   y1="296.09335"
   x2="416.44482"
   y2="281.67285"
   id="linearGradient3969"
   xlink:href="#linearGradient4130"
   gradientUnits="userSpaceOnUse" />

















<linearGradient
   x1="1236"
   y1="279.57001"
   x2="1236"
   y2="295.22"
   id="linearGradient3984"
   xlink:href="#linearGradient3131"
   gradientUnits="userSpaceOnUse"
   gradientTransform="matrix(-0.93495497,0,0,0.93495497,1648.2535,50.075925)" /><linearGradient
   x1="1139.2"
   y1="679.21997"
   x2="1374.1"
   y2="543.59003"
   id="linearGradient3987"
   xlink:href="#linearGradient22877-6"
   gradientUnits="userSpaceOnUse"
   gradientTransform="matrix(0,-0.6870977,-0.6870977,0,967.72691,1048.6188)" /><linearGradient
   x1="1236"
   y1="279.57001"
   x2="1236"
   y2="295.22"
   id="linearGradient3992"
   xlink:href="#linearGradient3131"
   gradientUnits="userSpaceOnUse"
   gradientTransform="matrix(-0.93495497,0,0,0.93495497,1413.2535,50.075925)" /><linearGradient
   x1="1139.2"
   y1="679.21997"
   x2="1374.1"
   y2="543.59003"
   id="linearGradient3995"
   xlink:href="#linearGradient22877-6"
   gradientUnits="userSpaceOnUse"
   gradientTransform="matrix(0,-0.6870977,0.6870977,0,-205.02002,1048.6188)" /><linearGradient
   x1="1332.7468"
   y1="21.841125"
   x2="1332.7468"
   y2="244.29805"
   id="linearGradient4005"
   xlink:href="#linearGradient6269"
   gradientUnits="userSpaceOnUse"
   gradientTransform="matrix(0.16133882,0,0,0.16133882,170.28824,266.6204)" /><linearGradient
   x1="1332.7468"
   y1="176.9812"
   x2="1332.7468"
   y2="396.57413"
   id="linearGradient4008"
   xlink:href="#linearGradient3971"
   gradientUnits="userSpaceOnUse"
   gradientTransform="matrix(0.16133882,0,0,0.16133882,170.28824,266.6204)" /><linearGradient
   x1="296.56781"
   y1="258.60715"
   x2="296.56781"
   y2="294.15073"
   id="linearGradient4012"
   xlink:href="#linearGradient6269"
   gradientUnits="userSpaceOnUse"
   gradientTransform="translate(232.5,11)" /><linearGradient
   x1="288.31781"
   y1="284.16391"
   x2="288.31781"
   y2="329.58328"
   id="linearGradient4015"
   xlink:href="#linearGradient4341"
   gradientUnits="userSpaceOnUse"
   gradientTransform="translate(232.5,11)" /><linearGradient
   x1="242.53125"
   y1="275.6875"
   x2="288.31781"
   y2="329.58328"
   id="linearGradient4018"
   xlink:href="#linearGradient4341"
   gradientUnits="userSpaceOnUse"
   gradientTransform="translate(232.5,11)" /><linearGradient
   x1="296.56781"
   y1="258.60715"
   x2="296.56781"
   y2="294.15073"
   id="linearGradient4022"
   xlink:href="#linearGradient6269"
   gradientUnits="userSpaceOnUse"
   gradientTransform="translate(1,11)" /><linearGradient
   x1="288.31781"
   y1="284.16391"
   x2="288.31781"
   y2="329.58328"
   id="linearGradient4025"
   xlink:href="#linearGradient4341"
   gradientUnits="userSpaceOnUse"
   gradientTransform="translate(1,11)" /><linearGradient
   x1="242.53125"
   y1="275.6875"
   x2="288.31781"
   y2="329.58328"
   id="linearGradient4028"
   xlink:href="#linearGradient4341"
   gradientUnits="userSpaceOnUse"
   gradientTransform="translate(1,11)" /><linearGradient
   x1="1156.1"
   y1="280.62521"
   x2="1156.1"
   y2="174.03999"
   id="linearGradient4035"
   xlink:href="#linearGradient5297"
   gradientUnits="userSpaceOnUse"
   gradientTransform="matrix(0.5713436,0,0,0.5713436,-450.20238,300.60551)" /><linearGradient
   x1="1156.1"
   y1="396.93283"
   x2="1156.1"
   y2="174.03999"
   id="linearGradient4050"
   xlink:href="#linearGradient5297"
   gradientUnits="userSpaceOnUse"
   gradientTransform="matrix(0.5713436,0,0,0.5713436,-528.9091,-50.294787)" /><linearGradient
   x1="466.96298"
   y1="230.38087"
   x2="466.96298"
   y2="177.89748"
   id="linearGradient4072"
   xlink:href="#linearGradient4605"
   gradientUnits="userSpaceOnUse"
   gradientTransform="matrix(1.25,0,0,-1.25,10.85875,536.09875)" /><linearGradient
   x1="466.65143"
   y1="-164.21875"
   x2="466.65143"
   y2="-193.97227"
   id="linearGradient4075"
   xlink:href="#linearGradient4613"
   gradientUnits="userSpaceOnUse"
   gradientTransform="matrix(1.25,0,0,1.25,10.85875,536.09875)" /><linearGradient
   x1="-690.73865"
   y1="279.44223"
   x2="-690.73865"
   y2="264.88931"
   id="linearGradient4078"
   xlink:href="#linearGradient3397"
   gradientUnits="userSpaceOnUse"
   gradientTransform="matrix(0.62305496,0,0,0.62305496,578.34839,129.40596)" /><linearGradient
   x1="-690.73865"
   y1="298.75339"
   x2="-690.73865"
   y2="264.88931"
   id="linearGradient4081"
   xlink:href="#linearGradient3397"
   gradientUnits="userSpaceOnUse"
   gradientTransform="matrix(0.69491525,0,0,0.69491525,628.02318,109.90398)" /><linearGradient
   x1="-690.49017"
   y1="283.17819"
   x2="-690.49017"
   y2="275.26657"
   id="linearGradient4087"
   xlink:href="#linearGradient3397"
   gradientUnits="userSpaceOnUse"
   gradientTransform="translate(842,19)" /><linearGradient
   x1="1156.1"
   y1="212.76271"
   x2="1156.1"
   y2="174.03999"
   id="linearGradient4090"
   xlink:href="#linearGradient5297"
   gradientUnits="userSpaceOnUse"
   gradientTransform="matrix(0.5713436,0,0,0.5713436,67.138113,189.43816)" /><linearGradient
   x1="1156.1"
   y1="317.77832"
   x2="1156.1"
   y2="174.03999"
   id="linearGradient4093"
   xlink:href="#linearGradient5297"
   gradientUnits="userSpaceOnUse"
   gradientTransform="matrix(0.5713436,0,0,0.5713436,67.138113,189.43816)" /><linearGradient
   x1="1156.1"
   y1="396.93283"
   x2="1156.1"
   y2="174.03999"
   id="linearGradient4097"
   xlink:href="#linearGradient5297"
   gradientUnits="userSpaceOnUse"
   gradientTransform="matrix(0.5713436,0,0,0.5713436,-164.9091,-50.294787)" /><linearGradient
   x1="1139.2"
   y1="679.21997"
   x2="1374.1"
   y2="543.59003"
   id="linearGradient4104"
   xlink:href="#linearGradient22877-6"
   gradientUnits="userSpaceOnUse"
   gradientTransform="matrix(0,-0.6870977,-0.6870977,0,966.53159,1072.26)" /><linearGradient
   x1="1139.2"
   y1="679.21997"
   x2="1374.1"
   y2="543.59003"
   id="linearGradient4110"
   xlink:href="#linearGradient22877-6"
   gradientUnits="userSpaceOnUse"
   gradientTransform="matrix(0,-0.6870977,-0.6870977,0,733.53159,1072.26)" /><linearGradient
   x1="1236"
   y1="279.57001"
   x2="1236"
   y2="295.22"
   id="linearGradient4113"
   xlink:href="#linearGradient3131"
   gradientUnits="userSpaceOnUse"
   gradientTransform="matrix(-0.93495497,0,0,0.93495497,1518.2535,50.075925)" /><linearGradient
   x1="1236"
   y1="279.57001"
   x2="1236"
   y2="295.22"
   id="linearGradient4116"
   xlink:href="#linearGradient3131"
   gradientUnits="userSpaceOnUse"
   gradientTransform="matrix(-0.93495497,0,0,0.93495497,1549.4615,50.075925)" /><linearGradient
   x1="1139.2"
   y1="679.21997"
   x2="1374.1"
   y2="543.59003"
   id="linearGradient4119"
   xlink:href="#linearGradient22877-6"
   gradientUnits="userSpaceOnUse"
   gradientTransform="matrix(0,0.6870977,-0.6870977,0,869.02401,-477.31867)" /><linearGradient
   x1="1139.2"
   y1="679.21997"
   x2="1374.1"
   y2="543.59003"
   id="linearGradient4122"
   xlink:href="#linearGradient22877-6"
   gradientUnits="userSpaceOnUse"
   gradientTransform="matrix(0,-0.6870977,0.6870977,0,-100.02003,1048.6188)" /><linearGradient
   x1="1332.7468"
   y1="38.223064"
   x2="1332.7468"
   y2="396.57413"
   id="linearGradient4124"
   xlink:href="#linearGradient4341"
   gradientUnits="userSpaceOnUse"
   gradientTransform="matrix(0.12907106,0,0,0.12907106,141.94359,-215.58268)" /><radialGradient
   cx="436.02948"
   cy="308.14368"
   r="12.771896"
   fx="436.02948"
   fy="308.14368"
   id="radialGradient4144"
   xlink:href="#linearGradient4341"
   gradientUnits="userSpaceOnUse"
   gradientTransform="matrix(0.03740306,-0.54130833,6.6504671,0.29527945,-1594.4568,447.48048)" /></defs><rect
     width="8.3693914"
     height="16.095034"
     rx="2.0808001"
     ry="2.0808001"
     x="853.94525"
     y="313.77594"
     transform="matrix(1.5532686,0,0,1.5532686,-712.00638,-200.67952)"
     id="rect4524"
     style="fill:#000000;fill-opacity:0.54285715;fill-rule:evenodd;filter:url(#filter4526)" /><rect
     width="12.000016"
     height="24.000023"
     rx="3.2320414"
     ry="3.2320414"
     x="614.99945"
     y="286.99878"
     id="rect4520"
     style="fill:url(#linearGradient4093);fill-rule:evenodd" /><rect
     width="10.000024"
     height="21.999981"
     rx="1.9999893"
     ry="1.9999893"
     x="615.99945"
     y="287.99884"
     id="rect4530"
     style="fill:url(#linearGradient4090);fill-rule:evenodd" /><rect
     width="119"
     height="8"
     rx="4"
     ry="4"
     x="102.00001"
     y="294.99884"
     id="rect3571"
     style="fill:url(#linearGradient4087);fill-opacity:1;fill-rule:evenodd;stroke:none" /><path
     d="m -681.70181,271.38754 a 9.5671759,9.5671759 0 1 1 -19.13435,0 9.5671759,9.5671759 0 1 1 19.13435,0 z"
     transform="matrix(0.60463263,0,0,0.60463263,565.6136,134.70555)"
     id="path4398"
     style="opacity:0.75;fill:#000000;fill-opacity:1;fill-rule:evenodd;stroke:#000000;stroke-opacity:1;filter:url(#filter4497)" /><path
     d="m 106,294.99877 c -2.216,0 -4,1.78401 -4,4 0,0.92933 0.31596,1.7911 0.84375,2.46875 -0.18535,-0.46021 -0.28125,-0.94095 -0.28125,-1.46875 0,-2.20835 1.784,-4 4,-4 l 110.03125,0 c 2.216,0 4,1.79165 4,4 0,0.38073 -0.0884,0.71428 -0.1875,1.0625 0.36237,-0.60222 0.59375,-1.3056 0.59375,-2.0625 0,-2.216 -1.784,-4 -4,-4 l -111,0 z"
     id="rect4473"
     style="fill:#000000;fill-opacity:0.36571428;fill-rule:evenodd;stroke:none" /><path
     d="m 106.5625,296 c -2.216,0 -4,1.79165 -4,4 0,0.5278 0.0959,1.00854 0.28125,1.46875 0.0365,0.0469 0.0865,0.0799 0.125,0.125 0.0716,0.0846 0.14052,0.17169 0.21875,0.25 0.0634,0.0625 0.12012,0.1293 0.1875,0.1875 0.10575,0.0928 0.22857,0.16887 0.34375,0.25 0.0236,0.0164 0.0385,0.0466 0.0625,0.0625 0.39929,0.26866 0.85756,0.42202 1.34375,0.53125 0.0228,0.005 0.0395,0.0266 0.0625,0.0313 0.01,0.002 0.0216,-0.002 0.0313,0 C 105.47039,302.9555 105.73351,303 106,303 l 111,0 c 0.277,0 0.55164,-0.0406 0.8125,-0.0937 0.26086,-0.0531 0.51056,-0.11788 0.75,-0.21875 0.0298,-0.0125 0.0644,-0.018 0.0937,-0.0313 0.3331,-0.15221 0.63057,-0.35941 0.90625,-0.59375 0.33202,-0.28225 0.61717,-0.62291 0.84375,-1 0.005,-0.0194 -0.005,-0.0431 0,-0.0625 0.0923,-0.32745 0.1875,-0.6405 0.1875,-1 0,-2.20835 -1.784,-4 -4,-4 l -110.03125,0 z m 0,1 110.03125,0 c 1.68637,0 3.12857,1.03079 3.71875,2.5 -0.59018,1.46921 -2.03238,2.5 -3.71875,2.5 l -110.03125,0 c -1.68637,0 -3.12857,-1.03079 -3.71875,-2.5 0.59018,-1.46921 2.03238,-2.5 3.71875,-2.5 z"
     id="path4482"
     style="fill:#000000;fill-opacity:0.12000002;fill-rule:evenodd;stroke:none" /><path
     d="m 154.2982,298.49532 a 6.64838,6.64838 0 1 1 -13.29676,0 6.64838,6.64838 0 1 1 13.29676,0 z"
     id="path4388"
     style="fill:url(#linearGradient4081);fill-opacity:1;fill-rule:evenodd;stroke:none" /><path
     d="m 153.6107,298.49531 a 5.96088,5.96088 0 1 1 -11.92176,0 5.96088,5.96088 0 1 1 11.92176,0 z"
     id="path4493"
     style="fill:url(#linearGradient4078);fill-opacity:1;fill-rule:evenodd;stroke:none" /><rect
     width="48.999996"
     height="24"
     rx="4"
     ry="3.75"
     x="561.99951"
     y="286.99881"
     id="rect4501"
     style="fill:url(#linearGradient4075);fill-opacity:1;fill-rule:evenodd;stroke:none" /><path
     d="m 566,287 c -2.216,0 -4,1.6725 -4,3.75 l 0,16.5 c 0,2.0775 1.784,3.75 4,3.75 l 0.40625,0 C 564.23547,311 563,309.39719 563,307.40625 l 0,-15.8125 C 563,289.60281 564.23547,288 566.40625,288 l 39.6875,0 c 2.17078,0 3.90625,1.60281 3.90625,3.59375 l 0,15.8125 C 610,309.39719 608.76452,311 606.59375,311 L 607,311 c 2.216,0 4,-1.6725 4,-3.75 l 0,-16.5 c 0,-2.0775 -1.784,-3.75 -4,-3.75 z"
     id="rect4505"
     style="fill:url(#linearGradient4072);fill-opacity:1;fill-rule:evenodd;stroke:none" /><path
     d="m 567,288 c -2.216,0 -4,1.6725 -4,3.75 l 0,14.5 0,1 c 0,2.0775 1.784,3.75 4,3.75 l 39,0 c 2.216,0 4,-1.6725 4,-3.75 l 0,-1 0,-14.5 c 0,-2.0775 -1.784,-3.75 -4,-3.75 l -0.40625,0 -38.1875,0 L 567,288 z m 0.40625,1 38.1875,0 c 2.17078,0 3.90625,1.60281 3.90625,3.59375 l 0,13.8125 c 0,1.99094 -1.73547,3.59375 -3.90625,3.59375 l -38.1875,0 c -1.08539,0 -2.07602,-0.41292 -2.78125,-1.0625 -0.70523,-0.64957 -1.125,-1.53578 -1.125,-2.53125 l 0,-13.8125 C 563.5,290.60281 565.23547,289 567.40625,289 z"
     id="path4510"
     style="fill:#000000;fill-opacity:0.10285716;fill-rule:evenodd;stroke:none" /><text
     x="567.65881"
     y="305.25714"
     id="text4516"
     xml:space="preserve"
     style="font-size:16.52918243px;font-style:normal;font-variant:normal;font-weight:normal;font-stretch:normal;text-align:start;line-height:125%;letter-spacing:0px;word-spacing:0px;writing-mode:lr-tb;text-anchor:start;fill:#575757;fill-opacity:1;stroke:none;font-family:Lato;-inkscape-font-specification:Lato"><tspan
       x="567.65881"
       y="305.25714"
       id="tspan4518">42</tspan></text>
<path
     d="m 617,294.99877 8,0 -4,-5.43749 -4,5.43749"
     id="path4534"
     style="fill:#000000;fill-opacity:0.54285715;stroke:none" /><rect
     width="8.0000534"
     height="1"
     rx="0"
     ry="1"
     x="616.99945"
     y="294.99881"
     id="rect4542"
     style="fill:#ffffff;fill-opacity:0.54285715;fill-rule:evenodd;stroke:none" /><path
     d="m 617,302.99878 8,0 -4,5.43749 -4,-5.43749"
     id="path4599"
     style="fill:#000000;fill-opacity:0.54285715;stroke:none" /><path
     d="m 281.625,275.71875 0,10.96875 -38.09375,0 0,24.09375 38.09375,0 0,10.96875 21.28125,-23.03125 z"
     id="path6300"
     style="fill:url(#linearGradient4028);fill-opacity:1;stroke:none;filter:url(#filter6306)" /><path
     d="m 281.625,275.71875 0,10.96875 -38.09375,0 0,24.09375 38.09375,0 0,10.96875 21.28125,-23.03125 z"
     id="path6237"
     style="fill:url(#linearGradient4025);fill-opacity:1;stroke:none" /><path
     d="m 282.25,277.28125 0,9.40625 a 0.61179789,0.61179789 0 0 1 -0.625,0.625 l -37.46875,0 0,13.75 c 19.52028,0.26085 36.14837,-1.5949 52.46875,-8.25 L 282.25,277.28125 z"
     id="path6325"
     style="fill:url(#linearGradient4022);fill-opacity:1;stroke:none" /><path
     d="m 284.71875,279.9375 -2.46875,1.4375 0,4.5 5.1875,-3 -2.71875,-2.9375 z m -12.75,7.375 -23.875,13.78125 c 2.75508,-0.006 5.44355,-0.0785 8.09375,-0.1875 l 23.5625,-13.59375 -7.78125,0 z m 19.96875,0.4375 -20.40625,11.78125 c 0.85846,-0.12512 1.71164,-0.23249 2.5625,-0.375 l 18.5,-10.6875 -0.65625,-0.71875 z"
     id="rect6329"
     style="opacity:0.37272728;fill:#ffffff;fill-opacity:1;fill-rule:evenodd;stroke:none" /><path
     d="m 264.76219,315.61335 0,29.95325 c -0.0256,1.34666 -0.74919,2.64491 -1.76964,3.67535 -1.02034,1.03037 -2.3637,1.87702 -3.74339,1.80365 l -13.80446,0 0,-1.36121 13.80446,0 c 0.8272,0 1.9242,-0.55482 2.75644,-1.39526 0.83227,-0.84041 1.36122,-1.9332 1.36122,-2.72242 l 0,-29.95325 z"
     id="path6446"
     style="text-indent:0;text-align:start;text-transform:none;direction:ltr;block-progression:tb;baseline-shift:baseline;color:#000000;fill:url(#linearGradient3995);enable-background:accumulate" /><path
     d="m 263.87439,313.62786 -3.83214,7.09908 7.48469,0 z"
     id="path6448"
     style="fill:url(#linearGradient3992)" /><text
     x="159.85786"
     y="353.05368"
     id="text6450"
     xml:space="preserve"
     style="font-size:13.74487305px;font-style:normal;font-variant:normal;font-weight:normal;font-stretch:normal;line-height:125%;letter-spacing:0px;word-spacing:0px;fill:#000000;fill-opacity:1;stroke:none;font-family:Nokia Pure Headline ME;-inkscape-font-specification:Nokia Pure Headline ME"><tspan
       x="159.85786"
       y="353.05368"
       id="tspan6452"
       style="font-size:13.74487305px;font-style:normal;font-variant:normal;font-weight:300;font-stretch:normal;text-align:start;line-height:125%;writing-mode:lr-tb;text-anchor:start;font-family:Lato;-inkscape-font-specification:Lato Light">Signal emitted</tspan></text>
</svg>