<?xml version="1.0" encoding="UTF-8" standalone="no"?>
<!-- Created with Inkscape (http://www.inkscape.org/) -->

<svg
   xmlns:dc="http://purl.org/dc/elements/1.1/"
   xmlns:cc="http://creativecommons.org/ns#"
   xmlns:rdf="http://www.w3.org/1999/02/22-rdf-syntax-ns#"
   xmlns:svg="http://www.w3.org/2000/svg"
   xmlns="http://www.w3.org/2000/svg"
   version="1.0"
   width="400"
   height="400"
   id="svg2">
  <metadata
     id="metadata7">
    <rdf:RDF>
      <cc:Work
         rdf:about="">
        <dc:format>image/svg+xml</dc:format>
        <dc:type
           rdf:resource="http://purl.org/dc/dcmitype/StillImage" />
        <dc:title></dc:title>
      </cc:Work>
    </rdf:RDF>
  </metadata>
  <defs
     id="defs4" />
  <rect
     width="400"
     height="400"
     x="0"
     y="0"
     id="rect3052"
     style="fill:#000000;fill-opacity:1;fill-rule:evenodd;stroke:none" />
  <rect
     width="70"
     height="70"
     x="5"
     y="5"
     id="rect3822"
     style="fill:#90ee90;fill-opacity:1;fill-rule:evenodd;stroke:none" />
  <g
     id="text3870"
     style="font-size:38.98015213px;font-style:normal;font-variant:normal;font-weight:normal;font-stretch:normal;text-align:center;line-height:125%;letter-spacing:0px;word-spacing:0px;writing-mode:lr-tb;text-anchor:middle;fill:#000000;fill-opacity:1;stroke:none;font-family:Nokia Pure Headline ME;-inkscape-font-specification:Nokia Pure Headline ME">
    <path
       d="m 38.572921,27.051231 c 3.352278,2.8e-5 5.821019,1.221405 7.406229,3.664134 1.611159,2.416792 2.416748,5.937995 2.416769,10.563621 -2.1e-5,4.651641 -0.80561,8.198831 -2.416769,10.641582 -1.58521,2.41677 -4.053951,3.625154 -7.406229,3.625154 -3.352301,0 -5.834035,-1.208384 -7.445209,-3.625154 -1.585195,-2.442751 -2.377791,-5.989941 -2.377789,-10.641582 -2e-6,-4.625626 0.792594,-8.146829 2.377789,-10.563621 1.611174,-2.442729 4.092908,-3.664106 7.445209,-3.664134 m 0,3.079432 c -2.130924,2.5e-5 -3.690129,0.935548 -4.677618,2.806571 -0.987503,1.845081 -1.481251,4.625662 -1.481246,8.341752 -5e-6,3.716118 0.493743,6.509693 1.481246,8.380733 0.987489,1.871051 2.546694,2.806574 4.677618,2.806571 2.130901,3e-6 3.690106,-0.93552 4.677618,-2.806571 0.98748,-1.87104 1.481228,-4.664615 1.481246,-8.380733 -1.8e-5,-3.71609 -0.493766,-6.496671 -1.481246,-8.341752 -0.987512,-1.871023 -2.546717,-2.806546 -4.677618,-2.806571"
       id="path4149" />
  </g>
  <rect
     width="70"
     height="70"
     x="85"
     y="5"
     id="rect3878"
     style="fill:#90ee90;fill-opacity:1;fill-rule:evenodd;stroke:none" />
  <g
     id="text3880"
     style="font-size:38.98015213px;font-style:normal;font-variant:normal;font-weight:normal;font-stretch:normal;text-align:center;line-height:125%;letter-spacing:0px;word-spacing:0px;writing-mode:lr-tb;text-anchor:middle;fill:#000000;fill-opacity:1;stroke:none;font-family:Nokia Pure Headline ME;-inkscape-font-specification:Nokia Pure Headline ME">
    <path
       d="m 118.38655,31.767829 -6.50968,3.781075 -1.36431,-2.65065 8.92646,-5.301301 2.49472,0 0,27.403047 -3.54719,0 0,-23.232171"
       id="path4146" />
  </g>
  <rect
     width="70"
     height="70"
     x="165"
     y="5"
     id="rect3884"
     style="fill:#90ee90;fill-opacity:1;fill-rule:evenodd;stroke:none" />
  <g
     id="text3886"
     style="font-size:38.98015213px;font-style:normal;font-variant:normal;font-weight:normal;font-stretch:normal;text-align:center;line-height:125%;letter-spacing:0px;word-spacing:0px;writing-mode:lr-tb;text-anchor:middle;fill:#000000;fill-opacity:1;stroke:none;font-family:Nokia Pure Headline ME;-inkscape-font-specification:Nokia Pure Headline ME">
    <path
       d="m 197.28537,41.551848 c 0.83157,-0.649656 1.57219,-1.260344 2.22187,-1.832068 0.64966,-0.571693 1.19538,-1.130408 1.63716,-1.676146 0.44177,-0.545705 0.7666,-1.10442 0.97451,-1.676147 0.23387,-0.597676 0.35081,-1.247345 0.35082,-1.949007 -1e-5,-1.247343 -0.37682,-2.27382 -1.13042,-3.079432 -0.75363,-0.831552 -1.94902,-1.24734 -3.58618,-1.247365 -0.8056,2.5e-5 -1.53323,0.116965 -2.18289,0.350821 -0.62369,0.207919 -1.1824,0.467786 -1.67614,0.779603 -0.46777,0.311865 -0.88356,0.662686 -1.24737,1.052464 -0.36382,0.363837 -0.66266,0.701665 -0.89654,1.013484 l -2.22187,-1.910027 c 0.25987,-0.415764 0.63667,-0.870532 1.13042,-1.364306 0.51974,-0.519709 1.13042,-0.987471 1.83207,-1.403285 0.70164,-0.441748 1.50723,-0.805563 2.41677,-1.091444 0.93552,-0.311814 1.96199,-0.467734 3.07943,-0.467762 1.42926,2.8e-5 2.66363,0.207922 3.70312,0.623682 1.03945,0.415816 1.88402,0.974531 2.53371,1.676147 0.64965,0.675681 1.1304,1.455283 1.44226,2.338809 0.31183,0.857586 0.46775,1.728142 0.46776,2.61167 -1e-5,0.987517 -0.16893,1.910046 -0.50674,2.767591 -0.33784,0.831594 -0.79261,1.624189 -1.3643,2.377789 -0.54574,0.727645 -1.18242,1.416293 -1.91003,2.065948 -0.72764,0.649682 -1.49425,1.286358 -2.29983,1.910028 -2.00099,1.559216 -3.5472,2.988487 -4.63864,4.287817 -1.09145,1.299344 -1.72812,2.715621 -1.91003,4.248836 l 12.9804,0 0,3.040452 -16.64453,0 0,-0.584702 c 0,-1.429271 0.15592,-2.715614 0.46776,-3.859035 0.31184,-1.169399 0.76661,-2.260842 1.36431,-3.274333 0.62368,-1.013475 1.40328,-1.974985 2.33881,-2.884531 0.93551,-0.935512 2.02696,-1.884029 3.27433,-2.845551"
       id="path4143" />
  </g>
  <rect
     width="70"
     height="70"
     x="245"
     y="5"
     id="rect3890"
     style="fill:#90ee90;fill-opacity:1;fill-rule:evenodd;stroke:none" />
  <g
     id="text3892"
     style="font-size:38.98015213px;font-style:normal;font-variant:normal;font-weight:normal;font-stretch:normal;text-align:center;line-height:125%;letter-spacing:0px;word-spacing:0px;writing-mode:lr-tb;text-anchor:middle;fill:#000000;fill-opacity:1;stroke:none;font-family:Nokia Pure Headline ME;-inkscape-font-specification:Nokia Pure Headline ME">
    <path
       d="m 273.58043,39.485899 2.61167,0 c 1.01347,1.6e-5 1.88403,-0.129918 2.61167,-0.389801 0.7536,-0.259852 1.36429,-0.610673 1.83207,-1.052464 0.49373,-0.441758 0.84455,-0.961493 1.05246,-1.559206 0.23387,-0.597677 0.35081,-1.234352 0.35082,-1.910028 -1e-5,-1.27333 -0.37682,-2.338786 -1.13042,-3.196372 -0.75363,-0.883526 -1.97501,-1.3253 -3.66414,-1.325325 -0.77961,2.5e-5 -1.48125,0.07798 -2.10493,0.233881 -0.5977,0.155945 -1.14342,0.350845 -1.63716,0.584702 -0.46777,0.233905 -0.88356,0.493772 -1.24737,0.779603 -0.36382,0.259891 -0.66266,0.506765 -0.89654,0.740623 l -1.91003,-2.026968 c 0.25987,-0.28583 0.62368,-0.623657 1.09145,-1.013484 0.46776,-0.389776 1.02647,-0.75359 1.67614,-1.091444 0.67565,-0.337801 1.44226,-0.623655 2.29983,-0.857564 0.85756,-0.233853 1.79308,-0.350793 2.80657,-0.350821 1.45525,2.8e-5 2.70262,0.194928 3.7421,0.584702 1.03945,0.389829 1.89702,0.909564 2.57269,1.559206 0.67564,0.649695 1.16939,1.390317 1.48124,2.221869 0.31183,0.831599 0.46775,1.689162 0.46776,2.57269 -1e-5,0.857584 -0.12995,1.650179 -0.3898,2.377789 -0.25988,0.701661 -0.6107,1.338336 -1.05246,1.910028 -0.44179,0.545738 -0.96153,1.039486 -1.55921,1.481246 -0.59771,0.415803 -1.22139,0.766624 -1.87104,1.052464 0.7536,0.207908 1.45524,0.506755 2.10492,0.896543 0.64966,0.363828 1.22137,0.818596 1.71513,1.364305 0.49373,0.545734 0.87054,1.182409 1.13042,1.910028 0.28584,0.701652 0.42877,1.494248 0.42879,2.377789 -2e-5,1.325332 -0.25989,2.494735 -0.77961,3.508214 -0.49376,1.013487 -1.18241,1.871049 -2.06594,2.57269 -0.88357,0.701644 -1.93603,1.221378 -3.1574,1.559206 -1.1954,0.363814 -2.49474,0.545722 -3.89801,0.545722 -1.61119,0 -3.00148,-0.116941 -4.17088,-0.350821 -1.1694,-0.233881 -2.09193,-0.467762 -2.76759,-0.701643 l 0.7796,-2.806571 c 0.49375,0.129937 1.20839,0.298851 2.14391,0.506742 0.93552,0.18191 2.18289,0.272864 3.7421,0.272861 1.97498,3e-6 3.56017,-0.415785 4.75558,-1.247365 1.19537,-0.831572 1.79307,-2.117915 1.79308,-3.859035 -10e-6,-1.37729 -0.49376,-2.520706 -1.48124,-3.430253 -0.98751,-0.935512 -2.54672,-1.403273 -4.67762,-1.403286 l -2.72861,0 0,-3.040452"
       id="path4140" />
  </g>
  <rect
     width="70"
     height="70"
     x="325"
     y="5"
     id="rect3896"
     style="fill:#90ee90;fill-opacity:1;fill-rule:evenodd;stroke:none" />
  <g
     id="text3898"
     style="font-size:38.98015213px;font-style:normal;font-variant:normal;font-weight:normal;font-stretch:normal;text-align:center;line-height:125%;letter-spacing:0px;word-spacing:0px;writing-mode:lr-tb;text-anchor:middle;fill:#000000;fill-opacity:1;stroke:none;font-family:Nokia Pure Headline ME;-inkscape-font-specification:Nokia Pure Headline ME">
    <path
       d="m 349.03711,45.293942 10.29076,-17.696989 3.70311,0 -10.29076,17.580049 7.71807,0 0,-7.172348 3.3523,0 0,7.172348 4.05393,0 0,2.962491 -4.05393,0 0,6.860507 -3.3523,0 0,-6.860507 -11.42118,0 0,-2.845551"
       id="path4137" />
  </g>
  <path
     d="m 5,85 70,0 0,70 -70,0 z"
     id="rect3902"
     style="fill:#90ee90;fill-opacity:1;fill-rule:evenodd;stroke:none" />
  <g
     id="text3904"
     style="font-size:38.98015213px;font-style:normal;font-variant:normal;font-weight:normal;font-stretch:normal;text-align:center;line-height:125%;letter-spacing:0px;word-spacing:0px;writing-mode:lr-tb;text-anchor:middle;fill:#000000;fill-opacity:1;stroke:none;font-family:Nokia Pure Headline ME;-inkscape-font-specification:Nokia Pure Headline ME">
    <path
       d="m 35.997186,132.42731 c 2.052945,0 3.703103,-0.50674 4.950479,-1.52023 1.247352,-1.03946 1.871033,-2.57268 1.871047,-4.59965 -1.4e-5,-0.64966 -0.09097,-1.31233 -0.272861,-1.98799 -0.155934,-0.67565 -0.454781,-1.27334 -0.896543,-1.79309 -0.415801,-0.54571 -0.987509,-0.98748 -1.715127,-1.32532 -0.72764,-0.33782 -1.637176,-0.50673 -2.728611,-0.50675 -1.065464,2e-5 -1.975,0.14295 -2.72861,0.42879 -0.727635,0.28586 -1.312336,0.55872 -1.754107,0.81858 l -1.949008,-1.40329 1.559206,-12.94141 13.136312,0 0,3.07944 -10.602602,0 -0.896543,7.95195 c 0.207889,-0.12992 0.67565,-0.28584 1.403285,-0.46777 0.727623,-0.20787 1.650152,-0.31182 2.767591,-0.31184 1.195381,2e-5 2.299817,0.16893 3.313313,0.50675 1.01347,0.33784 1.884026,0.85757 2.61167,1.5592 0.753601,0.67567 1.338302,1.54623 1.754107,2.61167 0.415771,1.06547 0.623665,2.32583 0.623682,3.78108 -1.7e-5,1.27336 -0.220904,2.46875 -0.662662,3.58617 -0.441792,1.11744 -1.104454,2.10493 -1.987988,2.96249 -0.857577,0.83158 -1.923034,1.49424 -3.196372,1.98799 -1.273362,0.46776 -2.741613,0.70164 -4.404758,0.70164 -1.611185,0 -3.001476,-0.11694 -4.170876,-0.35082 -1.169406,-0.20789 -2.091936,-0.42878 -2.767591,-0.66266 l 0.779603,-2.80657 c 0.493747,0.12993 1.195389,0.28585 2.104929,0.46776 0.935519,0.15592 2.221863,0.23388 3.859035,0.23388"
       id="path4133" />
  </g>
  <path
     d="m 85,85 70,0 0,70 -70,0 z"
     id="rect3908"
     style="fill:#90ee90;fill-opacity:1;fill-rule:evenodd;stroke:none" />
  <g
     id="text3910"
     style="font-size:38.98015213px;font-style:normal;font-variant:normal;font-weight:normal;font-stretch:normal;text-align:center;line-height:125%;letter-spacing:0px;word-spacing:0px;writing-mode:lr-tb;text-anchor:middle;fill:#000000;fill-opacity:1;stroke:none;font-family:Nokia Pure Headline ME;-inkscape-font-specification:Nokia Pure Headline ME">
    <path
       d="m 113.40196,120.30448 c 0.57171,-0.93551 1.41628,-1.70211 2.53371,-2.29983 1.14341,-0.62366 2.42976,-0.9355 3.85904,-0.93552 1.09143,2e-5 2.11791,0.16893 3.07943,0.50674 0.98748,0.33785 1.84505,0.87058 2.57269,1.59819 0.7536,0.72764 1.3383,1.65017 1.75411,2.76759 0.44175,1.11744 0.66264,2.45576 0.66266,4.01495 -2e-5,1.53323 -0.20791,2.89754 -0.62368,4.09292 -0.41581,1.16941 -1.0135,2.1699 -1.79309,3.00147 -0.77962,0.80559 -1.71514,1.42928 -2.80657,1.87105 -1.06547,0.41579 -2.26086,0.62368 -3.58617,0.62368 -2.80658,0 -5.01546,-1.01348 -6.62663,-3.04045 -1.61118,-2.05295 -2.41677,-5.15837 -2.41677,-9.31626 0,-5.30128 0.89654,-9.31623 2.68963,-12.04486 1.81907,-2.72859 4.46972,-4.09289 7.95195,-4.09292 1.32531,3e-5 2.50771,0.16894 3.5472,0.50674 1.03945,0.31187 1.94899,0.71467 2.72861,1.20839 l -1.36431,2.49473 c -1.45527,-0.77958 -3.09244,-1.16938 -4.9115,-1.16941 -2.28684,3e-5 -4.01496,0.88358 -5.18436,2.65065 -1.16941,1.74114 -1.85806,4.26185 -2.06595,7.56215 m 5.65213,12.27875 c 0.93551,0 1.7411,-0.15592 2.41677,-0.46776 0.70162,-0.33783 1.26034,-0.7796 1.67614,-1.32533 0.44176,-0.5717 0.7666,-1.23436 0.97451,-1.98798 0.20787,-0.75361 0.31182,-1.5592 0.31184,-2.41677 -2e-5,-2.15689 -0.45479,-3.74209 -1.36431,-4.75558 -0.88356,-1.01347 -2.15691,-1.52021 -3.82005,-1.52023 -1.7931,2e-5 -3.1704,0.57173 -4.1319,1.71513 -0.96152,1.11744 -1.44227,2.5727 -1.44226,4.36578 -1e-5,0.77961 0.10394,1.55921 0.31184,2.3388 0.20788,0.75363 0.51973,1.42928 0.93552,2.02697 0.44177,0.5977 1.00048,1.09145 1.67615,1.48125 0.70163,0.36382 1.52021,0.54572 2.45575,0.54572"
       id="path4129" />
  </g>
  <path
     d="m 165,85 70,0 0,70 -70,0 z"
     id="rect3914"
     style="fill:#90ee90;fill-opacity:1;fill-rule:evenodd;stroke:none" />
  <g
     id="text3916"
     style="font-size:38.98015213px;font-style:normal;font-variant:normal;font-weight:normal;font-stretch:normal;text-align:center;line-height:125%;letter-spacing:0px;word-spacing:0px;writing-mode:lr-tb;text-anchor:middle;fill:#000000;fill-opacity:1;stroke:none;font-family:Nokia Pure Headline ME;-inkscape-font-specification:Nokia Pure Headline ME">
    <path
       d="m 192.48533,135 11.30424,-24.32361 -14.14979,0 0,-3.07944 17.69699,0 0,2.88453 L 196.14946,135 l -3.66413,0"
       id="path4125" />
  </g>
  <path
     d="m 245,85 70,0 0,70 -70,0 z"
     id="rect3920"
     style="fill:#90ee90;fill-opacity:1;fill-rule:evenodd;stroke:none" />
  <g
     id="text3922"
     style="font-size:38.98015213px;font-style:normal;font-variant:normal;font-weight:normal;font-stretch:normal;text-align:center;line-height:125%;letter-spacing:0px;word-spacing:0px;writing-mode:lr-tb;text-anchor:middle;fill:#000000;fill-opacity:1;stroke:none;font-family:Nokia Pure Headline ME;-inkscape-font-specification:Nokia Pure Headline ME">
    <path
       d="m 287.10319,113.95072 c -2e-5,0.80561 -0.12995,1.54623 -0.3898,2.22187 -0.2339,0.64968 -0.57173,1.26037 -1.01348,1.83206 -0.41581,0.54574 -0.90956,1.05248 -1.48125,1.52023 -0.57173,0.44179 -1.18241,0.84458 -1.83207,1.20838 0.88354,0.41581 1.66314,0.85758 2.33881,1.32533 0.67564,0.44179 1.24735,0.94853 1.71513,1.52023 0.46774,0.57172 0.81856,1.22138 1.05246,1.949 0.23386,0.72764 0.3508,1.55922 0.35082,2.49473 -2e-5,2.3648 -0.8186,4.20986 -2.45575,5.53518 -1.63718,1.32533 -3.91102,1.98799 -6.82152,1.98799 -1.48126,0 -2.80658,-0.16891 -3.97598,-0.50674 -1.14342,-0.33783 -2.11792,-0.81858 -2.92351,-1.44227 -0.77961,-0.62368 -1.3773,-1.3643 -1.79309,-2.22186 -0.3898,-0.85756 -0.5847,-1.80608 -0.5847,-2.84556 0,-0.9615 0.14293,-1.81906 0.42878,-2.57269 0.31184,-0.77959 0.71464,-1.46824 1.20839,-2.06594 0.51973,-0.59769 1.13042,-1.11742 1.83206,-1.55921 0.70164,-0.46775 1.46825,-0.89653 2.29983,-1.28634 -0.64967,-0.31183 -1.28635,-0.67565 -1.91002,-1.09145 -0.5977,-0.41577 -1.13043,-0.89653 -1.59819,-1.44226 -0.46777,-0.5717 -0.84457,-1.22136 -1.13042,-1.94901 -0.28586,-0.72761 -0.42879,-1.57218 -0.42879,-2.53371 0,-0.96149 0.18191,-1.85803 0.54573,-2.68963 0.36381,-0.85754 0.90953,-1.59816 1.63716,-2.22187 0.72763,-0.64964 1.62417,-1.15639 2.68963,-1.52023 1.06545,-0.36378 2.29982,-0.54569 3.70312,-0.54572 1.48123,3e-5 2.75458,0.18194 3.82005,0.54572 1.06544,0.36384 1.94899,0.85759 2.65065,1.48125 0.70163,0.62371 1.22136,1.35134 1.55921,2.18289 0.33781,0.8316 0.50672,1.72814 0.50674,2.68963 m -2.65065,14.11081 c -2e-5,-1.53321 -0.51975,-2.7286 -1.55921,-3.58617 -1.03948,-0.85755 -2.54671,-1.62416 -4.52169,-2.29983 -0.77962,0.33784 -1.52024,0.70165 -2.22187,1.09144 -0.67567,0.36383 -1.28635,0.77962 -1.83207,1.24737 -0.51974,0.46777 -0.93553,1.01349 -1.24736,1.63717 -0.28586,0.5977 -0.42879,1.28635 -0.42879,2.06594 0,1.35132 0.49375,2.44276 1.48125,3.27434 0.98749,0.80559 2.46873,1.20838 4.44374,1.20838 1.87103,0 3.3133,-0.3898 4.32679,-1.1694 1.03946,-0.7796 1.55919,-1.93601 1.55921,-3.46924 m -0.66266,-13.99387 c -2e-5,-1.24734 -0.4288,-2.27382 -1.28635,-3.07943 -0.85757,-0.80557 -2.16991,-1.20836 -3.93699,-1.20839 -1.74113,3e-5 -3.05346,0.40282 -3.937,1.20839 -0.88355,0.80561 -1.32533,1.81909 -1.32532,3.04045 -10e-6,0.77962 0.14292,1.46827 0.42878,2.06595 0.31183,0.57172 0.72762,1.07846 1.24736,1.52022 0.54572,0.41581 1.1694,0.79262 1.87105,1.13043 0.70163,0.31185 1.46824,0.58471 2.29983,0.81858 1.42926,-0.62367 2.55968,-1.3513 3.39127,-2.18289 0.83156,-0.85754 1.24735,-1.96198 1.24737,-3.31331"
       id="path4121" />
  </g>
  <path
     d="m 325,85 70,0 0,70 -70,0 z"
     id="rect3926"
     style="fill:#90ee90;fill-opacity:1;fill-rule:evenodd;stroke:none" />
  <g
     id="text3928"
     style="font-size:38.98015213px;font-style:normal;font-variant:normal;font-weight:normal;font-stretch:normal;text-align:center;line-height:125%;letter-spacing:0px;word-spacing:0px;writing-mode:lr-tb;text-anchor:middle;fill:#000000;fill-opacity:1;stroke:none;font-family:Nokia Pure Headline ME;-inkscape-font-specification:Nokia Pure Headline ME">
    <path
       d="m 363.73171,122.25349 c -0.25988,0.46777 -0.6107,0.89656 -1.05246,1.28635 -0.4158,0.38981 -0.90955,0.72764 -1.48125,1.01348 -0.54573,0.28586 -1.15642,0.51974 -1.83207,0.70164 -0.64967,0.15593 -1.32533,0.23389 -2.02696,0.23388 -1.09146,1e-5 -2.13092,-0.1689 -3.11842,-0.50674 -0.96151,-0.33782 -1.81907,-0.85755 -2.57269,-1.55921 -0.72763,-0.72761 -1.31233,-1.65014 -1.7541,-2.76759 -0.41579,-1.11741 -0.62369,-2.45573 -0.62368,-4.01495 -1e-5,-1.5332 0.20789,-2.89751 0.62368,-4.09292 0.41578,-1.19537 1.01348,-2.19585 1.79309,-3.00147 0.77959,-0.83155 1.71512,-1.45523 2.80657,-1.87105 1.09143,-0.41576 2.29982,-0.62365 3.62515,-0.62368 2.78057,3e-5 4.97645,1.0395 6.58765,3.11841 1.61116,2.05298 2.41675,5.19738 2.41677,9.4332 -2e-5,2.70264 -0.25989,5.05444 -0.77961,7.05541 -0.49376,1.975 -1.22139,3.62516 -2.18289,4.95048 -0.96152,1.32532 -2.13093,2.31282 -3.50821,2.96249 -1.37731,0.64967 -2.93651,0.9745 -4.67762,0.9745 -1.48125,0 -2.67664,-0.10395 -3.58617,-0.31184 -0.88356,-0.18191 -1.45526,-0.32483 -1.71513,-0.42878 l 0.70164,-2.84555 c 0.15592,0.052 0.37681,0.11694 0.66267,0.1949 0.31183,0.052 0.67565,0.10395 1.09144,0.15592 0.41578,0.052 0.85756,0.10395 1.32533,0.15592 0.46775,0.052 0.93551,0.078 1.40328,0.078 1.3513,0 2.49472,-0.22088 3.43025,-0.66266 0.9615,-0.46776 1.74111,-1.13042 2.33881,-1.98799 0.62367,-0.88354 1.09143,-1.96199 1.40329,-3.23535 0.33781,-1.29933 0.57169,-2.76758 0.70164,-4.40476 m -5.61314,-12.23977 c -0.93553,3e-5 -1.75411,0.15595 -2.45575,0.46776 -0.67566,0.31187 -1.23438,0.75364 -1.67615,1.32533 -0.44178,0.54574 -0.76661,1.19541 -0.9745,1.94901 -0.2079,0.75363 -0.31185,1.55922 -0.31184,2.41677 -1e-5,2.15691 0.44177,3.74211 1.32532,4.75558 0.90953,1.01349 2.19588,1.52023 3.85904,1.52022 0.88354,1e-5 1.66314,-0.14291 2.33881,-0.42878 0.70163,-0.31183 1.28633,-0.74061 1.75411,-1.28635 0.49373,-0.5457 0.85754,-1.18238 1.09144,-1.91002 0.25985,-0.7536 0.38979,-1.57218 0.3898,-2.45575 -10e-6,-0.77959 -0.10396,-1.5462 -0.31184,-2.29983 -0.20791,-0.7536 -0.53274,-1.42925 -0.9745,-2.02697 -0.44179,-0.62366 -1.00051,-1.11741 -1.67615,-1.48125 -0.64968,-0.36379 -1.44228,-0.54569 -2.37779,-0.54572"
       id="path4117" />
  </g>
  <path
     d="m 5,165 70,0 0,70 -70,0 z"
     id="rect3932"
     style="fill:#90ee90;fill-opacity:1;fill-rule:evenodd;stroke:none" />
  <g
     id="text3934"
     style="font-size:38.98015213px;font-style:normal;font-variant:normal;font-weight:normal;font-stretch:normal;text-align:center;line-height:125%;letter-spacing:0px;word-spacing:0px;writing-mode:lr-tb;text-anchor:middle;fill:#000000;fill-opacity:1;stroke:none;font-family:Nokia Pure Headline ME;-inkscape-font-specification:Nokia Pure Headline ME">
    <path
       d="m 26.928514,191.76783 -6.509685,3.78107 -1.364306,-2.65065 8.926455,-5.3013 2.49473,0 0,27.40305 -3.547194,0 0,-23.23217"
       id="path4111" />
    <path
       d="m 47.137896,187.05123 c 3.352278,3e-5 5.821019,1.22141 7.406229,3.66414 1.611159,2.41679 2.416748,5.93799 2.416769,10.56362 -2.1e-5,4.65164 -0.80561,8.19883 -2.416769,10.64158 -1.58521,2.41677 -4.053951,3.62515 -7.406229,3.62515 -3.352301,0 -5.834035,-1.20838 -7.445209,-3.62515 -1.585196,-2.44275 -2.377791,-5.98994 -2.37779,-10.64158 -1e-6,-4.62563 0.792594,-8.14683 2.37779,-10.56362 1.611174,-2.44273 4.092908,-3.66411 7.445209,-3.66414 m 0,3.07943 c -2.130925,3e-5 -3.690129,0.93555 -4.677618,2.80657 -0.987503,1.84508 -1.481252,4.62567 -1.481246,8.34176 -6e-6,3.71611 0.493743,6.50969 1.481246,8.38073 0.987489,1.87105 2.546693,2.80657 4.677618,2.80657 2.130901,0 3.690106,-0.93552 4.677618,-2.80657 0.98748,-1.87104 1.481228,-4.66462 1.481246,-8.38073 -1.8e-5,-3.71609 -0.493766,-6.49668 -1.481246,-8.34176 -0.987512,-1.87102 -2.546717,-2.80654 -4.677618,-2.80657"
       id="path4113" />
  </g>
  <path
     d="m 85,165 70,0 0,70 -70,0 z"
     id="rect3938"
     style="fill:#90ee90;fill-opacity:1;fill-rule:evenodd;stroke:none" />
  <g
     id="text3940"
     style="font-size:38.98015213px;font-style:normal;font-variant:normal;font-weight:normal;font-stretch:normal;text-align:center;line-height:125%;letter-spacing:0px;word-spacing:0px;writing-mode:lr-tb;text-anchor:middle;fill:#000000;fill-opacity:1;stroke:none;font-family:Nokia Pure Headline ME;-inkscape-font-specification:Nokia Pure Headline ME">
    <path
       d="m 110.12611,191.76783 -6.50969,3.78107 -1.3643,-2.65065 8.92645,-5.3013 2.49473,0 0,27.40305 -3.54719,0 0,-23.23217"
       id="path4105" />
    <path
       d="m 126.64699,191.76783 -6.50968,3.78107 -1.36431,-2.65065 8.92646,-5.3013 2.49473,0 0,27.40305 -3.5472,0 0,-23.23217"
       id="path4107" />
  </g>
  <path
     d="m 165,165 70,0 0,70 -70,0 z"
     id="rect3944"
     style="fill:#90ee90;fill-opacity:1;fill-rule:evenodd;stroke:none" />
  <g
     id="text3946"
     style="font-size:38.98015213px;font-style:normal;font-variant:normal;font-weight:normal;font-stretch:normal;text-align:center;line-height:125%;letter-spacing:0px;word-spacing:0px;writing-mode:lr-tb;text-anchor:middle;fill:#000000;fill-opacity:1;stroke:none;font-family:Nokia Pure Headline ME;-inkscape-font-specification:Nokia Pure Headline ME">
    <path
       d="m 188.60345,191.76783 -6.50968,3.78107 -1.36431,-2.65065 8.92646,-5.3013 2.49473,0 0,27.40305 -3.5472,0 0,-23.23217"
       id="path4099" />
    <path
       d="m 205.85034,201.55185 c 0.83157,-0.64966 1.57219,-1.26035 2.22187,-1.83207 0.64966,-0.57169 1.19538,-1.13041 1.63717,-1.67615 0.44176,-0.5457 0.7666,-1.10442 0.9745,-1.67614 0.23387,-0.59768 0.35081,-1.24735 0.35082,-1.94901 -10e-6,-1.24734 -0.37682,-2.27382 -1.13042,-3.07943 -0.75363,-0.83155 -1.94902,-1.24734 -3.58617,-1.24737 -0.8056,3e-5 -1.53323,0.11697 -2.18289,0.35082 -0.62369,0.20792 -1.18241,0.46779 -1.67615,0.77961 -0.46777,0.31186 -0.88355,0.66268 -1.24736,1.05246 -0.36382,0.36384 -0.66267,0.70167 -0.89655,1.01349 l -2.22187,-1.91003 c 0.25987,-0.41577 0.63668,-0.87053 1.13043,-1.36431 0.51973,-0.51971 1.13042,-0.98747 1.83207,-1.40328 0.70163,-0.44175 1.50722,-0.80557 2.41676,-1.09145 0.93552,-0.31181 1.962,-0.46773 3.07944,-0.46776 1.42926,3e-5 2.66363,0.20792 3.70311,0.62368 1.03946,0.41582 1.88403,0.97453 2.53371,1.67615 0.64965,0.67568 1.13041,1.45528 1.44227,2.33881 0.31182,0.85758 0.46774,1.72814 0.46776,2.61167 -2e-5,0.98752 -0.16893,1.91005 -0.50674,2.76759 -0.33785,0.83159 -0.79262,1.62419 -1.36431,2.37779 -0.54574,0.72764 -1.18241,1.41629 -1.91003,2.06595 -0.72764,0.64968 -1.49425,1.28635 -2.29983,1.91002 -2.00099,1.55922 -3.5472,2.98849 -4.63863,4.28782 -1.09145,1.29935 -1.72813,2.71562 -1.91003,4.24884 l 12.98039,0 0,3.04045 -16.64452,0 0,-0.5847 c -10e-6,-1.42927 0.15591,-2.71562 0.46776,-3.85904 0.31184,-1.1694 0.7666,-2.26084 1.3643,-3.27433 0.62368,-1.01348 1.40328,-1.97498 2.33881,-2.88453 0.93552,-0.93551 2.02696,-1.88403 3.27433,-2.84555"
       id="path4101" />
  </g>
  <path
     d="m 245,165 70,0 0,70 -70,0 z"
     id="rect3950"
     style="fill:#90ee90;fill-opacity:1;fill-rule:evenodd;stroke:none" />
  <g
     id="text3952"
     style="font-size:38.98015213px;font-style:normal;font-variant:normal;font-weight:normal;font-stretch:normal;text-align:center;line-height:125%;letter-spacing:0px;word-spacing:0px;writing-mode:lr-tb;text-anchor:middle;fill:#000000;fill-opacity:1;stroke:none;font-family:Nokia Pure Headline ME;-inkscape-font-specification:Nokia Pure Headline ME">
    <path
       d="m 268.67959,191.76783 -6.50969,3.78107 -1.3643,-2.65065 8.92645,-5.3013 2.49473,0 0,27.40305 -3.54719,0 0,-23.23217"
       id="path4093" />
    <path
       d="m 282.1454,199.4859 2.61167,0 c 1.01348,1e-5 1.88403,-0.12992 2.61167,-0.3898 0.75361,-0.25985 1.3643,-0.61067 1.83207,-1.05247 0.49374,-0.44175 0.84456,-0.96149 1.05246,-1.5592 0.23387,-0.59768 0.35081,-1.23435 0.35083,-1.91003 -2e-5,-1.27333 -0.37683,-2.33879 -1.13043,-3.19637 -0.75363,-0.88353 -1.975,-1.3253 -3.66413,-1.32533 -0.77961,3e-5 -1.48126,0.078 -2.10493,0.23388 -0.5977,0.15595 -1.14342,0.35085 -1.63717,0.58471 -0.46776,0.2339 -0.88355,0.49377 -1.24736,0.7796 -0.36382,0.25989 -0.66267,0.50676 -0.89655,0.74062 l -1.91002,-2.02697 c 0.25986,-0.28583 0.62368,-0.62365 1.09144,-1.01348 0.46776,-0.38978 1.02648,-0.75359 1.67615,-1.09144 0.67565,-0.33781 1.44226,-0.62366 2.29983,-0.85757 0.85755,-0.23385 1.79308,-0.35079 2.80657,-0.35082 1.45525,3e-5 2.70261,0.19493 3.74209,0.5847 1.03946,0.38983 1.89702,0.90957 2.57269,1.55921 0.67564,0.64969 1.16939,1.39032 1.48125,2.22187 0.31182,0.8316 0.46774,1.68916 0.46776,2.57269 -2e-5,0.85758 -0.12995,1.65018 -0.3898,2.37779 -0.25989,0.70166 -0.61071,1.33833 -1.05247,1.91002 -0.44179,0.54574 -0.96152,1.03949 -1.5592,1.48125 -0.59771,0.4158 -1.22139,0.76662 -1.87105,1.05246 0.7536,0.20791 1.45525,0.50676 2.10493,0.89655 0.64965,0.36383 1.22136,0.81859 1.71513,1.3643 0.49373,0.54574 0.87054,1.18241 1.13042,1.91003 0.28584,0.70165 0.42876,1.49425 0.42878,2.37779 -2e-5,1.32533 -0.25988,2.49474 -0.7796,3.50821 -0.49377,1.01349 -1.18241,1.87105 -2.06595,2.57269 -0.88356,0.70165 -1.93603,1.22138 -3.15739,1.55921 -1.1954,0.36381 -2.49474,0.54572 -3.89802,0.54572 -1.61118,0 -3.00147,-0.11694 -4.17087,-0.35082 -1.16941,-0.23388 -2.09194,-0.46776 -2.76759,-0.70164 l 0.7796,-2.80657 c 0.49375,0.12993 1.20838,0.29885 2.14391,0.50674 0.93552,0.18191 2.18288,0.27286 3.74209,0.27286 1.97499,0 3.56018,-0.41579 4.75558,-1.24736 1.19538,-0.83158 1.79307,-2.11792 1.79309,-3.85904 -2e-5,-1.37729 -0.49376,-2.52071 -1.48125,-3.43025 -0.98751,-0.93551 -2.54671,-1.40328 -4.67762,-1.40329 l -2.72861,0 0,-3.04045"
       id="path4095" />
  </g>
  <path
     d="m 325,165 70,0 0,70 -70,0 z"
     id="rect3956"
     style="fill:#90ee90;fill-opacity:1;fill-rule:evenodd;stroke:none" />
  <g
     id="text3958"
     style="font-size:38.98015213px;font-style:normal;font-variant:normal;font-weight:normal;font-stretch:normal;text-align:center;line-height:125%;letter-spacing:0px;word-spacing:0px;writing-mode:lr-tb;text-anchor:middle;fill:#000000;fill-opacity:1;stroke:none;font-family:Nokia Pure Headline ME;-inkscape-font-specification:Nokia Pure Headline ME">
    <path
       d="m 347.95632,191.76783 -6.50968,3.78107 -1.36431,-2.65065 8.92646,-5.3013 2.49473,0 0,27.40305 -3.5472,0 0,-23.23217"
       id="path4087" />
    <path
       d="m 357.60208,205.29394 10.29076,-17.69699 3.70312,0 -10.29076,17.58005 7.71807,0 0,-7.17235 3.35229,0 0,7.17235 4.05394,0 0,2.96249 -4.05394,0 0,6.86051 -3.35229,0 0,-6.86051 -11.42119,0 0,-2.84555"
       id="path4089" />
  </g>
  <path
     d="m 5,245 70,0 0,70 -70,0 z"
     id="rect3962"
     style="fill:#90ee90;fill-opacity:1;fill-rule:evenodd;stroke:none" />
  <g
     id="text3964"
     style="font-size:38.98015213px;font-style:normal;font-variant:normal;font-weight:normal;font-stretch:normal;text-align:center;line-height:125%;letter-spacing:0px;word-spacing:0px;writing-mode:lr-tb;text-anchor:middle;fill:#000000;fill-opacity:1;stroke:none;font-family:Nokia Pure Headline ME;-inkscape-font-specification:Nokia Pure Headline ME">
    <path
       d="m 28.679576,271.76783 -6.509686,3.78107 -1.364305,-2.65065 8.926455,-5.3013 2.49473,0 0,27.40305 -3.547194,0 0,-23.23217"
       id="path4081" />
    <path
       d="m 44.56216,292.42731 c 2.052946,0 3.703104,-0.50674 4.95048,-1.52023 1.247351,-1.03946 1.871033,-2.57268 1.871047,-4.59965 -1.4e-5,-0.64966 -0.09097,-1.31233 -0.272861,-1.98799 -0.155934,-0.67565 -0.454782,-1.27334 -0.896544,-1.79309 -0.4158,-0.54571 -0.987508,-0.98748 -1.715126,-1.32532 -0.72764,-0.33782 -1.637176,-0.50673 -2.728611,-0.50675 -1.065465,2e-5 -1.975001,0.14295 -2.72861,0.42879 -0.727635,0.28586 -1.312337,0.55872 -1.754107,0.81858 l -1.949008,-1.40329 1.559206,-12.94141 13.136311,0 0,3.07944 -10.602601,0 -0.896543,7.95195 c 0.207888,-0.12992 0.67565,-0.28584 1.403285,-0.46777 0.727622,-0.20787 1.650152,-0.31182 2.767591,-0.31184 1.195381,2e-5 2.299817,0.16893 3.313313,0.50675 1.01347,0.33784 1.884026,0.85757 2.61167,1.5592 0.7536,0.67567 1.338302,1.54623 1.754107,2.61167 0.415771,1.06547 0.623665,2.32583 0.623682,3.78108 -1.7e-5,1.27336 -0.220905,2.46875 -0.662662,3.58617 -0.441792,1.11744 -1.104454,2.10493 -1.987988,2.96249 -0.857578,0.83158 -1.923034,1.49424 -3.196373,1.98799 -1.273362,0.46776 -2.741613,0.70164 -4.404757,0.70164 -1.611185,0 -3.001476,-0.11694 -4.170876,-0.35082 -1.169407,-0.20789 -2.091936,-0.42878 -2.767591,-0.66266 l 0.779603,-2.80657 c 0.493747,0.12993 1.195389,0.28585 2.104928,0.46776 0.93552,0.15592 2.221864,0.23388 3.859035,0.23388"
       id="path4083" />
  </g>
  <path
     d="m 85,245 70,0 0,70 -70,0 z"
     id="rect3968"
     style="fill:#90ee90;fill-opacity:1;fill-rule:evenodd;stroke:none" />
  <g
     id="text3970"
     style="font-size:38.98015213px;font-style:normal;font-variant:normal;font-weight:normal;font-stretch:normal;text-align:center;line-height:125%;letter-spacing:0px;word-spacing:0px;writing-mode:lr-tb;text-anchor:middle;fill:#000000;fill-opacity:1;stroke:none;font-family:Nokia Pure Headline ME;-inkscape-font-specification:Nokia Pure Headline ME">
    <path
       d="m 107.99438,271.76783 -6.50968,3.78107 -1.36431,-2.65065 8.92646,-5.3013 2.49473,0 0,27.40305 -3.5472,0 0,-23.23217"
       id="path4075" />
    <path
       d="m 121.96694,280.30448 c 0.5717,-0.93551 1.41627,-1.70211 2.53371,-2.29983 1.14341,-0.62366 2.42975,-0.9355 3.85903,-0.93552 1.09144,2e-5 2.11791,0.16893 3.07944,0.50674 0.98748,0.33785 1.84504,0.87058 2.57269,1.59819 0.75359,0.72764 1.3383,1.65017 1.7541,2.76759 0.44176,1.11744 0.66265,2.45576 0.66267,4.01495 -2e-5,1.53323 -0.20792,2.89754 -0.62369,4.09292 -0.4158,1.16941 -1.0135,2.1699 -1.79308,3.00147 -0.77962,0.80559 -1.71515,1.42928 -2.80658,1.87105 -1.06547,0.41579 -2.26086,0.62368 -3.58617,0.62368 -2.80658,0 -5.01545,-1.01348 -6.62662,-3.04045 -1.61119,-2.05295 -2.41678,-5.15837 -2.41677,-9.31626 -1e-5,-5.30128 0.89654,-9.31623 2.68963,-12.04486 1.81906,-2.72859 4.46971,-4.09289 7.95195,-4.09292 1.32531,3e-5 2.50771,0.16894 3.54719,0.50674 1.03945,0.31187 1.94899,0.71467 2.72861,1.20839 l -1.3643,2.49473 c -1.45528,-0.77958 -3.09244,-1.16938 -4.9115,-1.16941 -2.28685,3e-5 -4.01497,0.88358 -5.18436,2.65065 -1.16941,1.74114 -1.85806,4.26185 -2.06595,7.56215 m 5.65212,12.27875 c 0.93551,0 1.7411,-0.15592 2.41677,-0.46776 0.70163,-0.33783 1.26034,-0.7796 1.67615,-1.32533 0.44176,-0.5717 0.76659,-1.23436 0.9745,-1.98798 0.20788,-0.75361 0.31183,-1.5592 0.31184,-2.41677 -1e-5,-2.15689 -0.45478,-3.74209 -1.3643,-4.75558 -0.88357,-1.01347 -2.15692,-1.52021 -3.82006,-1.52023 -1.79309,2e-5 -3.17039,0.57173 -4.13189,1.71513 -0.96152,1.11744 -1.44228,2.5727 -1.44227,4.36578 -1e-5,0.77961 0.10394,1.55921 0.31184,2.3388 0.20789,0.75363 0.51973,1.42928 0.93552,2.02697 0.44177,0.5977 1.00049,1.09145 1.67615,1.48125 0.70163,0.36382 1.52022,0.54572 2.45575,0.54572"
       id="path4077" />
  </g>
  <path
     d="m 165,245 70,0 0,70 -70,0 z"
     id="rect3974"
     style="fill:#90ee90;fill-opacity:1;fill-rule:evenodd;stroke:none" />
  <g
     id="text3976"
     style="font-size:38.98015213px;font-style:normal;font-variant:normal;font-weight:normal;font-stretch:normal;text-align:center;line-height:125%;letter-spacing:0px;word-spacing:0px;writing-mode:lr-tb;text-anchor:middle;fill:#000000;fill-opacity:1;stroke:none;font-family:Nokia Pure Headline ME;-inkscape-font-specification:Nokia Pure Headline ME">
    <path
       d="m 189.21252,271.76783 -6.50969,3.78107 -1.3643,-2.65065 8.92645,-5.3013 2.49473,0 0,27.40305 -3.54719,0 0,-23.23217"
       id="path4069" />
    <path
       d="m 200.66964,295 11.30424,-24.32361 -14.14979,0 0,-3.07944 17.69699,0 0,2.88453 L 204.33377,295 l -3.66413,0"
       id="path4071" />
  </g>
  <path
     d="m 245,245 70,0 0,70 -70,0 z"
     id="rect3980"
     style="fill:#90ee90;fill-opacity:1;fill-rule:evenodd;stroke:none" />
  <g
     id="text3982"
     style="font-size:38.98015213px;font-style:normal;font-variant:normal;font-weight:normal;font-stretch:normal;text-align:center;line-height:125%;letter-spacing:0px;word-spacing:0px;writing-mode:lr-tb;text-anchor:middle;fill:#000000;fill-opacity:1;stroke:none;font-family:Nokia Pure Headline ME;-inkscape-font-specification:Nokia Pure Headline ME">
    <path
       d="m 267.19499,271.76783 -6.50968,3.78107 -1.36431,-2.65065 8.92646,-5.3013 2.49473,0 0,27.40305 -3.5472,0 0,-23.23217"
       id="path4063" />
    <path
       d="m 295.66817,273.95072 c -2e-5,0.80561 -0.12996,1.54623 -0.38981,2.22187 -0.2339,0.64968 -0.57172,1.26037 -1.01348,1.83206 -0.41581,0.54574 -0.90955,1.05248 -1.48125,1.52023 -0.57172,0.44179 -1.18241,0.84458 -1.83206,1.20838 0.88353,0.41581 1.66313,0.85758 2.33881,1.32533 0.67563,0.44179 1.24734,0.94853 1.71512,1.52023 0.46775,0.57172 0.81857,1.22138 1.05247,1.949 0.23386,0.72764 0.3508,1.55922 0.35082,2.49473 -2e-5,2.3648 -0.8186,4.20986 -2.45575,5.53518 -1.63718,1.32533 -3.91102,1.98799 -6.82153,1.98799 -1.48125,0 -2.80658,-0.16891 -3.97597,-0.50674 -1.14343,-0.33783 -2.11793,-0.81858 -2.92351,-1.44227 -0.77961,-0.62368 -1.37731,-1.3643 -1.79309,-2.22186 -0.38981,-0.85756 -0.58471,-1.80608 -0.5847,-2.84556 -1e-5,-0.9615 0.14292,-1.81906 0.42878,-2.57269 0.31184,-0.77959 0.71463,-1.46824 1.20838,-2.06594 0.51973,-0.59769 1.13042,-1.11742 1.83207,-1.55921 0.70164,-0.46775 1.46824,-0.89653 2.29983,-1.28634 -0.64968,-0.31183 -1.28635,-0.67565 -1.91003,-1.09145 -0.5977,-0.41577 -1.13043,-0.89653 -1.59819,-1.44226 -0.46776,-0.5717 -0.84457,-1.22136 -1.13042,-1.94901 -0.28586,-0.72761 -0.42878,-1.57218 -0.42878,-2.53371 0,-0.96149 0.1819,-1.85803 0.54572,-2.68963 0.36381,-0.85754 0.90953,-1.59816 1.63717,-2.22187 0.72762,-0.64964 1.62416,-1.15639 2.68963,-1.52023 1.06545,-0.36378 2.29982,-0.54569 3.70311,-0.54572 1.48124,3e-5 2.75459,0.18194 3.82006,0.54572 1.06544,0.36384 1.94899,0.85759 2.65065,1.48125 0.70162,0.62371 1.22136,1.35134 1.5592,2.18289 0.33781,0.8316 0.50673,1.72814 0.50675,2.68963 m -2.65065,14.11081 c -2e-5,-1.53321 -0.51976,-2.7286 -1.55921,-3.58617 -1.03949,-0.85755 -2.54672,-1.62416 -4.5217,-2.29983 -0.77961,0.33784 -1.52023,0.70165 -2.22187,1.09144 -0.67566,0.36383 -1.28635,0.77962 -1.83206,1.24737 -0.51975,0.46777 -0.93553,1.01349 -1.24737,1.63717 -0.28586,0.5977 -0.42879,1.28635 -0.42878,2.06594 -10e-6,1.35132 0.49374,2.44276 1.48124,3.27434 0.98749,0.80559 2.46874,1.20838 4.44374,1.20838 1.87104,0 3.3133,-0.3898 4.3268,-1.1694 1.03945,-0.7796 1.55919,-1.93601 1.55921,-3.46924 m -0.66267,-13.99387 c -10e-6,-1.24734 -0.4288,-2.27382 -1.28634,-3.07943 -0.85758,-0.80557 -2.16991,-1.20836 -3.937,-1.20839 -1.74112,3e-5 -3.05345,0.40282 -3.93699,1.20839 -0.88356,0.80561 -1.32533,1.81909 -1.32533,3.04045 0,0.77962 0.14292,1.46827 0.42878,2.06595 0.31184,0.57172 0.72763,1.07846 1.24737,1.52022 0.54571,0.41581 1.16939,0.79262 1.87105,1.13043 0.70163,0.31185 1.46824,0.58471 2.29982,0.81858 1.42926,-0.62367 2.55969,-1.3513 3.39128,-2.18289 0.83156,-0.85754 1.24735,-1.96198 1.24736,-3.31331"
       id="path4065" />
  </g>
  <path
     d="m 325,245 70,0 0,70 -70,0 z"
     id="rect3986"
     style="fill:#90ee90;fill-opacity:1;fill-rule:evenodd;stroke:none" />
  <g
     id="text3988"
     style="font-size:38.98015213px;font-style:normal;font-variant:normal;font-weight:normal;font-stretch:normal;text-align:center;line-height:125%;letter-spacing:0px;word-spacing:0px;writing-mode:lr-tb;text-anchor:middle;fill:#000000;fill-opacity:1;stroke:none;font-family:Nokia Pure Headline ME;-inkscape-font-specification:Nokia Pure Headline ME">
    <path
       d="m 347.99439,271.76783 -6.50969,3.78107 -1.3643,-2.65065 8.92645,-5.3013 2.49473,0 0,27.40305 -3.54719,0 0,-23.23217"
       id="path4057" />
    <path
       d="m 372.29669,282.25349 c -0.25989,0.46777 -0.61071,0.89656 -1.05247,1.28635 -0.4158,0.38981 -0.90955,0.72764 -1.48124,1.01348 -0.54574,0.28586 -1.15643,0.51974 -1.83207,0.70164 -0.64968,0.15593 -1.32534,0.23389 -2.02697,0.23388 -1.09145,1e-5 -2.13092,-0.1689 -3.11841,-0.50674 -0.96152,-0.33782 -1.81908,-0.85755 -2.57269,-1.55921 -0.72763,-0.72761 -1.31233,-1.65014 -1.75411,-2.76759 -0.41579,-1.11741 -0.62368,-2.45573 -0.62368,-4.01495 0,-1.5332 0.20789,-2.89751 0.62368,-4.09292 0.41579,-1.19537 1.01348,-2.19585 1.79309,-3.00147 0.7796,-0.83155 1.71512,-1.45523 2.80657,-1.87105 1.09144,-0.41576 2.29982,-0.62365 3.62515,-0.62368 2.78058,3e-5 4.97646,1.0395 6.58765,3.11841 1.61116,2.05298 2.41675,5.19738 2.41677,9.4332 -2e-5,2.70264 -0.25989,5.05444 -0.7796,7.05541 -0.49377,1.975 -1.2214,3.62516 -2.18289,4.95048 -0.96153,1.32532 -2.13093,2.31282 -3.50822,2.96249 -1.37731,0.64967 -2.93651,0.9745 -4.67761,0.9745 -1.48126,0 -2.67665,-0.10395 -3.58618,-0.31184 -0.88355,-0.18191 -1.45526,-0.32483 -1.71512,-0.42878 l 0.70164,-2.84555 c 0.15592,0.052 0.3768,0.11694 0.66266,0.1949 0.31184,0.052 0.67565,0.10395 1.09145,0.15592 0.41578,0.052 0.85755,0.10395 1.32532,0.15592 0.46776,0.052 0.93552,0.078 1.40329,0.078 1.3513,0 2.49472,-0.22088 3.43025,-0.66266 0.9615,-0.46776 1.7411,-1.13042 2.33881,-1.98799 0.62367,-0.88354 1.09143,-1.96199 1.40328,-3.23535 0.33782,-1.29933 0.5717,-2.76758 0.70165,-4.40476 m -5.61315,-12.23977 c -0.93553,3e-5 -1.75411,0.15595 -2.45574,0.46776 -0.67567,0.31187 -1.23438,0.75364 -1.67615,1.32533 -0.44178,0.54574 -0.76662,1.19541 -0.97451,1.94901 -0.20789,0.75363 -0.31184,1.55922 -0.31184,2.41677 0,2.15691 0.44177,3.74211 1.32533,4.75558 0.90953,1.01349 2.19587,1.52023 3.85903,1.52022 0.88354,1e-5 1.66315,-0.14291 2.33881,-0.42878 0.70163,-0.31183 1.28633,-0.74061 1.75411,-1.28635 0.49373,-0.5457 0.85755,-1.18238 1.09144,-1.91002 0.25986,-0.7536 0.38979,-1.57218 0.38981,-2.45575 -2e-5,-0.77959 -0.10397,-1.5462 -0.31185,-2.29983 -0.2079,-0.7536 -0.53274,-1.42925 -0.9745,-2.02697 -0.44179,-0.62366 -1.0005,-1.11741 -1.67615,-1.48125 -0.64968,-0.36379 -1.44227,-0.54569 -2.37779,-0.54572"
       id="path4059" />
  </g>
  <path
     d="m 5,325 70,0 0,70 -70,0 z"
     id="rect4008"
     style="fill:#90ee90;fill-opacity:1;fill-rule:evenodd;stroke:none" />
  <g
     id="text4010"
     style="font-size:38.98015213px;font-style:normal;font-variant:normal;font-weight:normal;font-stretch:normal;text-align:center;line-height:125%;letter-spacing:0px;word-spacing:0px;writing-mode:lr-tb;text-anchor:middle;fill:#000000;fill-opacity:1;stroke:none;font-family:Nokia Pure Headline ME;-inkscape-font-specification:Nokia Pure Headline ME">
    <path
       d="m 26.20799,361.55185 c 0.831568,-0.64966 1.57219,-1.26035 2.221869,-1.83207 0.649658,-0.57169 1.19538,-1.13041 1.637167,-1.67615 0.441762,-0.5457 0.766596,-1.10442 0.974503,-1.67614 0.233868,-0.59768 0.350808,-1.24735 0.350822,-1.94901 -1.4e-5,-1.24734 -0.376822,-2.27382 -1.130425,-3.07943 -0.753628,-0.83155 -1.949018,-1.24734 -3.586174,-1.24737 -0.805598,3e-5 -1.533226,0.11697 -2.182888,0.35082 -0.623689,0.20792 -1.182404,0.46779 -1.676147,0.77961 -0.467766,0.31186 -0.883554,0.66268 -1.247365,1.05246 -0.363818,0.36384 -0.662665,0.70167 -0.896543,1.01349 l -2.221869,-1.91003 c 0.259867,-0.41577 0.636675,-0.87053 1.130425,-1.36431 0.519733,-0.51971 1.130421,-0.98747 1.832067,-1.40328 0.701638,-0.44175 1.507227,-0.80557 2.416769,-1.09145 0.935517,-0.31181 1.961993,-0.46773 3.079432,-0.46776 1.429262,3e-5 2.663632,0.20792 3.703115,0.62368 1.039456,0.41582 1.884026,0.97453 2.53371,1.67615 0.649653,0.67568 1.130407,1.45528 1.442265,2.33881 0.311824,0.85758 0.467745,1.72814 0.467762,2.61167 -1.7e-5,0.98752 -0.168931,1.91005 -0.506742,2.76759 -0.337844,0.83159 -0.792612,1.62419 -1.364305,2.37779 -0.545737,0.72764 -1.182413,1.41629 -1.910028,2.06595 -0.727642,0.64968 -1.494251,1.28635 -2.299829,1.91002 -2.00099,1.55922 -3.547201,2.98849 -4.638638,4.28782 -1.09145,1.29935 -1.728125,2.71562 -1.910027,4.24884 l 12.98039,0 0,3.04045 -16.644525,0 0,-0.5847 c -1e-6,-1.42927 0.15592,-2.71562 0.467762,-3.85904 0.31184,-1.1694 0.766608,-2.26084 1.364306,-3.27433 0.623678,-1.01348 1.403281,-1.97498 2.338809,-2.88453 0.935517,-0.93551 2.02696,-1.88403 3.274332,-2.84555"
       id="path4051" />
    <path
       d="m 47.97536,347.05123 c 3.352279,3e-5 5.821019,1.22141 7.406229,3.66414 1.611159,2.41679 2.416748,5.93799 2.41677,10.56362 -2.2e-5,4.65164 -0.805611,8.19883 -2.41677,10.64158 -1.58521,2.41677 -4.05395,3.62515 -7.406229,3.62515 -3.352301,0 -5.834035,-1.20838 -7.445209,-3.62515 -1.585195,-2.44275 -2.377791,-5.98994 -2.377789,-10.64158 -2e-6,-4.62563 0.792594,-8.14683 2.377789,-10.56362 1.611174,-2.44273 4.092908,-3.66411 7.445209,-3.66414 m 0,3.07943 c -2.130924,3e-5 -3.690129,0.93555 -4.677618,2.80657 -0.987503,1.84508 -1.481251,4.62567 -1.481246,8.34176 -5e-6,3.71611 0.493743,6.50969 1.481246,8.38073 0.987489,1.87105 2.546694,2.80657 4.677618,2.80657 2.130902,0 3.690106,-0.93552 4.677619,-2.80657 0.98748,-1.87104 1.481228,-4.66462 1.481245,-8.38073 -1.7e-5,-3.71609 -0.493765,-6.49668 -1.481245,-8.34176 -0.987513,-1.87102 -2.546717,-2.80654 -4.677619,-2.80657"
       id="path4053" />
  </g>
  <path
     d="m 85,325 70,0 0,70 -70,0 z"
     id="rect4014"
     style="fill:#90ee90;fill-opacity:1;fill-rule:evenodd;stroke:none" />
  <g
     id="text4016"
     style="font-size:38.98015213px;font-style:normal;font-variant:normal;font-weight:normal;font-stretch:normal;text-align:center;line-height:125%;letter-spacing:0px;word-spacing:0px;writing-mode:lr-tb;text-anchor:middle;fill:#000000;fill-opacity:1;stroke:none;font-family:Nokia Pure Headline ME;-inkscape-font-specification:Nokia Pure Headline ME">
    <path
       d="m 108.72039,361.55185 c 0.83156,-0.64966 1.57219,-1.26035 2.22187,-1.83207 0.64965,-0.57169 1.19537,-1.13041 1.63716,-1.67615 0.44176,-0.5457 0.7666,-1.10442 0.97451,-1.67614 0.23386,-0.59768 0.3508,-1.24735 0.35082,-1.94901 -2e-5,-1.24734 -0.37682,-2.27382 -1.13043,-3.07943 -0.75363,-0.83155 -1.94902,-1.24734 -3.58617,-1.24737 -0.8056,3e-5 -1.53323,0.11697 -2.18289,0.35082 -0.62369,0.20792 -1.1824,0.46779 -1.67615,0.77961 -0.46776,0.31186 -0.88355,0.66268 -1.24736,1.05246 -0.36382,0.36384 -0.66267,0.70167 -0.89654,1.01349 l -2.22187,-1.91003 c 0.25986,-0.41577 0.63667,-0.87053 1.13042,-1.36431 0.51973,-0.51971 1.13042,-0.98747 1.83207,-1.40328 0.70164,-0.44175 1.50723,-0.80557 2.41677,-1.09145 0.93551,-0.31181 1.96199,-0.46773 3.07943,-0.46776 1.42926,3e-5 2.66363,0.20792 3.70311,0.62368 1.03946,0.41582 1.88403,0.97453 2.53371,1.67615 0.64966,0.67568 1.13041,1.45528 1.44227,2.33881 0.31182,0.85758 0.46774,1.72814 0.46776,2.61167 -2e-5,0.98752 -0.16893,1.91005 -0.50674,2.76759 -0.33785,0.83159 -0.79261,1.62419 -1.36431,2.37779 -0.54573,0.72764 -1.18241,1.41629 -1.91002,2.06595 -0.72765,0.64968 -1.49425,1.28635 -2.29983,1.91002 -2.00099,1.55922 -3.5472,2.98849 -4.63864,4.28782 -1.09145,1.29935 -1.72813,2.71562 -1.91003,4.24884 l 12.98039,0 0,3.04045 -16.64452,0 0,-0.5847 c 0,-1.42927 0.15592,-2.71562 0.46776,-3.85904 0.31184,-1.1694 0.76661,-2.26084 1.3643,-3.27433 0.62368,-1.01348 1.40329,-1.97498 2.33881,-2.88453 0.93552,-0.93551 2.02696,-1.88403 3.27434,-2.84555"
       id="path4045" />
    <path
       d="m 128.16966,351.76783 -6.50969,3.78107 -1.3643,-2.65065 8.92645,-5.3013 2.49473,0 0,27.40305 -3.54719,0 0,-23.23217"
       id="path4047" />
  </g>
  <path
     d="m 165,325 70,0 0,70 -70,0 z"
     id="rect4020"
     style="fill:#90ee90;fill-opacity:1;fill-rule:evenodd;stroke:none" />
  <g
     id="text4022"
     style="font-size:38.98015213px;font-style:normal;font-variant:normal;font-weight:normal;font-stretch:normal;text-align:center;line-height:125%;letter-spacing:0px;word-spacing:0px;writing-mode:lr-tb;text-anchor:middle;fill:#000000;fill-opacity:1;stroke:none;font-family:Nokia Pure Headline ME;-inkscape-font-specification:Nokia Pure Headline ME">
    <path
       d="m 187.50226,361.55185 c 0.83157,-0.64966 1.57219,-1.26035 2.22187,-1.83207 0.64966,-0.57169 1.19538,-1.13041 1.63717,-1.67615 0.44176,-0.5457 0.7666,-1.10442 0.9745,-1.67614 0.23387,-0.59768 0.35081,-1.24735 0.35083,-1.94901 -2e-5,-1.24734 -0.37683,-2.27382 -1.13043,-3.07943 -0.75363,-0.83155 -1.94902,-1.24734 -3.58617,-1.24737 -0.8056,3e-5 -1.53323,0.11697 -2.18289,0.35082 -0.62369,0.20792 -1.18241,0.46779 -1.67615,0.77961 -0.46776,0.31186 -0.88355,0.66268 -1.24736,1.05246 -0.36382,0.36384 -0.66267,0.70167 -0.89655,1.01349 l -2.22187,-1.91003 c 0.25987,-0.41577 0.63668,-0.87053 1.13043,-1.36431 0.51973,-0.51971 1.13042,-0.98747 1.83207,-1.40328 0.70163,-0.44175 1.50722,-0.80557 2.41677,-1.09145 0.93551,-0.31181 1.96199,-0.46773 3.07943,-0.46776 1.42926,3e-5 2.66363,0.20792 3.70311,0.62368 1.03946,0.41582 1.88403,0.97453 2.53371,1.67615 0.64965,0.67568 1.13041,1.45528 1.44227,2.33881 0.31182,0.85758 0.46774,1.72814 0.46776,2.61167 -2e-5,0.98752 -0.16893,1.91005 -0.50674,2.76759 -0.33785,0.83159 -0.79262,1.62419 -1.36431,2.37779 -0.54574,0.72764 -1.18241,1.41629 -1.91003,2.06595 -0.72764,0.64968 -1.49425,1.28635 -2.29982,1.91002 -2.00099,1.55922 -3.54721,2.98849 -4.63864,4.28782 -1.09145,1.29935 -1.72813,2.71562 -1.91003,4.24884 l 12.98039,0 0,3.04045 -16.64452,0 0,-0.5847 c -1e-5,-1.42927 0.15592,-2.71562 0.46776,-3.85904 0.31184,-1.1694 0.7666,-2.26084 1.3643,-3.27433 0.62368,-1.01348 1.40328,-1.97498 2.33881,-2.88453 0.93552,-0.93551 2.02696,-1.88403 3.27433,-2.84555"
       id="path4039" />
    <path
       d="m 207.06847,361.55185 c 0.83157,-0.64966 1.57219,-1.26035 2.22187,-1.83207 0.64966,-0.57169 1.19538,-1.13041 1.63717,-1.67615 0.44176,-0.5457 0.7666,-1.10442 0.9745,-1.67614 0.23387,-0.59768 0.35081,-1.24735 0.35082,-1.94901 -10e-6,-1.24734 -0.37682,-2.27382 -1.13042,-3.07943 -0.75363,-0.83155 -1.94902,-1.24734 -3.58617,-1.24737 -0.8056,3e-5 -1.53323,0.11697 -2.18289,0.35082 -0.62369,0.20792 -1.18241,0.46779 -1.67615,0.77961 -0.46777,0.31186 -0.88355,0.66268 -1.24736,1.05246 -0.36382,0.36384 -0.66267,0.70167 -0.89655,1.01349 l -2.22187,-1.91003 c 0.25987,-0.41577 0.63668,-0.87053 1.13043,-1.36431 0.51973,-0.51971 1.13042,-0.98747 1.83207,-1.40328 0.70163,-0.44175 1.50722,-0.80557 2.41677,-1.09145 0.93551,-0.31181 1.96199,-0.46773 3.07943,-0.46776 1.42926,3e-5 2.66363,0.20792 3.70311,0.62368 1.03946,0.41582 1.88403,0.97453 2.53371,1.67615 0.64965,0.67568 1.13041,1.45528 1.44227,2.33881 0.31182,0.85758 0.46774,1.72814 0.46776,2.61167 -2e-5,0.98752 -0.16893,1.91005 -0.50674,2.76759 -0.33785,0.83159 -0.79262,1.62419 -1.36431,2.37779 -0.54574,0.72764 -1.18241,1.41629 -1.91003,2.06595 -0.72764,0.64968 -1.49425,1.28635 -2.29982,1.91002 -2.001,1.55922 -3.54721,2.98849 -4.63864,4.28782 -1.09145,1.29935 -1.72813,2.71562 -1.91003,4.24884 l 12.98039,0 0,3.04045 -16.64452,0 0,-0.5847 c -1e-5,-1.42927 0.15591,-2.71562 0.46776,-3.85904 0.31184,-1.1694 0.7666,-2.26084 1.3643,-3.27433 0.62368,-1.01348 1.40328,-1.97498 2.33881,-2.88453 0.93552,-0.93551 2.02696,-1.88403 3.27433,-2.84555"
       id="path4041" />
  </g>
  <path
     d="m 245,325 70,0 0,70 -70,0 z"
     id="rect4026"
     style="fill:#90ee90;fill-opacity:1;fill-rule:evenodd;stroke:none" />
  <g
     id="text4028"
     style="font-size:38.98015213px;font-style:normal;font-variant:normal;font-weight:normal;font-stretch:normal;text-align:center;line-height:125%;letter-spacing:0px;word-spacing:0px;writing-mode:lr-tb;text-anchor:middle;fill:#000000;fill-opacity:1;stroke:none;font-family:Nokia Pure Headline ME;-inkscape-font-specification:Nokia Pure Headline ME">
    <path
       d="m 267.5784,361.55185 c 0.83157,-0.64966 1.57219,-1.26035 2.22187,-1.83207 0.64965,-0.57169 1.19538,-1.13041 1.63716,-1.67615 0.44177,-0.5457 0.7666,-1.10442 0.97451,-1.67614 0.23386,-0.59768 0.3508,-1.24735 0.35082,-1.94901 -2e-5,-1.24734 -0.37682,-2.27382 -1.13043,-3.07943 -0.75362,-0.83155 -1.94901,-1.24734 -3.58617,-1.24737 -0.8056,3e-5 -1.53323,0.11697 -2.18289,0.35082 -0.62369,0.20792 -1.1824,0.46779 -1.67615,0.77961 -0.46776,0.31186 -0.88355,0.66268 -1.24736,1.05246 -0.36382,0.36384 -0.66267,0.70167 -0.89654,1.01349 l -2.22187,-1.91003 c 0.25986,-0.41577 0.63667,-0.87053 1.13042,-1.36431 0.51973,-0.51971 1.13042,-0.98747 1.83207,-1.40328 0.70164,-0.44175 1.50723,-0.80557 2.41677,-1.09145 0.93552,-0.31181 1.96199,-0.46773 3.07943,-0.46776 1.42926,3e-5 2.66363,0.20792 3.70312,0.62368 1.03945,0.41582 1.88402,0.97453 2.5337,1.67615 0.64966,0.67568 1.13041,1.45528 1.44227,2.33881 0.31182,0.85758 0.46775,1.72814 0.46776,2.61167 -1e-5,0.98752 -0.16893,1.91005 -0.50674,2.76759 -0.33784,0.83159 -0.79261,1.62419 -1.3643,2.37779 -0.54574,0.72764 -1.18242,1.41629 -1.91003,2.06595 -0.72764,0.64968 -1.49425,1.28635 -2.29983,1.91002 -2.00099,1.55922 -3.5472,2.98849 -4.63864,4.28782 -1.09145,1.29935 -1.72812,2.71562 -1.91003,4.24884 l 12.98039,0 0,3.04045 -16.64452,0 0,-0.5847 c 0,-1.42927 0.15592,-2.71562 0.46776,-3.85904 0.31184,-1.1694 0.76661,-2.26084 1.36431,-3.27433 0.62367,-1.01348 1.40328,-1.97498 2.33881,-2.88453 0.93551,-0.93551 2.02696,-1.88403 3.27433,-2.84555"
       id="path4033" />
    <path
       d="m 283.36353,359.4859 2.61167,0 c 1.01348,10e-6 1.88403,-0.12992 2.61167,-0.3898 0.75361,-0.25985 1.3643,-0.61067 1.83207,-1.05247 0.49374,-0.44175 0.84456,-0.96149 1.05246,-1.5592 0.23387,-0.59768 0.35081,-1.23435 0.35083,-1.91003 -2e-5,-1.27333 -0.37683,-2.33879 -1.13043,-3.19637 -0.75363,-0.88353 -1.975,-1.3253 -3.66413,-1.32533 -0.77961,3e-5 -1.48126,0.078 -2.10493,0.23388 -0.5977,0.15595 -1.14342,0.35085 -1.63717,0.58471 -0.46776,0.2339 -0.88355,0.49377 -1.24736,0.7796 -0.36382,0.25989 -0.66267,0.50676 -0.89655,0.74062 l -1.91002,-2.02697 c 0.25986,-0.28583 0.62368,-0.62365 1.09144,-1.01348 0.46776,-0.38978 1.02648,-0.75359 1.67615,-1.09144 0.67565,-0.33781 1.44226,-0.62366 2.29983,-0.85757 0.85755,-0.23385 1.79308,-0.35079 2.80657,-0.35082 1.45525,3e-5 2.70261,0.19493 3.74209,0.5847 1.03946,0.38983 1.89702,0.90957 2.57269,1.55921 0.67564,0.64969 1.16939,1.39032 1.48125,2.22187 0.31182,0.8316 0.46774,1.68916 0.46776,2.57269 -2e-5,0.85758 -0.12995,1.65018 -0.3898,2.37779 -0.25989,0.70166 -0.61071,1.33833 -1.05247,1.91002 -0.44179,0.54574 -0.96152,1.03949 -1.5592,1.48125 -0.59771,0.4158 -1.22139,0.76662 -1.87105,1.05246 0.7536,0.20791 1.45525,0.50676 2.10493,0.89655 0.64965,0.36383 1.22136,0.81859 1.71513,1.3643 0.49373,0.54574 0.87054,1.18241 1.13042,1.91003 0.28584,0.70165 0.42876,1.49425 0.42878,2.37779 -2e-5,1.32533 -0.25988,2.49474 -0.7796,3.50821 -0.49377,1.01349 -1.18241,1.87105 -2.06595,2.57269 -0.88356,0.70165 -1.93603,1.22138 -3.15739,1.55921 -1.1954,0.36381 -2.49474,0.54572 -3.89802,0.54572 -1.61118,0 -3.00147,-0.11694 -4.17087,-0.35082 -1.16941,-0.23388 -2.09194,-0.46776 -2.76759,-0.70164 l 0.7796,-2.80657 c 0.49375,0.12993 1.20838,0.29885 2.14391,0.50674 0.93552,0.18191 2.18288,0.27286 3.74209,0.27286 1.97499,0 3.56018,-0.41579 4.75558,-1.24736 1.19538,-0.83158 1.79307,-2.11792 1.79309,-3.85904 -2e-5,-1.37729 -0.49376,-2.52071 -1.48125,-3.43025 -0.98751,-0.93551 -2.54671,-1.40328 -4.67762,-1.40329 l -2.72861,0 0,-3.04045"
       id="path4035" />
  </g>
</svg>